<?xml version="1.0" standalone="no"?>
<!DOCTYPE svg PUBLIC "-//W3C//DTD SVG 1.1//EN" "http://www.w3.org/Graphics/SVG/1.1/DTD/svg11.dtd" >
<svg>
<metadata>
Created by FontForge 20090622 at Fri Oct 27 16:37:04 2017
 By deploy user
&#194;&#169; 1989, 1999, 2000 Adobe Systems Incorporated. All rights reserved.
</metadata>
<defs>
<font id="TrajanPro-Regular" horiz-adv-x="535" >
  <font-face 
    font-family="Trajan Pro"
    font-weight="400"
    font-stretch="normal"
    units-per-em="1000"
    panose-1="2 2 5 2 5 5 6 2 3 1"
    ascent="750"
    descent="-250"
    x-height="640"
    cap-height="753"
    bbox="-250.267 -256 1517 998"
    underline-thickness="50"
    underline-position="-50"
    unicode-range="U+0020-U+FB02"
  />
<missing-glyph horiz-adv-x="500" 
d="M0 0v700h500v-700h-500zM250 395l170 255h-340zM280 350l170 -255v510zM80 50h340l-170 255zM50 605v-510l170 255z" />
    <glyph glyph-name=".notdef" horiz-adv-x="500" 
d="M0 0v700h500v-700h-500zM250 395l170 255h-340zM280 350l170 -255v510zM80 50h340l-170 255zM50 605v-510l170 255z" />
    <glyph glyph-name=".null" horiz-adv-x="0" 
 />
    <glyph glyph-name="nonmarkingreturn" horiz-adv-x="333" 
 />
    <glyph glyph-name="space" unicode=" " horiz-adv-x="325" 
 />
    <glyph glyph-name="exclam" unicode="!" horiz-adv-x="320" 
d="M143 206l-16 266q0 1 -1.5 31t-3.5 58t-4.5 58.5t-5.5 41.5q-4 16 -4 19q0 6 5 14q26 44 74 68q10 5 15 5q6 0 6 -10q0 -2 -2.5 -19.5t-6.5 -49t-6 -63.5q0 -3 -5.5 -111l-11 -212.5t-6.5 -115.5q-2 -32 -12 -32q-12 0 -15 52zM160 -17q-24 0 -37 15.5t-13 35.5
q0 19 13 35t38 16q22 0 36.5 -13.5t14.5 -34.5q0 -23 -14.5 -38.5t-37.5 -15.5z" />
    <glyph glyph-name="quotedbl" unicode="&#x22;" horiz-adv-x="325" 
d="M100 755h17.5t12.5 -1.5t9.5 -4.5t2.5 -8t-5.5 -26t-13.5 -61.5t-12 -88.5q-3 -45 -11 -45t-11 45q-4 48 -12 88.5t-13.5 61.5t-5.5 26t2.5 8t9.5 4.5t12.5 1.5h17.5zM225 755h17.5t12.5 -1.5t9.5 -4.5t2.5 -8t-5.5 -26t-13.5 -61.5t-12 -88.5q-3 -45 -11 -45t-11 45
q-4 48 -12 88.5t-13.5 61.5t-5.5 26t2.5 8t9.5 4.5t12.5 1.5h17.5z" />
    <glyph glyph-name="numbersign" unicode="#" horiz-adv-x="571" 
d="M539 460h-120l-24 -164h114v-56h-123l-36 -240h-35l37 240h-163l-38 -240h-35l38 240h-122v56h131l25 164h-124v56h132l33 238h36l-33 -238h160l32 238h35l-32 -238h112v-56zM384 460h-160l-25 -164h161z" />
    <glyph glyph-name="dollar" unicode="$" horiz-adv-x="571" 
d="M280 0l-7 -81q-1 -6 -10 -8l-19 -6q-4 -1 -6 1.5t-1 8.5l8 85q-76 0 -131 24q-19 8 -23.5 14t-4.5 22q0 74 11 118q3 19 11 19q6 0 5 -22q-2 -61 26 -93q37 -44 109 -44l29 320q-92 64 -130.5 111t-38.5 110q0 58 34.5 100.5t80.5 61t92 18.5l7 80q0 7 6 9l23 7q8 2 8 -5
l-9 -91q76 0 112 -14q8 -4 8 -15q0 -83 -4 -117q-1 -10 -8 -10q-8 0 -8 15q0 52 -29 79q-31 29 -75 29l-29 -298q45 -29 69 -47.5t52.5 -47t41 -61.5t12.5 -73q0 -53 -23 -93.5t-57.5 -62.5t-68.5 -32.5t-63 -10.5zM285 453l26 273q-16 0 -36.5 -5t-44 -17t-39.5 -38
t-16 -61q0 -43 26.5 -77.5t83.5 -74.5zM310 335l-26 -297q63 3 99.5 40.5t36.5 98.5q0 87 -110 158z" />
    <glyph glyph-name="percent" unicode="%" horiz-adv-x="870" 
d="M647 0q-80 0 -123 54.5t-43 121.5q0 77 44 134t129 57q79 0 122.5 -54.5t43.5 -121.5q0 -76 -44.5 -133.5t-128.5 -57.5zM651 28q54 0 80.5 42t26.5 107q0 64 -29.5 113t-79.5 49q-54 0 -80 -41.5t-26 -107.5q0 -64 28.5 -113t79.5 -49zM300 -4l-46 -8q-8 -1 -10.5 2.5
t-0.5 8.5l316 735q-26 -1 -82.5 -5.5t-101.5 -7.5t-52 -3v-2q28 -20 46.5 -58.5t18.5 -84.5q0 -76 -44.5 -133.5t-127.5 -57.5q-80 0 -123 54.5t-43 121.5q0 77 46.5 134.5t131.5 57.5q75 0 163.5 6t149 11.5t67.5 5.5t7 -4q0 -1 -11 -29l-294 -732q-5 -11 -10 -12zM220 410
q54 0 80 41.5t26 107.5q0 64 -29 113.5t-79 49.5q-54 0 -80 -42t-26 -108q0 -64 28.5 -113t79.5 -49z" />
    <glyph glyph-name="ampersand" unicode="&#x26;" horiz-adv-x="775" 
d="M293 -17q-62 0 -111 22t-76.5 56.5t-41.5 71t-14 71.5q0 151 153 241q-49 69 -49 138q0 66 60.5 125t154.5 59q76 0 121 -25q13 -8 13 -25q0 -80 -7 -115q-3 -17 -10 -17q-6 0 -6 19q0 53 -31 85q-42 44 -100 44q-51 0 -89 -33t-38 -98q0 -54 35 -107.5t123 -148.5
q24 -26 93.5 -91.5t95.5 -87.5q22 30 36.5 76t14.5 90q0 30 -19 49q-16 16 -49 16q-12 0 -12 7t16 7q55 0 120 -7q18 -2 18 -20q0 -56 -30.5 -122.5t-68.5 -113.5q73 -62 138 -99q66 -39 119 -39q14 0 14 -7t-17 -7h-98q-57 0 -92.5 15.5t-115.5 78.5q-108 -108 -250 -108z
M328 36q117 0 189 74q-39 32 -98.5 88.5t-82.5 80.5q-85 91 -118 140q-90 -59 -90 -168q0 -93 57.5 -154t142.5 -61z" />
    <glyph glyph-name="quotesingle" unicode="'" horiz-adv-x="200" 
d="M100 755h17.5t12.5 -1.5t9.5 -4.5t2.5 -8t-5.5 -26t-13.5 -61.5t-12 -88.5q-3 -45 -11 -45t-11 45q-4 48 -12 88.5t-13.5 61.5t-5.5 26t2.5 8t9.5 4.5t12.5 1.5h17.5z" />
    <glyph glyph-name="parenleft" unicode="(" horiz-adv-x="360" 
d="M137 319q0 -144 36.5 -243t105.5 -181q7 -9 7 -12q0 -7 -7 -7q-2 0 -9 5q-33 24 -66 62t-66.5 91.5t-54.5 125t-21 146.5t23 150t57.5 130.5t67.5 94t59 57.5q8 6 11 6q7 0 7 -8q0 -4 -7 -11q-49 -49 -96 -160t-47 -246z" />
    <glyph glyph-name="parenright" unicode=")" horiz-adv-x="360" 
d="M223 301q0 144 -36.5 243t-105.5 181q-7 9 -7 12q0 7 7 7q2 0 9 -5q33 -24 66 -62t66.5 -91.5t54.5 -124.5t21 -145q0 -99 -40.5 -197t-85 -154t-81.5 -83q-8 -6 -11 -6q-7 0 -7 8q0 4 7 11q49 49 96 160t47 246z" />
    <glyph glyph-name="asterisk" unicode="*" horiz-adv-x="350" 
d="M207 797q0 -41 -27 -127q-2 -4 0 -7q1 -1 5 0q29 8 56.5 26t37.5 29q9 7 10 7q6 0 17 -24.5t11 -38.5q0 -6 -12 -9q-1 0 -115 -4q-2 0 -6 -2q-2 -2 1 -7q8 -14 41 -40.5t43 -29.5q11 -4 11 -9q0 -12 -20 -31t-31 -19q-6 0 -14 14q-24 44 -43 103q-3 6 -4 6q-3 0 -4 -3
q-4 -6 -19 -39.5t-19 -43.5q-6 -21 -6 -23q0 -5 -12 -5q-24 0 -43.5 4t-19.5 9q0 7 7 16q12 17 100 91q3 3 3 6t-4 3q-27 7 -95 7q-4 0 -8 -2l-4 -1q-11 0 -11 67q0 8 10 8q19 0 55.5 -23.5t57.5 -40.5q4 -2 8 -1q1 2 1 7q1 9 -10 48.5t-16 49.5q-4 8 -4 11q0 7 25 18t39 11
q8 0 8 -11z" />
    <glyph glyph-name="plus" unicode="+" horiz-adv-x="510" 
d="M468 243h-186v-187h-52v187h-188v51h187v187h52v-187h187v-51z" />
    <glyph glyph-name="comma" unicode="," horiz-adv-x="250" 
d="M111 -2q0 27 -17 48t-17 23q0 20 20.5 37t41.5 17q6 0 18 -19q17 -26 17 -43q0 -13 -10 -39q-30 -70 -64 -107q-7 -9 -13 -9q-7 0 -7 7l7 14q24 41 24 71z" />
    <glyph glyph-name="hyphen" unicode="-" horiz-adv-x="390" 
d="M73 310h252q30 0 30 -10q0 -2 -0.5 -3.5t-2 -3t-3 -2.5t-4 -2t-4.5 -1.5t-5 -1.5t-5 -1t-5.5 -1t-5.5 -1q-223 -33 -238 -37q-8 -2 -17.5 -6l-15.5 -6.5t-8 -2.5q-8 0 -5 15l15 56q2 8 22 8z" />
    <glyph glyph-name="period" unicode="." horiz-adv-x="250" 
d="M124 0q-26 0 -40 17t-14 38q0 20 14 37.5t41 17.5q24 0 39.5 -14t15.5 -38q0 -25 -15.5 -41.5t-40.5 -16.5z" />
    <glyph glyph-name="slash" unicode="/" horiz-adv-x="552" 
d="M55 -15l-32 21q-6 3 1 15l461 739q6 9 14 4l30 -18q6 -4 2 -10l-464 -746q-5 -9 -12 -5z" />
    <glyph glyph-name="zero" unicode="0" horiz-adv-x="571" 
d="M42 352q0 182 67 298.5t184 116.5q65 0 113.5 -38.5t73.5 -98t37 -118.5t12 -114q0 -180 -67 -297.5t-185 -117.5q-74 0 -129 56t-80.5 138t-25.5 175zM123 393q0 -68 10 -132.5t30.5 -119.5t55 -88t78.5 -33q67 0 109 93.5t42 241.5q0 97 -19.5 181t-60.5 139t-95 55
q-69 0 -109.5 -92t-40.5 -245z" />
    <glyph glyph-name="one" unicode="1" horiz-adv-x="571" 
d="M341 486l-1 -185q-2 -171 5 -230q3 -26 10.5 -37t29.5 -16q30 -6 66 -6q9 0 9 -8q0 -7 -17 -7q-33 0 -67.5 0.5t-55.5 1.5l-21 1l-25 -1q-26 -1 -63 -1.5t-65 -0.5q-17 0 -17 7q0 8 8 8q47 0 80 7q24 4 32 15.5t10 36.5q3 44 3 230v175v152q0 17 -3.5 24t-14.5 7
q-14 0 -114 -48q-7 -4 -12 -4q-7 0 -7 9q0 5 7 10l193 129q18 12 24 12q11 0 11 -21l-1 -34q-1 -33 -2.5 -95.5t-1.5 -130.5z" />
    <glyph glyph-name="two" unicode="2" horiz-adv-x="571" 
d="M428 0h-379q-5 0 -9.5 4t-4.5 10q0 8 18 24l83 75t73 69.5t66 70.5t51.5 68t42 72.5t24 73t9.5 79.5q0 51 -15 89t-39.5 57.5t-51 29t-53.5 9.5q-66 0 -107 -38q-35 -34 -35 -97q0 -15 -9 -15q-7 0 -8 13q-6 54 -6 123q0 8 10 15q76 35 176 35q108 0 167 -58.5t59 -143.5
q0 -57 -24 -118t-57.5 -109.5t-83.5 -101t-88 -86.5l-84 -74q-7 -6 -11 -9t-3 -5t5 -2h73q126 0 171 5q97 9 117 96q4 15 12 15q6 0 6 -15q0 -29 -30 -131q-6 -19 -19 -24.5t-46 -5.5z" />
    <glyph glyph-name="three" unicode="3" horiz-adv-x="571" 
d="M420 203q0 47 -19 84t-50 59t-59 33.5t-57 17.5q-26 5 -26 13t23 12q22 4 46.5 15t51 31t44 53.5t17.5 74.5q0 19 -6.5 39.5t-21 43.5t-45 37.5t-71.5 14.5q-56 0 -91 -31t-35 -87q0 -12 -7 -12q-6 0 -7 11q-7 56 -7 100q0 12 13 21q70 34 162 34q57 0 99 -16t62 -41
t28.5 -48t8.5 -45q0 -35 -16 -67.5t-40 -55t-43.5 -36.5t-34.5 -21v-5q60 -14 112.5 -64t52.5 -128q0 -107 -84 -182t-215 -75q-31 0 -68.5 7.5t-53.5 16.5q-16 10 -16 28q0 74 7 125q2 15 8 15t7 -14q12 -135 150 -135q80 0 130.5 45.5t50.5 131.5z" />
    <glyph glyph-name="four" unicode="4" horiz-adv-x="571" 
d="M416 600v-321h76q12 0 21 2.5t14 5.5t6 3q5 0 5 -12q0 -13 -9 -40q-7 -13 -21 -13h-92q0 -132 2 -154q2 -24 11 -36.5t32 -18.5q19 -4 44 -4q9 0 9 -8q0 -7 -16 -7q-24 0 -54 0.5t-50 1.5t-22 1t-19.5 -1t-45 -1.5t-51.5 -0.5q-16 0 -16 7q0 8 8 8q23 0 47 3
q23 3 31.5 16.5t11.5 39.5q2 22 2 154h-305q-21 0 -21 12q0 10 9 21q4 5 170.5 230l192.5 261q13 18 21 18q10 0 10 -17q0 -2 -0.5 -60t-0.5 -90zM340 279v354h-2q-10 -17 -121.5 -171.5l-132.5 -182.5h256z" />
    <glyph glyph-name="five" unicode="5" horiz-adv-x="571" 
d="M190 687l-14 -154q41 -6 81.5 -18.5t83 -35t74.5 -52t52.5 -73.5t20.5 -95q0 -107 -79.5 -191.5t-220.5 -84.5q-60 0 -92 18q-19 10 -19 28q0 100 4 126q4 18 9 18q8 0 8 -17q0 -74 37 -101.5t100 -27.5q71 0 123.5 49t52.5 145q0 57 -28.5 105t-70 76t-82.5 44t-73 18
q-28 1 -26 18l23 255q1 13 19 13h235q34 0 58 4l13.5 2t7.5 1q7 0 7 -10q0 -31 -13 -126q-2 -11 -8 -11t-6 13q0 33 -17 48.5t-71 15.5h-189z" />
    <glyph glyph-name="six" unicode="6" horiz-adv-x="571" 
d="M446 195q0 96 -49 153t-102 57q-48 0 -75 -13q-12 -4 -13 -4q-4 0 -4 8q0 6 9 12q50 35 116 35q96 0 148.5 -63t52.5 -140q0 -120 -72 -190q-70 -67 -173 -67q-107 0 -171 76.5t-64 211.5q0 145 100 285.5t246 203.5q16 7 21 7q8 0 8 -9q0 -7 -19 -18
q-110 -61 -189.5 -183t-79.5 -286q0 -98 43.5 -174t123.5 -76q62 0 102.5 47t40.5 127z" />
    <glyph glyph-name="seven" unicode="7" horiz-adv-x="571" 
d="M202 750h324q18 0 18 -10q0 -9 -6 -19q-63 -93 -156.5 -320t-104.5 -322q-1 -8 -1 -14t0.5 -11.5t0.5 -9.5q0 -14 -40.5 -37.5t-57.5 -23.5q-9 0 -9 10q0 16 6 34q34 114 114 297t184 363h-246q-63 0 -93 -25q-33 -26 -38 -77q-2 -14 -9 -14q-6 0 -6 16q0 19 7.5 88
t7.5 71q0 14 10 14q1 0 11.5 -2.5t32.5 -5t51 -2.5z" />
    <glyph glyph-name="eight" unicode="8" horiz-adv-x="571" 
d="M53 177q0 78 51 135.5t127 87.5q-67 40 -103.5 83t-36.5 105q0 66 56 122.5t157 56.5q80 0 131.5 -40.5t51.5 -112.5q0 -122 -143 -193q33 -17 56.5 -32.5t54 -42t47 -63.5t16.5 -80q0 -90 -67 -155t-171 -65q-97 0 -162 53t-65 141zM288 21q68 0 110.5 45.5t42.5 113.5
q0 39 -13.5 70t-42.5 56t-53 40.5t-67 37.5q-135 -66 -135 -197q0 -68 45 -117t113 -49zM292 733q-62 0 -96 -39.5t-34 -86.5q0 -57 37 -93.5t111 -76.5q21 13 34 22.5t33 29.5t30 48.5t10 64.5q0 58 -34 94.5t-91 36.5z" />
    <glyph glyph-name="nine" unicode="9" horiz-adv-x="571" 
d="M288 767q103 0 166 -77.5t63 -194.5q0 -80 -24.5 -155t-61.5 -130t-86 -103t-91 -77t-83 -50q-8 -4 -16 -4t-8 10q0 9 10 14q47 26 92.5 68t87 100t67 136t25.5 162q0 125 -47.5 194.5t-117.5 69.5q-64 0 -100.5 -45t-36.5 -108q0 -58 19 -100.5t46.5 -62t49 -28
t35.5 -8.5q51 0 80 18q9 6 13 6q5 0 5 -7q0 -4 -4 -8q-43 -46 -120 -46q-98 0 -150 60t-52 133q0 103 67.5 168t171.5 65z" />
    <glyph glyph-name="colon" unicode=":" horiz-adv-x="250" 
d="M124 30q-26 0 -40 17t-14 38q0 20 14 37.5t41 17.5q24 0 39.5 -14t15.5 -38q0 -25 -15.5 -41.5t-40.5 -16.5zM124 368q-26 0 -40 17t-14 38q0 20 14 37.5t41 17.5q24 0 39.5 -14t15.5 -38q0 -25 -15.5 -41.5t-40.5 -16.5z" />
    <glyph glyph-name="semicolon" unicode=";" horiz-adv-x="250" 
d="M116 -2q0 27 -17 48t-17 23q0 20 20.5 37t41.5 17q6 0 18 -19q17 -26 17 -43q0 -13 -10 -39q-30 -70 -64 -107q-7 -9 -13 -9q-7 0 -7 7l7 14q24 41 24 71zM124 368q-26 0 -40 17t-14 38q0 20 14 37.5t41 17.5q24 0 39.5 -14t15.5 -38q0 -25 -15.5 -41.5t-40.5 -16.5z" />
    <glyph glyph-name="less" unicode="&#x3c;" horiz-adv-x="510" 
d="M25 237v53l426 196v-53l-371 -170l371 -171v-53z" />
    <glyph glyph-name="equal" unicode="=" horiz-adv-x="510" 
d="M468 329h-426v51h426v-51zM468 153h-426v51h426v-51z" />
    <glyph glyph-name="greater" unicode="&#x3e;" horiz-adv-x="510" 
d="M468 237l-426 -198v53l372 171l-372 170v53l426 -196v-53z" />
    <glyph glyph-name="question" unicode="?" horiz-adv-x="488" 
d="M223 733q-67 0 -98 -39q-30 -36 -35 -93q-2 -17 -8 -17q-7 0 -8 10q-4 19 -4 117q0 9 11 16q67 40 166 40q91 0 136 -47t45 -109q0 -34 -7.5 -62t-26 -56.5t-35.5 -48.5l-49.5 -56.5t-53.5 -63.5q-41 -52 -41 -80q0 -25 19 -51q9 -12 9 -17q0 -3 -4 -6t-7 -3
q-14 0 -42 35q-29 36 -29 59q0 22 22 50q12 16 35.5 43t33.5 40q50 64 69 111t19 99q0 47 -28 88t-89 41zM224 -17q-24 0 -37 15.5t-13 35.5q0 19 13 35t38 16q22 0 36.5 -13.5t14.5 -34.5q0 -23 -14.5 -38.5t-37.5 -15.5z" />
    <glyph glyph-name="at" unicode="@" horiz-adv-x="906" 
d="M840 391q0 -77 -35.5 -143.5t-98.5 -108.5t-125 -42q-24 0 -43.5 14t-26.5 37q-10 35 -6 100l-3 1q-47 -70 -97.5 -109t-84.5 -39q-22 0 -37.5 28t-15.5 67q0 148 119 238q75 56 129 56q29 0 56 -12q8 10 26.5 24.5t31.5 18.5q4 1 7 -2.5t1 -8.5q-26 -42 -37 -80
q-19 -65 -26 -153q-2 -37 -1.5 -67.5t16.5 -50.5t48 -20q63 0 110 69.5t47 179.5q0 114 -74.5 187.5t-210.5 73.5q-172 0 -274 -119.5t-102 -302.5q0 -139 79 -218.5t207 -79.5q92 0 148.5 22.5t114.5 68.5q22 18 27 7q4 -7 -16 -27q-44 -43 -123.5 -75.5t-172.5 -32.5
q-143 0 -237 83.5t-94 243.5q0 119 61.5 224t165.5 168t223 63q159 0 241.5 -77t82.5 -206zM545 437q-30 18 -61 18q-74 0 -114 -92q-30 -71 -30 -144q0 -22 6.5 -41.5t17.5 -19.5q25 0 70.5 46.5t74.5 94.5q17 84 36 138z" />
    <glyph glyph-name="A" unicode="A" horiz-adv-x="700" 
d="M95 107l227 621q14 39 22 39t22 -36l233 -603q40 -98 86 -111q18 -6 40 -6q10 0 10 -6q0 -8 -20 -8q-88 0 -157 2q-30 2 -30 7t7 7q14 5 6 27l-93 246q-3 6 -9 6h-215q-7 0 -10 -8l-60 -177q-14 -39 -14 -67q0 -14 11.5 -21.5t26.5 -7.5h10q10 0 10 -6q0 -8 -15 -8
q-14 0 -44 1.5t-34 1.5q-1 0 -43 -1.5t-70 -1.5q-19 0 -19 8q0 6 9 6q13 0 29 2q32 4 50 27.5t34 66.5zM235 328h191q6 0 4 7l-95 270q-7 23 -15 0l-88 -270q-3 -7 3 -7z" />
    <glyph glyph-name="B" unicode="B" horiz-adv-x="687" 
d="M178 287v176q0 184 -2 216q-2 27 -10.5 39.5t-32.5 17.5q-12 3 -34 3q-8 0 -8 6q0 8 16 8q20 0 47 -0.5t46 -1.5t20 -1q9 0 46 1.5t63 1.5q58 0 100 -16t62 -41t29 -48t9 -45q0 -38 -15.5 -73.5t-31.5 -54.5t-47 -52q66 -21 119.5 -76t53.5 -135q0 -88 -67 -153t-188 -65
q-5 0 -16.5 0.5t-27.5 1.5t-28 1q-43 3 -61 3q-19 0 -40 -1q-11 0 -31 -1t-27 -1q-16 0 -16 8q0 6 8 6q12 0 30 4q22 4 29 55q5 42 5 217zM258 709v-268q0 -8 7 -11q24 -4 61 -4q44 0 60 4.5t31 21.5q36 41 36 101q0 70 -33.5 121t-101.5 51q-28 0 -48 -5q-12 -3 -12 -11z
M258 392v-57q0 -201 1 -216q2 -30 3.5 -40.5t8.5 -20.5t22 -17q31 -15 88 -15q23 0 45.5 6.5t45 21.5t36.5 44.5t14 69.5q0 54 -22.5 109t-74.5 91q-34 23 -83 29q-13 2 -78 2q-6 0 -6 -7z" />
    <glyph glyph-name="C" unicode="C" horiz-adv-x="805" 
d="M515 -17q-210 0 -330 108q-121 109 -121 296q0 63 26 138t86 135q107 107 305 107q80 0 145 -12q71 -13 102 -15q13 -1 13 -11q0 -3 -1 -9.5t-2 -19t-2 -27.5q-1 -18 -2 -57.5t-1 -45.5q-1 -21 -9 -21t-8 21q0 66 -42 102q-28 24 -82.5 40.5t-117.5 16.5q-155 0 -230 -73
q-51 -49 -70.5 -112.5t-19.5 -148.5q0 -148 102.5 -257t258.5 -109q125 0 174 50q28 29 37 84q3 15 10 15t7 -15q0 -8 -7.5 -57t-14.5 -71q-4 -14 -8 -18.5t-18 -10.5q-57 -23 -180 -23z" />
    <glyph glyph-name="D" unicode="D" horiz-adv-x="917" 
d="M178 287v176q0 184 -2 216q-2 27 -10.5 39.5t-32.5 17.5q-12 3 -34 3q-8 0 -8 6q0 8 16 8q20 0 47 -0.5t46 -1.5t20 -1l50 2q49 1 85 1h19q44 0 70 -0.5t75 -6.5t85 -17t78 -34t74 -56q97 -101 97 -254q0 -168 -108 -282q-110 -115 -303 -115q-53 0 -139 6
q-18 1 -38.5 2.5t-31.5 2.5t-13 1q-19 0 -40 -1q-11 0 -31 -1t-27 -1q-16 0 -16 8q0 6 8 6q12 0 30 4q22 4 29 55q5 42 5 217zM262 479v-124q0 -179 2 -217q3 -64 11 -76q27 -40 170 -40q145 0 238 93q38 37 59 102.5t21 136.5q0 151 -96 252q-64 68 -142.5 90.5
t-184.5 22.5q-51 0 -65 -7q-12 -5 -12 -20q-1 -34 -1 -213z" />
    <glyph glyph-name="E" unicode="E" horiz-adv-x="610" 
d="M178 287v176q0 184 -2 216q-2 27 -10.5 39.5t-32.5 17.5q-12 3 -34 3q-8 0 -8 6q0 8 16 8q50 0 72 -1l41 -2q206 0 229 1q29 2 43 5q2 0 6.5 2.5t7.5 2.5q4 0 4 -9q0 -3 -1.5 -8.5t-3.5 -16t-3 -22.5q0 -2 -2 -30.5t-3 -35.5q-2 -11 -7 -11q-8 0 -8 13q0 22 -6 36t-20 22
t-51 12q-26 3 -137 3q-6 0 -6 -10v-276q0 -10 6 -10q136 0 159 2q37 3 47 14q11 13 15 13q5 0 5 -8q0 -2 -1.5 -9t-3.5 -20t-3 -27q-4 -40 -4 -64q0 -19 -7 -19t-7 9q0 20 -4 33q-9 31 -52 35q-45 5 -143 5q-7 0 -7 -7v-88v-51.5v-76.5v-43q2 -52 22.5 -67t93.5 -15
q70 0 96 11q35 15 45 72q3 15 9 15t6 -15q0 -7 -5 -45t-8 -52q-5 -19 -14 -22.5t-40 -3.5q-52 0 -169 3q-58 3 -78 3q-19 0 -40 -1q-11 0 -31 -1t-27 -1q-16 0 -16 8q0 6 8 6q12 0 30 4q22 4 29 55q5 42 5 217z" />
    <glyph glyph-name="F" unicode="F" horiz-adv-x="592" 
d="M178 287v176q0 184 -2 216q-2 27 -10.5 39.5t-32.5 17.5q-12 3 -34 3q-8 0 -8 6q0 8 16 8q50 0 72 -1l41 -2q16 -1 122 -0.5t124 1.5q38 2 44 4q3 1 7.5 3.5t6.5 2.5q6 0 6 -9q0 -3 -1.5 -8.5t-3.5 -16t-3 -22.5q0 -2 -2 -30.5t-3 -35.5q-2 -11 -8 -11q-7 0 -7 12
q0 18 -9 38q-5 12 -23 21.5t-45 10.5l-154 3q-9 0 -9 -11v-276q0 -9 7 -9l128 1q31 0 45 1q36 3 46 18q8 10 11 10q5 0 5 -8q0 -2 -1.5 -9t-3.5 -20t-3 -27q-4 -40 -4 -67q0 -19 -7 -19t-7 9q-3 26 -6 36q-11 31 -52 36q-25 3 -151 3q-7 0 -7 -9v-85q0 -175 5 -217
q3 -25 10.5 -38.5t28.5 -16.5q28 -4 45 -4q8 0 8 -6q0 -8 -16 -8q-24 0 -53.5 0.5t-49 1.5t-20.5 1t-19.5 -1t-42 -1.5t-36.5 -0.5q-16 0 -16 8q0 6 8 6q12 0 30 4q22 4 29 55q5 42 5 217z" />
    <glyph glyph-name="G" unicode="G" horiz-adv-x="862" 
d="M653 82v170q0 61 -7.5 78t-37.5 25q-12 3 -34 3q-8 0 -8 6q0 8 16 8q20 0 47 -1t46 -1.5t20 -0.5t19.5 0.5t42 1.5t36.5 1q16 0 16 -8q0 -6 -8 -6q-7 0 -25 -3q-20 -4 -27.5 -17t-9.5 -40q-2 -32 -2 -104v-112q0 -33 -2 -41t-11 -13q-85 -45 -212 -45q-207 0 -329 107
q-50 43 -84.5 120t-34.5 165q0 113 47 198t120 131q101 63 266 63q72 0 153 -17q34 -8 81 -10q12 -1 12 -9q0 -3 -1.5 -18.5t-3.5 -47.5t-2 -76q0 -21 -9 -21q-5 0 -7 15q-3 37 -21 66q-21 32 -83 56.5t-152 24.5q-130 0 -214 -66q-45 -36 -72 -102.5t-27 -151.5
q0 -93 34.5 -167t71.5 -110q110 -107 262 -107q78 0 114 21q20 11 20 35z" />
    <glyph glyph-name="H" unicode="H" horiz-adv-x="960" 
d="M782 463v-176q0 -175 5 -217q3 -25 10.5 -38.5t28.5 -16.5q28 -4 45 -4q8 0 8 -6q0 -8 -16 -8q-24 0 -53.5 0.5t-49 1.5t-20.5 1t-19.5 -1t-42 -1.5t-36.5 -0.5q-16 0 -16 8q0 6 8 6q12 0 30 4q22 4 29 55q5 42 5 217v105q0 6 -6 6h-424q-6 0 -6 -6v-105q0 -175 5 -217
q3 -25 10.5 -38.5t28.5 -16.5q28 -4 45 -4q8 0 8 -6q0 -8 -16 -8q-24 0 -53.5 0.5t-49 1.5t-20.5 1t-19.5 -1t-42 -1.5t-36.5 -0.5q-16 0 -16 8q0 6 8 6q12 0 30 4q22 4 29 55q5 42 5 217v176q0 184 -2 216q-2 27 -10.5 39.5t-32.5 17.5q-12 3 -34 3q-8 0 -8 6q0 8 16 8
q20 0 47 -0.5t46 -1.5t20 -1t19.5 1t42 1.5t36.5 0.5q16 0 16 -8q0 -6 -8 -6q-7 0 -25 -3q-20 -4 -27.5 -17t-9.5 -40q-2 -32 -2 -216v-21q0 -6 6 -6h424q6 0 6 6v21q0 184 -2 216q-2 27 -10.5 39.5t-32.5 17.5q-12 3 -34 3q-8 0 -8 6q0 8 16 8q20 0 47 -0.5t46 -1.5t20 -1
t19.5 1t42 1.5t36.5 0.5q16 0 16 -8q0 -6 -8 -6q-7 0 -25 -3q-20 -4 -27.5 -17t-9.5 -40q-2 -32 -2 -216z" />
    <glyph glyph-name="I" unicode="I" horiz-adv-x="440" 
d="M262 463v-176q0 -175 5 -217q3 -25 10.5 -38.5t28.5 -16.5q28 -4 45 -4q8 0 8 -6q0 -8 -16 -8q-24 0 -53.5 0.5t-49 1.5t-20.5 1t-19.5 -1t-42 -1.5t-36.5 -0.5q-16 0 -16 8q0 6 8 6q12 0 30 4q22 4 29 55q5 42 5 217v176q0 184 -2 216q-3 49 -34 56q-15 4 -31 4
q-8 0 -8 6q0 8 16 8q15 0 39 -0.5t42.5 -1.5t19.5 -1t19.5 1t42 1.5t36.5 0.5q16 0 16 -8q0 -6 -8 -6q-7 0 -25 -3q-20 -4 -27.5 -17t-9.5 -40q-2 -32 -2 -216z" />
    <glyph glyph-name="J" unicode="J" horiz-adv-x="414" 
d="M262 463v-240q0 -137 -4.5 -191.5t-25.5 -103.5q-31 -73 -146 -153q-29 -20 -39 -25q-4 -2 -7 -2q-7 0 -7 6t14 15q17 10 35 28q37 37 55 70.5t29.5 107.5t11.5 199v289q0 184 -2 216q-2 27 -10.5 39.5t-32.5 17.5q-12 3 -34 3q-8 0 -8 6q0 8 16 8q20 0 47 -0.5t46 -1.5
t20 -1t19.5 1t42 1.5t36.5 0.5q16 0 16 -8q0 -6 -8 -6q-7 0 -25 -3q-20 -4 -27.5 -17t-9.5 -40q-2 -32 -2 -216z" />
    <glyph glyph-name="K" unicode="K" horiz-adv-x="752" 
d="M178 287v176q0 184 -2 216q-2 27 -10.5 39.5t-32.5 17.5q-12 3 -34 3q-8 0 -8 6q0 8 16 8q20 0 46 -0.5t44.5 -1.5t19.5 -1q2 0 40.5 1.5t56.5 1.5q16 0 16 -8q0 -6 -8 -6q-7 0 -25 -3q-20 -4 -27.5 -17t-9.5 -40q-2 -32 -2 -216v-60h4q8 9 111.5 115t122.5 127
q54 56 54 72t-13 21q-9 4 -9 8q0 7 12 7q10 0 36 -1.5t39 -1.5l41 2q40 1 55 1t15 -7t-10 -7q-25 0 -56 -14q-10 -4 -19.5 -10t-16 -10.5t-17.5 -14l-16 -14t-19 -18l-20 -19.5q-186 -179 -220 -219q22 -25 134.5 -140.5t140.5 -141.5q68 -63 91.5 -81.5t57.5 -32.5
q31 -13 62 -13q13 0 13 -6q0 -8 -22 -8h-51q-47 0 -69 2q-25 2 -47 12t-33 18l-41 31q-32 26 -149 151.5t-156 173.5h-5v-98q0 -175 5 -217q3 -25 10.5 -38.5t28.5 -16.5q28 -4 39 -4q8 0 8 -6q0 -8 -16 -8q-22 0 -48.5 0.5t-45.5 1.5t-21 1q-1 0 -39.5 -1.5t-56.5 -1.5
q-16 0 -16 8q0 6 8 6q12 0 30 4q22 4 29 55q5 42 5 217z" />
    <glyph glyph-name="L" unicode="L" horiz-adv-x="592" 
d="M262 463v-178q0 -115 4.5 -165.5t17.5 -63.5q23 -23 120 -23q49 0 77 5t44 25q21 25 26 60q2 13 9 13q6 0 6 -15q0 -46 -15 -100q-5 -18 -15 -22.5t-48 -4.5q-40 0 -166 3q-63 3 -102 3h-14q-15 -1 -27 -1q-40 -2 -57 -2q-16 0 -16 8q0 6 8 6q12 0 30 4q22 4 29 55
q5 42 5 217v176q0 184 -2 216q-2 27 -10.5 39.5t-32.5 17.5q-12 3 -34 3q-8 0 -8 6q0 8 16 8q20 0 47 -0.5t46 -1.5t20 -1t22 1t47 1.5t39 0.5q16 0 16 -8q0 -6 -8 -6q-15 0 -33 -3q-21 -4 -29 -17t-10 -40q-2 -32 -2 -216z" />
    <glyph glyph-name="M" unicode="M" horiz-adv-x="1050" 
d="M855 740l67 -614q10 -92 54 -106q29 -9 65 -9q8 0 8 -5q0 -9 -21 -9q-93 0 -167 6q-28 2 -28 10q0 6 7 7q8 2 4 36l-48 516h-3l-245 -520q-23 -49 -28 -52q-2 -1 -5 -1q-7 0 -31 46l-117 232l-66.5 142t-65.5 143h-4l-40 -464q-1 -16 -1 -51q0 -11 7.5 -20t18.5 -11
q21 -5 38 -5q8 0 8 -5q0 -9 -18 -9q-22 0 -58 1l-35 2q-2 0 -35 -1.5t-49 -1.5q-17 0 -17 9q0 5 10 5q15 0 30 3q12 2 19.5 9t11.5 21.5t5.5 23t3.5 29.5l72 652q2 18 11 18q8 0 15 -15l306 -629l294 628q7 16 15 16q9 0 12 -27z" />
    <glyph glyph-name="N" unicode="N" horiz-adv-x="947" 
d="M192 612l13 -479q1 -61 9.5 -85.5t29.5 -30.5q23 -6 50 -6q8 0 8 -6q0 -8 -18 -8q-25 0 -49.5 0.5t-39.5 1.5t-17 1l-34 -2q-35 -1 -62 -1q-16 0 -16 8q0 6 8 6q23 0 41 6q18 5 24 31t6 96l1 573q0 50 11 50q4 0 9.5 -5t14.5 -15t11 -12q37 -42 318 -343l138.5 -151
t101.5 -110l-11 508q-1 50 -8.5 69.5t-30.5 25.5q-23 5 -49 5q-8 0 -8 7t20 7q27 0 65 -1.5t39 -1.5q2 0 31.5 1.5t53.5 1.5q18 0 18 -7t-11 -7q-12 0 -24 -3q-24 -5 -30.5 -23t-6.5 -66l-2 -586q0 -25 -0.5 -39t-1.5 -21t-2.5 -9t-4.5 -2q-9 0 -73 64l-47 47.5
l-103.5 106.5l-110.5 117z" />
    <glyph glyph-name="O" unicode="O" horiz-adv-x="915" 
d="M64 376q0 64 23.5 130t69 125.5t124.5 97.5t177 38q172 0 282.5 -101.5t110.5 -273.5t-111 -290.5t-288 -118.5q-79 0 -145 23.5t-110 62.5t-75 91t-44.5 106t-13.5 110zM159 404q0 -172 91 -277.5t229 -105.5q31 0 63.5 7.5t72 30t69.5 58.5t50.5 100t20.5 147
q0 172 -89 270.5t-215 98.5q-130 0 -211 -85t-81 -244z" />
    <glyph glyph-name="P" unicode="P" horiz-adv-x="642" 
d="M178 287v176q0 184 -2 216q-2 27 -10.5 39.5t-32.5 17.5q-12 3 -34 3q-8 0 -8 6q0 8 16 8q20 0 46 -0.5t45.5 -1.5t21.5 -1q8 0 54 1.5t72 1.5q125 0 186 -57q50 -48 50 -119q0 -106 -69.5 -172t-176.5 -66q-16 0 -21 1q-11 0 -11 7q0 9 27 9q73 0 123 47t50 116
q0 97 -56 154q-49 50 -137 50q-29 0 -43 -6q-8 -3 -8 -19v-411q0 -175 5 -217q3 -25 10.5 -38.5t28.5 -16.5q28 -4 45 -4q8 0 8 -6q0 -8 -16 -8q-24 0 -53.5 0.5t-49 1.5t-20.5 1l-18 -1q-18 -1 -41.5 -1.5t-36.5 -0.5q-16 0 -16 8q0 6 8 6q12 0 30 4q22 4 29 55q5 42 5 217
z" />
    <glyph glyph-name="Q" unicode="Q" horiz-adv-x="920" 
d="M780 -76l-168 93q-27 -14 -72 -24t-85 -10q-99 0 -177 35.5t-123 94t-68 125.5t-23 138q0 64 23.5 130t69 125.5t124.5 97.5t177 38q172 0 282.5 -102t110.5 -273q0 -62 -18 -119.5t-46.5 -99t-56.5 -70.5t-56 -47l205 -106q229 -118 421 -118q101 0 197 39q12 4 14 4
q6 0 6 -6t-8 -10q-151 -69 -317 -69q-171 0 -412 134zM159 404q0 -172 91 -277.5t229 -105.5q31 0 63.5 7.5t72 30t69.5 58.5t50.5 100t20.5 147q0 172 -89 270.5t-215 98.5q-130 0 -211 -85t-81 -244z" />
    <glyph glyph-name="R" unicode="R" horiz-adv-x="754" 
d="M178 287v176q0 184 -2 216q-2 27 -10.5 39.5t-32.5 17.5q-12 3 -34 3q-8 0 -8 6q0 8 16 8q20 0 47 -0.5t46 -1.5t20 -1q3 0 51.5 1.5t66.5 1.5q122 0 183 -44q25 -18 47 -54t22 -82q0 -119 -121 -231q159 -204 208 -256q59 -62 122 -72q19 -3 39 -3q9 0 9 -6q0 -8 -24 -8
h-71q-72 0 -107 19q-20 11 -44.5 36t-36.5 40.5l-54 70.5l-109 148q-6 6 -13 6l-123 2q-7 0 -7 -8v-24q0 -175 5 -217q3 -25 10.5 -38.5t28.5 -16.5q28 -4 45 -4q8 0 8 -6q0 -8 -16 -8q-24 0 -53.5 0.5t-49 1.5t-20.5 1h-7q-7 -1 -18 -1.5t-23 -0.5t-25 -0.5t-21 -0.5
q-16 0 -16 8q0 6 8 6q12 0 30 4q22 4 29 55q5 42 5 217zM258 703v-327q0 -8 7 -12q27 -16 105 -16q48 0 75 19q61 42 61 154q0 94 -46.5 147t-126.5 53q-47 0 -67 -6q-8 -3 -8 -12z" />
    <glyph glyph-name="S" unicode="S" horiz-adv-x="570" 
d="M248 -17q-79 0 -134 27q-10 5 -12.5 11t-2.5 27q0 26 5 106q1 16 8 16t7 -11q0 -23 3 -37q11 -52 52 -77t96 -25q68 0 105.5 40t37.5 93q0 51 -24.5 88t-90.5 92l-45 37q-75 61 -102.5 111t-27.5 106q0 81 56 130.5t151 49.5q51 0 93 -10q24 -5 35 -5q10 0 10 -7l-1 -13
q-1 -13 -2 -38t-1 -55q0 -23 -7 -23q-6 0 -8 13q-3 31 -13 50q-29 53 -125 53q-53 0 -88 -31.5t-35 -84.5q0 -43 25 -77.5t97 -90.5l28 -22q85 -67 115.5 -119t30.5 -116q0 -40 -19.5 -86.5t-65.5 -79.5q-60 -42 -151 -42z" />
    <glyph glyph-name="T" unicode="T" horiz-adv-x="691" 
d="M391 710v-423q0 -175 5 -217q3 -25 10.5 -38.5t28.5 -16.5q28 -4 45 -4q8 0 8 -6q0 -8 -16 -8q-24 0 -53.5 0.5t-49 1.5t-20.5 1t-19.5 -1t-42 -1.5t-36.5 -0.5q-16 0 -16 8q0 6 8 6q12 0 30 4q22 4 29 55q5 42 5 217v423l-148 -2q-47 -1 -68.5 -7.5t-33.5 -24.5
q-11 -17 -17 -31q-4 -10 -10 -10q-5 0 -5 9q0 16 22 104q6 19 10 19q2 0 15 -5.5t29 -6.5q48 -5 79 -5h375q44 0 71 5l12.5 2t10 2t5.5 1q5 0 5 -12q0 -17 -1.5 -62t-1.5 -48q0 -13 -7 -13t-8 17l-1 11q-5 53 -123 55z" />
    <glyph glyph-name="U" unicode="U" horiz-adv-x="830" 
d="M120 317v146q0 184 -2 216q-2 27 -10.5 39.5t-32.5 17.5q-12 3 -34 3q-8 0 -8 6q0 8 16 8q27 0 71 -1l44 -2q2 0 41.5 1.5t57.5 1.5q16 0 16 -8q0 -6 -8 -6q-7 0 -25 -3q-19 -3 -27 -16t-10 -41q-2 -32 -2 -216v-140q0 -100 19.5 -156.5t55.5 -90.5q34 -32 69 -43.5
t82 -11.5q45 0 87.5 19.5t69.5 52.5q58 72 58 245v125q0 184 -2 216q-2 27 -10.5 39.5t-32.5 17.5q-12 3 -34 3q-8 0 -8 6q0 8 16 8q20 0 45 -0.5t42.5 -1.5t18.5 -1t33.5 1.5t50.5 1.5q16 0 16 -8q0 -6 -8 -6q-7 0 -25 -3q-20 -4 -27.5 -17t-9.5 -40q-2 -32 -2 -216v-107
q0 -99 -19 -175t-73 -124q-83 -74 -206 -74q-131 0 -206 71q-87 83 -87 263z" />
    <glyph glyph-name="V" unicode="V" horiz-adv-x="742" 
d="M203 631l192 -512q43 99 120 299.5t94 255.5q9 27 9 38q0 16 -13 23q-12 4 -38 4q-11 0 -11 6q0 8 22 8q24 0 60 -1.5t38 -1.5l30 2q31 1 48 1t17 -7t-12 -7q-29 0 -48 -12q-24 -17 -55 -94l-112 -271q-107 -256 -129 -303l-8.5 -18.5t-7 -15.5t-5.5 -12.5t-5 -10
t-4 -7.5l-3 -6t-2.5 -3.5t-3 -2t-3.5 -0.5q-8 0 -14 11t-22 51l-245 613q-16 40 -30 54.5t-42 22.5q-15 4 -38 4q-8 0 -8 7t26 7q28 0 72 -1.5t45 -1.5t36 1.5t57 1.5q27 0 27 -7t-10 -7q-27 0 -38 -5q-13 -6 -13 -20q0 -13 27 -83z" />
    <glyph glyph-name="W" unicode="W" horiz-adv-x="1100" 
d="M599 702l199 -567h4q5 19 69 227t85 283q11 41 11 64q0 30 -57 30q-9 0 -9 7t17 7q22 0 45.5 -0.5t38.5 -1.5t18 -1l31 2q31 1 50 1q14 0 14 -6q0 -8 -9 -8q-20 0 -34 -5q-20 -7 -34 -32.5t-31 -75.5l-93.5 -283l-90.5 -274q-20 -57 -27 -71.5t-15 -14.5q-7 0 -13 10.5
t-17 41.5l-196 556h-2l-209 -555q-13 -33 -18.5 -43t-14.5 -10q-8 0 -14 14t-21 65l-178 593q-12 39 -23.5 54.5t-31.5 23.5q-16 6 -45 6q-9 0 -9 7t16 7q31 0 75 -1l43 -2q3 0 18.5 1t39 1.5t45.5 0.5q18 0 18 -7t-10 -7q-27 0 -39 -6q-13 -7 -13 -24q0 -8 19 -92
q14 -61 134 -484h2l212 570q17 46 25 46t25 -47z" />
    <glyph glyph-name="X" unicode="X" horiz-adv-x="694" 
d="M124 97l181 286l-160 269q-39 66 -78 80q-22 7 -42 7q-9 0 -9 7t17 7t66 -1.5t51 -1.5q1 0 37.5 1.5t56.5 1.5q17 0 17 -7t-9 -7q-19 0 -27 -3q-12 -4 -12 -17q0 -15 10 -33q69 -130 135 -239q23 32 81.5 125.5t65.5 109.5q10 21 10 36q0 13 -17 18q-10 3 -30 3
q-9 0 -9 7t17 7q23 0 55.5 -1.5t33.5 -1.5t32.5 1.5t51.5 1.5q16 0 16 -7t-11 -7q-19 0 -33 -5q-14 -4 -27.5 -17t-22 -24.5t-27.5 -39.5l-161 -242l55.5 -93.5l99 -165t56.5 -90.5q27 -35 59 -45q21 -6 35 -6q8 0 8 -6q0 -8 -14 -8q-109 0 -160 2q-31 1 -31 8t6 8
q5 2 7.5 8.5t-2.5 19.5l-172 298l-156 -265q-13 -23 -13 -44q0 -15 16 -19q12 -2 19 -2q8 0 8 -7t-12 -7q-14 0 -53.5 1.5t-42.5 1.5q-2 0 -37 -1.5t-54 -1.5q-10 0 -10 7t8 7q19 0 38 5q39 10 83 81z" />
    <glyph glyph-name="Y" unicode="Y" horiz-adv-x="654" 
d="M289 170v86q0 54 -23 105q-5 12 -77.5 131t-98.5 157q-35 52 -68 74q-24 16 -43 16q-10 0 -10 7t13 7q11 0 54.5 -1.5t44.5 -1.5q2 0 15 1t32.5 1.5t36.5 0.5q13 0 13 -7q0 -2 -15 -9q-13 -7 -13 -18q0 -15 13 -39l92 -159t92 -157q12 27 77.5 141.5l88.5 152.5
q17 27 17 51t-16 28q-15 5 -15 10q0 6 16 6q15 0 39.5 -1.5t26.5 -1.5q1 0 43.5 1.5t53.5 1.5q13 0 13 -6q0 -8 -13 -8q-24 0 -46 -14q-22 -13 -53 -51q-24 -29 -100.5 -157t-90.5 -161q-15 -36 -15 -100v-86q0 -58 3 -100q3 -50 41 -55q28 -4 45 -4q8 0 8 -6q0 -8 -16 -8
q-24 0 -53.5 0.5t-49 1.5t-20.5 1t-19.5 -1t-42 -1.5t-36.5 -0.5q-16 0 -16 8q0 6 8 6q12 0 30 4q28 6 31 55q3 42 3 100z" />
    <glyph glyph-name="Z" unicode="Z" horiz-adv-x="692" 
d="M184 40h272q73 0 106.5 12t51.5 37q15 22 20 54q3 16 9 16q8 0 8 -23q0 -32 -20 -115q-5 -18 -9 -22t-21 -4q-83 0 -252.5 2.5t-257.5 2.5q-18 0 -18 8q0 7 14 28q326 492 439 676h-217q-106 0 -144 -20q-25 -13 -39.5 -36t-17.5 -43q-2 -18 -11 -18q-6 0 -6 13t20 133
q3 19 10 19q3 0 14.5 -3t27.5 -4q71 -3 174 -3h279q20 0 20 -8q0 -6 -4 -12z" />
    <glyph glyph-name="bracketleft" unicode="[" horiz-adv-x="360" 
d="M97 -108v839q0 8 3 10.5t14 2.5h170q12 0 12 -7t-17 -8q-80 -8 -109 -21q-7 -29 -7 -93v-610q0 -64 7 -93q28 -13 108 -21q17 -1 17 -8t-12 -7h-170q-11 0 -13.5 2.5t-2.5 13.5z" />
    <glyph glyph-name="backslash" unicode="\" horiz-adv-x="524" 
d="M503 6l-30 -20q-7 -3 -11 4l-441 709q-4 6 2 10l28 17q8 5 14 -4l438 -702q7 -11 0 -14z" />
    <glyph glyph-name="bracketright" unicode="]" horiz-adv-x="360" 
d="M263 728v-839q0 -8 -3 -10.5t-14 -2.5h-170q-12 0 -12 7t17 8q80 8 109 21q7 29 7 93v610q0 64 -7 93q-28 13 -108 21q-17 1 -17 8t12 7h170q11 0 13.5 -2.5t2.5 -13.5z" />
    <glyph glyph-name="asciicircum" unicode="^" horiz-adv-x="510" 
d="M229 751h52l199 -426h-54l-171 371l-171 -371h-54z" />
    <glyph glyph-name="underscore" unicode="_" horiz-adv-x="500" 
d="M0 -75h500v-50h-500v50z" />
    <glyph glyph-name="grave" unicode="`" horiz-adv-x="911" 
d="M506 830q-24 0 -181 59q-29 11 -29 17q0 5 11 8q46 13 60 19q13 5 16 5q2 0 4 -2t4.5 -6t6.5 -8q30 -30 98 -73q19 -13 19 -14q0 -5 -9 -5z" />
    <glyph glyph-name="a" unicode="a" horiz-adv-x="624" 
d="M82 91l207 532q13 33 21 33q3 0 5 -1t4 -4.5l3.5 -6t4 -9t4.5 -10.5q7 -15 47.5 -115.5l90.5 -223.5l73 -177q15 -35 30 -56t24 -27t21 -10q16 -5 35 -5q11 0 11 -7t-20 -7q-78 0 -139 2q-31 2 -31 6q0 3 6 6q15 6 8 23l-79 195q-2 5 -8 5h-203q-6 0 -9 -7l-50 -136
q-13 -34 -13 -57t30 -23h8q9 0 9 -7t-13 -7q-12 0 -43.5 1.5t-35.5 1.5q-1 0 -34.5 -1.5t-54.5 -1.5q-17 0 -17 7t8 7q12 0 26 2q28 3 43.5 22t30.5 56zM209 269h178q5 0 3 6l-87 233q-7 20 -15 0l-82 -233q-2 -6 3 -6z" />
    <glyph glyph-name="b" unicode="b" horiz-adv-x="614" 
d="M155 244v150q0 156 -2 183q-2 24 -9 35t-27 14q-14 2 -30 2q-7 0 -7 5q0 7 14 7q18 0 42 -0.5t41.5 -1t18.5 -0.5q8 0 44 1t59 1q52 0 90.5 -13.5t57.5 -35t28 -42t9 -39.5q0 -31 -14.5 -60t-30.5 -46.5t-44 -42.5q59 -18 107 -64.5t48 -112.5q0 -78 -57.5 -133.5
t-163.5 -55.5q-34 0 -76 3q-56 2 -57 2h-6q-5 0 -13.5 -0.5t-16.5 -0.5q-36 -2 -53 -2q-14 0 -14 7q0 5 7 5q5 0 15 2t12 2q8 1 13 9t6 14l4 24q5 35 5 184zM231 600v-224q0 -8 6 -9q20 -4 54 -4q39 0 56 4t30 18q34 38 34 91q0 55 -31.5 96t-92.5 41q-26 0 -45 -4
q-11 -3 -11 -9zM231 329v-47q0 -168 1 -181q2 -34 6.5 -44.5t23.5 -19.5q26 -12 77 -12q54 0 91.5 28.5t37.5 102.5q0 38 -19 82t-65 73q-14 9 -27 13t-31.5 6.5t-20.5 2.5q-11 2 -69 2q-5 0 -5 -6z" />
    <glyph glyph-name="c" unicode="c" horiz-adv-x="708" 
d="M452 -14q-185 0 -290 91q-107 92 -107 252q0 53 23 117t76 115q95 91 268 91q67 0 128 -10q67 -12 90 -13q11 0 11 -9q0 -3 -0.5 -8t-1.5 -16t-2 -24q0 -13 -0.5 -47t-1.5 -40q-1 -18 -10 -18q-7 0 -7 18q0 56 -37 85q-56 47 -173 47q-135 0 -198 -59q-45 -42 -62 -96
t-17 -126q0 -126 89.5 -217t227.5 -91q55 0 88 8t57 32q25 25 34 71q3 12 9 12q8 0 8 -12q0 -6 -7.5 -48t-13.5 -61q-4 -12 -7.5 -16.5t-14.5 -8.5q-49 -19 -159 -19z" />
    <glyph glyph-name="d" unicode="d" horiz-adv-x="809" 
d="M155 244v150q0 156 -2 183q-2 24 -8.5 34t-27.5 13q-14 2 -30 2q-7 0 -7 7t14 7q18 0 42 -0.5t41.5 -1t18.5 -0.5q3 0 22 0.5t46 1t50 0.5q125 0 182 -11q107 -21 171 -86q86 -86 86 -216q0 -142 -95 -239q-95 -98 -267 -98q-28 0 -123 5q-63 5 -72 5h-6q-5 0 -13.5 -0.5
t-16.5 -0.5q-36 -2 -53 -2q-14 0 -14 7t7 7q11 0 27 4q8 2 12.5 9t6 13.5t4.5 22.5q5 35 5 184zM235 586v-284q0 -169 1 -185q2 -51 10 -61q23 -34 146 -34q124 0 206 77q33 31 51 86t18 116q0 130 -83 213q-57 58 -124.5 76.5t-160.5 18.5q-37 0 -53 -6q-11 -4 -11 -17z
" />
    <glyph glyph-name="e" unicode="e" horiz-adv-x="551" 
d="M155 244v150q0 156 -2 183q-2 24 -8.5 34t-27.5 13q-14 2 -30 2q-7 0 -7 7t14 7q18 0 42 -0.5t41.5 -1t18.5 -0.5h22h49h57.5h52.5h29q9 0 40 5q1 0 5.5 2t6.5 2q4 0 4 -8q0 -2 -3 -14t-4 -26q0 -2 -2 -26t-3 -30q-2 -9 -8 -9q-7 0 -7 11q0 17 -5 30q-5 11 -17 16.5
t-46 9.5q-22 3 -127 3q-5 0 -5 -9v-231q0 -9 5 -9q127 0 147 2q34 3 43 12q11 11 13 11q5 0 5 -7q0 -2 -1.5 -7.5t-3 -16.5t-2.5 -23q-4 -34 -4 -55q0 -16 -8 -16q-6 0 -6 8q0 17 -4 28q-5 21 -45 26q-32 4 -133 4q-6 0 -6 -6v-71v-145q2 -43 21 -55.5t84 -12.5t88 9
q18 8 27 21t13 38q3 13 9 13t6 -13q0 -6 -4.5 -38t-7.5 -44q-4 -16 -12.5 -19t-36.5 -3q-45 0 -153 3q-37 2 -73 2q-19 0 -38 -1q-34 -2 -51 -2q-14 0 -14 7t7 7q5 0 15 2t12 2q8 1 12.5 8.5t6 13.5t4.5 23q5 35 5 184z" />
    <glyph glyph-name="f" unicode="f" 
d="M155 244v150q0 156 -2 183q-2 24 -8.5 34t-27.5 13q-14 2 -30 2q-7 0 -7 7t14 7q18 0 41.5 -0.5t40.5 -1t18 -0.5h228q35 2 40 4q3 1 7 3t5 2q6 0 6 -8q0 -2 -1 -7t-3 -14t-3 -19q0 -2 -1.5 -26t-2.5 -30q-2 -9 -8 -9q-7 0 -7 10q0 14 -8 32q-4 9 -20.5 17t-39.5 8
l-144 2q-7 0 -7 -9v-232q0 -8 6 -8l120 1q28 0 40 1q31 3 41 15q7 9 11 9q5 0 5 -7q0 -2 -1.5 -7.5t-3.5 -16.5t-3 -23q-3 -26 -3 -57q0 -17 -8 -17q-6 0 -6 8q-2 22 -6 31q-7 21 -45 27q-15 2 -141 2q-6 0 -6 -8v-68q0 -151 4 -184q3 -21 9 -31.5t23 -13.5q26 -4 40 -4
q7 0 7 -7t-14 -7q-22 0 -48 0.5t-44 1.5l-18 1q-1 0 -17.5 -1t-37 -1.5t-32.5 -0.5q-14 0 -14 7t7 7q5 0 15 2t12 2q8 1 12.5 8.5t6 13.5t4.5 23q5 35 5 184z" />
    <glyph glyph-name="g" unicode="g" horiz-adv-x="759" 
d="M569 67v147q0 53 -6 67t-32 19q-14 2 -30 2q-7 0 -7 7t14 7q18 0 42.5 -0.5t42.5 -1t19 -0.5t17 0.5t36.5 1t32.5 0.5q14 0 14 -7t-7 -7q-12 0 -22 -2q-18 -3 -24.5 -13.5t-8.5 -33.5q-1 -27 -1 -88v-95q0 -29 -2 -35t-10 -11q-73 -38 -187 -38q-183 0 -290 91
q-44 37 -74.5 102t-30.5 140q0 96 41.5 168.5t105.5 110.5q89 54 234 54q75 0 135 -14q41 -9 71 -9q11 0 11 -8q0 -3 -1.5 -16t-2.5 -40t-1 -64q0 -18 -10 -18q-6 0 -6 13q-3 32 -20 56q-19 27 -71.5 46.5t-131.5 19.5q-112 0 -184 -55q-40 -30 -63.5 -86t-23.5 -128
q0 -79 30 -142t63 -93q96 -89 225 -89q67 0 95 16q18 10 18 26z" />
    <glyph glyph-name="h" unicode="h" horiz-adv-x="847" 
d="M692 394v-150q0 -140 5 -184q2 -16 3.5 -23t8.5 -13.5t20 -8.5q24 -4 39 -4q8 0 8 -7t-15 -7q-21 0 -47 0.5t-43.5 1.5t-18.5 1t-17.5 -1t-37.5 -1.5t-32 -0.5q-14 0 -14 7t7 7q10 0 26 4q19 4 24 46q4 35 4 181v85q0 5 -5 5h-367q-5 0 -5 -5v-85q0 -147 4 -182
q2 -15 4 -22.5t9 -14t19 -8.5q26 -4 40 -4q7 0 7 -7t-14 -7q-22 0 -48 0.5t-44 1.5l-17 1q-1 0 -18 -1t-37.5 -1.5t-32.5 -0.5q-14 0 -14 7t7 7q11 0 27 4q8 2 12.5 9t6 13.5t4.5 22.5q5 35 5 184v150q0 156 -2 183q-2 24 -8.5 34t-27.5 13q-14 2 -30 2q-7 0 -7 7t14 7
q18 0 42 -0.5t41 -1t18 -0.5t17.5 0.5t37 1t32.5 0.5q14 0 14 -7t-7 -7q-12 0 -22 -2q-17 -4 -23 -13.5t-8 -33.5q-1 -27 -1 -185v-18q0 -5 5 -5h367q5 0 5 5v18q0 131 -2 185q-2 24 -8.5 34t-26.5 13q-14 2 -30 2q-7 0 -7 7t14 7q17 0 41 -0.5t41 -1t18 -0.5q2 0 18 0.5
t37 1t32 0.5q15 0 15 -7t-8 -7q-11 0 -22 -2q-17 -4 -22.5 -13.5t-7.5 -33.5q-2 -27 -2 -183z" />
    <glyph glyph-name="i" unicode="i" horiz-adv-x="389" 
d="M235 394v-150q0 -149 4 -184q2 -15 4 -22.5t9 -14t19 -8.5q26 -4 40 -4q7 0 7 -7t-14 -7q-22 0 -48 0.5t-44 1.5l-18 1q-1 0 -17.5 -1t-37 -1.5t-32.5 -0.5q-14 0 -14 7t7 7q11 0 27 4q18 4 23 45q5 44 5 184v150q0 156 -2 183q-3 41 -28 46q-15 3 -27 3q-7 0 -7 7t14 7
q13 0 34 -0.5t37.5 -1t17.5 -0.5t17.5 0.5t37.5 1t33 0.5q14 0 14 -7t-7 -7q-12 0 -22 -2q-17 -4 -23 -13.5t-8 -33.5q-1 -27 -1 -183z" />
    <glyph glyph-name="j" unicode="j" horiz-adv-x="369" 
d="M235 394v-204q0 -110 -5 -159t-24 -92q-28 -63 -129 -130q-18 -12 -36 -22l-2 -1h-4q-6 0 -6 5q0 7 11 14q13 7 31 23q32 32 48 60.5t26 91t10 168.5v246q0 156 -2 183q-2 24 -8.5 34t-27.5 13q-14 2 -30 2q-7 0 -7 7t14 7q18 0 42 -0.5t41.5 -1t18.5 -0.5t17 0.5t36.5 1
t32.5 0.5q14 0 14 -7t-7 -7q-12 0 -22 -2q-17 -4 -23 -13.5t-8 -33.5q-1 -27 -1 -183z" />
    <glyph glyph-name="k" unicode="k" horiz-adv-x="666" 
d="M155 244v150q0 156 -2 183q-2 24 -8.5 34t-27.5 13q-14 2 -30 2q-7 0 -7 7t14 7q18 0 41.5 -0.5t40 -1t17.5 -0.5q2 0 37 1t50 1q14 0 14 -7t-7 -7q-11 0 -22 -2q-17 -4 -23 -14t-8 -33q-2 -27 -2 -183v-51h4q6 7 49.5 50.5l92.5 92.5l62 62q48 48 48 61q0 15 -11 17
q-8 2 -8 8t10 6q9 0 32 -1t34 -1l36 1q36 1 49 1t13 -6q0 -7 -9 -7q-20 0 -49 -12q-8 -3 -14.5 -6.5t-13 -8.5t-11 -8t-12.5 -10.5l-11.5 -11t-14 -13t-15.5 -14.5q-20 -18 -99 -94.5t-92 -90.5q18 -20 117 -118.5t125 -122.5q76 -68 95 -79q12 -7 31 -15q31 -12 54 -12
q11 0 11 -7t-19 -7h-45q-41 0 -61 2q-22 2 -41.5 10t-29.5 15.5l-36 26.5q-28 22 -130 128t-137 148h-4v-83q0 -149 4 -184q3 -22 9 -32t25 -13q24 -4 34 -4q7 0 7 -7t-14 -7q-19 0 -43 0.5t-41 1.5t-19 1q-1 0 -36 -1.5t-51 -1.5q-14 0 -14 7t7 7q11 0 27 4q8 2 12.5 9
t6 13.5t4.5 22.5q5 35 5 184z" />
    <glyph glyph-name="l" unicode="l" 
d="M235 394v-152q0 -100 3.5 -140t14.5 -51q20 -20 117 -20q29 0 44.5 1t33.5 7t28 18q16 19 21 48q2 11 9 11q6 0 6 -13q0 -39 -13 -85q-5 -15 -13.5 -19t-42.5 -4q-91 0 -153 3q-80 2 -96 2q-19 0 -36 -1q-36 -2 -51 -2q-14 0 -14 7t7 7q11 0 27 4q8 2 12.5 9t6 13.5
t4.5 22.5q5 35 5 184v150q0 156 -2 183q-2 24 -8.5 34t-27.5 13q-14 2 -30 2q-7 0 -7 7t14 7q18 0 41.5 -0.5t40.5 -1t18 -0.5t20 0.5t42 1t35 0.5q14 0 14 -7q0 -6 -7 -6q-9 0 -29 -2q-19 -4 -25 -14t-8 -34q-1 -27 -1 -183z" />
    <glyph glyph-name="m" unicode="m" horiz-adv-x="924" 
d="M754 629l60 -522q8 -76 45 -88q25 -8 57 -8q7 0 7 -6q0 -8 -18 -8q-97 0 -150 5q-25 2 -25 9q0 5 6 7q8 2 4 30l-42 430h-2l-212 -434q-14 -28 -19.5 -36.5t-11.5 -8.5q-9 0 -30 39q-69 127 -103 197l-35.5 72.5l-48.5 99.5t-28 60h-4l-34 -384q-1 -13 -1 -43
q0 -19 21 -24q19 -5 34 -5q7 0 7 -6q0 -8 -16 -8q-20 0 -51 1l-31 2q-2 0 -31 -1.5t-43 -1.5q-15 0 -15 8q0 6 9 6q7 0 26 3q5 1 9 2.5t7 4.5t5 5.5t4 7.5l3 7.5t2 10t1.5 9.5t1.5 10.5t1 10.5l64 555q2 15 10 15q11 0 18 -13l266 -528l256 527q7 14 14 14q10 0 13 -23z" />
    <glyph glyph-name="n" unicode="n" horiz-adv-x="833" 
d="M182 514l10 -401q1 -52 8.5 -72t25.5 -25q20 -5 44 -5q7 0 7 -7t-16 -7q-22 0 -43.5 0.5t-34.5 1.5t-15 1l-30 -2q-31 -1 -55 -1q-14 0 -14 7t7 7q20 0 36 5q16 4 20.5 25t4.5 81v487q0 43 12 43q8 0 34 -26l278 -290l208 -219l-9 426q-1 43 -7 59t-26 20q-21 4 -43 4
q-7 0 -7 8q0 6 17 6q24 0 57.5 -1t34.5 -1q2 0 28 1t47 1q16 0 16 -6q0 -8 -10 -8q-11 0 -21 -2q-21 -4 -26 -18.5t-5 -55.5l-2 -498v-33.5t-1 -18t-2.5 -8t-3.5 -1.5q-10 0 -67 52q-57 51 -229 230q-199 208 -228 241z" />
    <glyph glyph-name="o" unicode="o" horiz-adv-x="808" 
d="M55 320q0 43 12.5 87.5t40.5 88.5t67.5 78.5t99 56t129.5 21.5q152 0 250 -86.5t98 -232.5t-98.5 -246.5t-254.5 -100.5q-86 0 -154.5 30.5t-108.5 80t-60.5 106.5t-20.5 117zM146 343q0 -146 78.5 -234t199.5 -88q27 0 55 6t62.5 25t60 49t43 84t17.5 124
q0 146 -76.5 228.5t-186.5 82.5q-114 0 -183.5 -71t-69.5 -206z" />
    <glyph glyph-name="p" unicode="p" horiz-adv-x="586" 
d="M155 244v150q0 156 -2 183q-2 24 -8.5 34t-27.5 13q-14 2 -30 2q-7 0 -7 7t14 7q18 0 41.5 -0.5t41 -1t19.5 -0.5q7 0 54.5 1t70.5 1q113 0 168 -48q44 -40 44 -102q0 -91 -62.5 -147t-164.5 -56q-20 0 -25 1q-9 0 -9 8q0 9 23 9q71 0 117 39.5t46 97.5q0 80 -50 129
q-7 7 -15 13.5t-16.5 10.5t-15.5 7t-15 5t-14 3t-14 1.5t-11.5 0.5h-10h-7.5q-22 0 -49 -6q-7 -1 -7 -16v-346q0 -149 4 -184q3 -21 9.5 -31.5t25.5 -13.5q24 -4 39 -4q7 0 7 -7t-14 -7q-21 0 -47.5 0.5t-44.5 1.5l-18 1q-1 0 -17 -1t-37 -1.5t-33 -0.5q-14 0 -14 7t7 7
q11 0 27 4q8 2 12.5 9t6 13.5t4.5 22.5q5 35 5 184z" />
    <glyph glyph-name="q" unicode="q" horiz-adv-x="810" 
d="M684 -67l-146 79q-52 -26 -139 -26t-155.5 30.5t-108.5 80t-60.5 106.5t-20.5 117q0 43 12.5 87.5t40.5 88.5t67.5 78.5t99 56t129.5 21.5q152 0 250 -87t98 -232q0 -100 -49 -175t-106 -110l180 -89q202 -100 369 -100q81 0 172 33q9 3 13 3q5 0 5 -6t-7 -9
q-134 -59 -280 -59q-157 0 -364 112zM144 343q0 -145 78.5 -233.5t199.5 -88.5q27 0 55.5 6t62.5 25t60 49.5t43.5 84t17.5 123.5q0 145 -77 228t-187 83q-115 0 -184 -71t-69 -206z" />
    <glyph glyph-name="r" unicode="r" horiz-adv-x="672" 
d="M155 244v150q0 156 -2 183q-2 24 -8.5 34t-27.5 13q-14 2 -30 2q-7 0 -7 7t14 7q18 0 42.5 -0.5t42.5 -1t19 -0.5q2 0 48 1t62 1q111 0 164 -37q23 -16 42 -46.5t19 -69.5q0 -102 -108 -194q137 -171 184 -220q52 -53 98 -59q17 -3 31 -3q8 0 8 -7t-21 -7h-55
q-63 0 -94 17q-18 10 -38.5 29.5t-35.5 37.5l-46 58l-53.5 69.5l-41.5 54.5q-5 5 -12 5l-112 2q-6 0 -6 -7v-20q0 -148 4 -183q3 -21 9.5 -31.5t25.5 -13.5q24 -4 39 -4q7 0 7 -7t-14 -7q-21 0 -47 0.5t-43 1.5l-18 1h-6q-7 -1 -17.5 -1.5t-21.5 -0.5t-22.5 -0.5t-19.5 -0.5
q-14 0 -14 7t7 7q11 0 27 4q8 2 12.5 9t6 13.5t4.5 22.5q5 35 5 184zM231 595v-273q0 -6 6 -11q24 -13 97 -13q44 0 66 15q53 35 53 130q0 79 -40.5 123t-111.5 44q-41 0 -63 -5q-7 -3 -7 -10z" />
    <glyph glyph-name="s" unicode="s" horiz-adv-x="524" 
d="M209 -14q-79 0 -128 23q-9 4 -11 9.5t-2 22.5q0 20 5 90q0 14 7 14q8 0 8 -10q0 -19 3 -31q10 -43 49.5 -63.5t89.5 -20.5q63 0 97.5 31.5t34.5 81.5q0 43 -23.5 71.5t-87.5 76.5l-40 30q-69 52 -97.5 94t-28.5 88q0 74 53.5 117t141.5 43q49 0 91 -10q17 -4 31 -4
q9 0 9 -6l-1 -11q-1 -11 -2 -32t-1 -47q0 -19 -7 -19q-6 0 -8 11q-2 23 -13 42q-5 8 -14.5 16t-36.5 17t-63 9q-50 0 -83.5 -24.5t-33.5 -67.5q0 -40 24 -69.5t90 -74.5l25 -17q79 -54 111.5 -101.5t32.5 -103.5q0 -92 -82 -145q-46 -30 -140 -30z" />
    <glyph glyph-name="t" unicode="t" horiz-adv-x="610" 
d="M347 601v-357q0 -149 4 -184q3 -22 9 -32t25 -13q24 -4 40 -4q7 0 7 -7t-14 -7q-21 0 -47 0.5t-43.5 1.5t-18.5 1t-18.5 -1t-39.5 -1.5t-33 -0.5q-14 0 -14 7q0 6 7 6q10 0 26 4q21 5 26 46q4 35 4 184v357l-127 -2q-42 -1 -60.5 -6.5t-28.5 -20.5q-2 -3 -14 -27
q-2 -8 -9 -8q-6 0 -6 7q0 5 9.5 48t9.5 44q6 16 9 16q2 0 13.5 -4t25.5 -6q33 -4 69 -4h332q35 0 63 4q5 1 11 2l9 1.5t5 0.5q4 0 4 -10q0 -15 -1.5 -54.5t-1.5 -42.5q0 -11 -8 -11q-6 0 -7 15l-1 9q-3 22 -25 34t-81 13z" />
    <glyph glyph-name="u" unicode="u" horiz-adv-x="732" 
d="M110 269v125q0 156 -2 183q-2 23 -9 33.5t-27 13.5q-14 2 -30 2q-7 0 -7 7t14 7q18 0 41 -0.5t40.5 -1t19.5 -0.5t38 1t51 1t15 -7t-8 -7q-11 0 -22 -2q-16 -3 -22 -13.5t-8 -33.5q-2 -27 -2 -183v-119q0 -86 16.5 -133t48.5 -75q30 -27 60 -36.5t71 -9.5q40 0 76.5 16.5
t59.5 43.5q50 60 50 206v107q0 129 -2 183q-1 22 -8 33t-27 14q-14 2 -30 2q-7 0 -7 7t14 7q17 0 39.5 -0.5t38.5 -1t17 -0.5t30 1t44 1q14 0 14 -7t-7 -7q-11 0 -22 -2q-17 -4 -23 -14t-8 -33q-1 -14 -1 -183v-91q0 -185 -82 -255q-72 -62 -184 -62q-119 0 -183 60
q-77 72 -77 223z" />
    <glyph glyph-name="v" unicode="v" horiz-adv-x="653" 
d="M182 536l166 -428q38 84 104.5 251.5t80.5 213.5q8 26 8 32q0 14 -12 18q-10 3 -30 3q-10 0 -10 7t20 7q21 0 52 -1t34 -1q2 0 13.5 0.5t28 1t27.5 0.5q14 0 14 -6q0 -8 -10 -8q-26 0 -42 -10q-25 -16 -49 -78l-98 -230q-105 -242 -113 -258q-28 -59 -34 -63q-2 -1 -4 -1
q-7 0 -13.5 10t-19.5 42l-216 521q-14 35 -26 47t-35 17q-14 3 -34 3q-7 0 -7 8q0 6 23 6q25 0 63 -1t40 -1q1 0 31.5 1t50.5 1q24 0 24 -6q0 -8 -9 -8q-21 0 -32 -4q-10 -4 -10 -15q0 -8 24 -71z" />
    <glyph glyph-name="w" unicode="w" horiz-adv-x="968" 
d="M530 597l172 -474h4q117 372 132 425q10 36 10 53q0 13 -9.5 19t-37.5 6q-8 0 -8 8q0 6 15 6q20 0 40.5 -0.5t34 -1t15.5 -0.5l28 1q27 1 43 1q12 0 12 -5q0 -9 -8 -9q-17 0 -30 -4q-18 -6 -30 -27t-27 -63q-19 -52 -81 -238t-80 -235q-17 -48 -24 -60.5t-14 -12.5
q-13 0 -29 44l-172 465l-181 -464q-11 -27 -17.5 -36t-13.5 -9t-14 13t-20 54l-156 504q-10 33 -19 45.5t-27 18.5q-15 5 -40 5q-8 0 -8 8q0 6 14 6q20 0 44 -0.5t40.5 -1t19.5 -0.5q2 0 16.5 0.5t35.5 1t40 0.5q16 0 16 -6q0 -8 -9 -8q-21 0 -31 -5q-12 -4 -12 -18t17 -79
q10 -38 58 -205t57 -196h2l184 475q15 39 24 39t24 -40z" />
    <glyph glyph-name="x" unicode="x" horiz-adv-x="611" 
d="M108 82l158 244l-140 228q-17 29 -31.5 44.5t-35.5 21.5t-37 6q-8 0 -8 8q0 6 15 6t58.5 -1t44.5 -1t34.5 1t51.5 1q15 0 15 -6q0 -8 -8 -8q-17 0 -24 -2q-11 -1 -11 -13t9 -28q76 -137 116 -201q22 31 71.5 108t55.5 90q9 15 9 30q0 9 -15 14q-9 2 -24 2q-8 0 -8 8
q0 6 15 6q20 0 48.5 -1t29.5 -1t28.5 1t45.5 1q14 0 14 -6q0 -8 -9 -8q-17 0 -30 -4q-17 -6 -30.5 -20.5t-35.5 -46.5l-141 -206l49 -79.5l86.5 -139t50.5 -77.5q23 -30 50 -37q20 -5 30 -5q7 0 7 -7t-12 -7q-96 0 -144 2q-27 1 -27 7q0 5 5 7q5 1 7.5 7t-2.5 17l-149 251
l-135 -223q-11 -19 -11 -38q0 -11 14 -14q10 -2 16 -2q8 0 8 -8q0 -6 -11 -6q-12 0 -48.5 1.5t-38.5 1.5q-1 0 -32 -1.5t-48 -1.5q-8 0 -8 6q0 8 7 8q11 0 33 5q35 9 72 66z" />
    <glyph glyph-name="y" unicode="y" horiz-adv-x="576" 
d="M255 145v73q0 52 -19 87l-70 112.5t-86 134.5q-26 40 -58 62q-20 12 -37 12q-9 0 -9 8q0 6 11 6q10 0 49 -1l38 -1q2 0 14 0.5t29.5 1t32.5 0.5q12 0 12 -6q0 -4 -14 -9q-11 -5 -11 -14q0 -11 12 -33l160 -265q8 16 40 70.5l65.5 110.5t38.5 65q15 26 15 44t-14 22
q-13 3 -13 10q0 5 14 5q13 0 36 -1t25 -1t39 1t47 1q11 0 11 -5q0 -9 -11 -9q-22 0 -41 -11q-18 -11 -44 -42q-20 -24 -88 -132t-83 -138q-5 -11 -8 -23.5t-3.5 -18.5t0 -23.5t0.5 -19.5v-73q0 -50 3 -85q2 -21 9 -31.5t25 -13.5q24 -4 40 -4q7 0 7 -7t-14 -7q-22 0 -48 0.5
t-44 1.5t-19 1t-17.5 -1t-37 -1.5t-31.5 -0.5q-14 0 -14 7t7 7q10 0 26 4q23 5 26 45q2 35 2 85z" />
    <glyph glyph-name="z" unicode="z" horiz-adv-x="609" 
d="M172 37h234q65 0 92.5 9.5t44.5 29.5q9 11 18 46q3 13 10 13t7 -19q0 -35 -18 -98q-4 -16 -7.5 -19t-18.5 -3q-73 0 -222.5 2t-227.5 2q-16 0 -16 7q0 9 12 26l383 569h-186q-99 0 -125 -14q-21 -11 -34 -30.5t-16 -36.5q-2 -15 -12 -15q-5 0 -5 11q0 19 18 113
q1 16 8 16q3 0 13.5 -2.5t23.5 -3.5q56 -2 154 -2h246q18 0 18 -7q0 -9 -5 -15z" />
    <glyph glyph-name="braceleft" unicode="{" horiz-adv-x="360" 
d="M134 349q42 -22 58 -79q10 -37 10 -150q0 -195 75 -226q22 -8 22 -13t-18 -5q-19 0 -48.5 16.5t-54.5 50.5q-24 33 -37.5 82.5t-13.5 145.5q0 15 3.5 52.5t3.5 54.5q0 21 -7 32t-19.5 15.5t-39.5 9.5q-12 2 -12 8q0 8 12 9q42 2 55.5 13.5t13.5 54.5q0 20 -5 58.5
t-5 48.5q0 70 16 108t48 68q21 19 48.5 30t45.5 11q13 0 13 -5q0 -4 -16 -9q-27 -8 -53.5 -38.5t-26.5 -86.5v-48v-43.5t-0.5 -32t-2.5 -32t-5 -24.5q-6 -25 -24.5 -47.5t-35.5 -28.5z" />
    <glyph glyph-name="bar" unicode="|" horiz-adv-x="510" 
d="M282 -250h-54v1000h54v-1000z" />
    <glyph glyph-name="braceright" unicode="}" horiz-adv-x="360" 
d="M226 349q-17 6 -35.5 28.5t-24.5 47.5q-3 12 -5 24.5t-2.5 32t-0.5 32v43.5v48q0 56 -26.5 86.5t-53.5 38.5q-16 5 -16 8q0 6 13 6q18 0 45.5 -11t48.5 -30q32 -30 48 -68t16 -108q0 -11 -5 -50.5t-5 -69t11 -39.5q7 -6 16 -10t13.5 -4.5t16.5 -1.5h12q12 -1 12 -9
q0 -6 -12 -8q-19 -3 -26.5 -5t-17.5 -7t-15 -13q-7 -12 -7 -35.5t3.5 -56.5t3.5 -47q0 -96 -13.5 -145.5t-37.5 -82.5q-25 -34 -54.5 -50.5t-48.5 -16.5q-18 0 -18 4q0 6 22 14q75 26 75 226v28.5v26v21t1 20.5t2 17.5t2.5 19t4.5 17.5q16 57 58 79z" />
    <glyph glyph-name="asciitilde" unicode="~" horiz-adv-x="510" 
d="M110 201l-49 -1q-1 59 25 89t70 30q37 0 109 -34q70 -33 93 -33q20 -1 30 16t11 50h49q3 -63 -23 -91t-69 -28q-41 0 -110 34q-68 34 -92 34q-43 0 -44 -66z" />
    <glyph glyph-name="uni00A0" unicode="&#xa0;" horiz-adv-x="325" 
 />
    <glyph glyph-name="exclamdown" unicode="&#xa1;" horiz-adv-x="320" 
d="M162 767q24 0 37 -15.5t13 -35.5q0 -19 -13 -35t-38 -16q-22 0 -36.5 13.5t-14.5 34.5q0 23 14.5 38.5t37.5 15.5zM173 544l16 -266q0 -1 1.5 -31t3.5 -58t4.5 -58.5t5.5 -41.5q4 -16 4 -19q0 -6 -5 -14q-26 -44 -74 -68q-10 -5 -15 -5q-6 0 -6 10q0 2 2.5 19.5t6.5 49
t6 63.5q0 3 5.5 111l11 212.5t6.5 115.5q2 32 12 32q12 0 15 -52z" />
    <glyph glyph-name="cent" unicode="&#xa2;" horiz-adv-x="571" 
d="M364 597l-45 -434q34 -2 49 -2q58 0 89 16t41 61q3 15 9 15t6 -12q0 -30 -13 -92q-4 -15 -13 -17q-60 -16 -133 -16q-28 0 -43 1l-14 -135q-1 -9 -9 -11l-23 -5q-11 -3 -9 6l18 152q-94 17 -153.5 84.5t-59.5 172.5q0 64 24.5 112.5t53.5 73.5q72 62 194 67l11 100
q1 7 10 9l20 4q5 1 8 -0.5t2 -5.5l-13 -108q71 0 138 -25q7 -4 7 -14q0 -50 -6 -92q-1 -12 -8 -12q-5 0 -5 12q-4 36 -20 56q-11 13 -41.5 25t-71.5 14zM281 174l45 424q-87 0 -139 -54t-52 -136q0 -97 42.5 -154.5t103.5 -79.5z" />
    <glyph glyph-name="sterling" unicode="&#xa3;" horiz-adv-x="571" 
d="M251 0h-233q-29 0 -29 10q0 13 20 17q36 8 61 27.5t39 52t21.5 64.5t13.5 81l13 105h-75q-7 0 -13.5 -1t-7.5 -1q-7 0 -3 9l12 21q3 8 14 8h79l10 70q25 179 104 248q64 56 151 56q51 0 87 -12q23 -5 27 -5q7 -1 7 -12q0 -84 -5 -114q-2 -12 -8 -12q-8 0 -8 15
q0 35 -24 67q-28 38 -99 38q-59 0 -98.5 -49t-49.5 -139l-18 -151h109q12 0 22.5 1.5l17 2.5t7.5 1q9 0 5 -10l-11 -24q-4 -8 -16 -8h-140l-5 -42q-23 -180 -111 -256l2 -2l312 3q42 1 64 19.5t29 62.5q1 10 8 10t7 -15q0 -36 -17 -121q-3 -14 -11.5 -17t-49.5 -3
q-51 0 -101 3q-66 2 -109 2z" />
    <glyph glyph-name="currency" unicode="&#xa4;" horiz-adv-x="571" 
d="M487 449l-68 -61q28 -43 28 -100q-1 -67 -29 -107l65 -62l-42 -43l-60 68q-40 -37 -98 -37q-60 -2 -98 35l-59 -66l-40 43l63 61q-32 43 -32 102t33 106l-66 61l41 43l60 -66q40 35 99 35h1q59 0 98 -34l62 65zM380 286q0 47 -26 80.5t-71 33.5h-1q-43 0 -70 -33t-27 -83
q0 -56 30 -86t67 -30q40 0 69 29.5t29 88.5z" />
    <glyph glyph-name="yen" unicode="&#xa5;" horiz-adv-x="571" 
d="M323 306v-141v-34.5v-38v-25.5q1 -24 11 -36t35 -16q21 -3 45 -3q9 0 9 -8q0 -7 -16 -7q-15 0 -32.5 0.5t-32 0.5t-27 0.5t-20 1t-8.5 0.5t-20 -1t-48 -1.5t-52 -0.5q-17 0 -17 7q0 8 7 8q27 0 46 3q25 4 35.5 16t11.5 36q1 22 1 98v141h-162q-10 0 -7 11l7 21q2 6 11 6
h149q-17 25 -86 141l-98 166q-31 52 -62 74q-20 13 -44 13q-11 0 -11 7q0 8 10 8q11 0 52.5 -1.5t42.5 -1.5q2 0 14 1t30.5 1.5t35.5 0.5q13 0 13 -8q0 -5 -14 -9t-14 -18t13 -38q168 -295 170 -297q11 18 76.5 139l74.5 137q19 32 19 53q0 16 -16 23q-16 6 -16 11q0 7 16 7
q15 0 38 -1.5t24 -1.5t42 1.5t51 1.5q13 0 13 -7q0 -8 -12 -8q-21 0 -43 -12q-23 -11 -52 -51q-14 -18 -53 -86l-83 -146.5t-56 -98.5h162q13 0 9 -9l-6 -23q-2 -6 -14 -6h-152z" />
    <glyph glyph-name="brokenbar" unicode="&#xa6;" horiz-adv-x="510" 
d="M282 325h-54v350h54v-350zM282 -175h-54v350h54v-350z" />
    <glyph glyph-name="section" unicode="&#xa7;" horiz-adv-x="596" 
d="M408 93q52 -53 52 -124q0 -93 -83 -148q-53 -35 -133 -35q-95 0 -144 23q-9 4 -11 9.5t-2 22.5q0 20 5 90q0 14 7 14q8 0 8 -10q0 -19 3 -31q19 -84 144 -84q61 0 99 33t38 88q0 49 -29.5 82.5t-101.5 85.5l-32 23q-80 58 -111.5 96.5t-31.5 95.5q0 53 34.5 93t80.5 59
q-68 66 -68 128q0 78 59.5 120t143.5 42q53 0 95 -10q17 -4 31 -4q9 0 9 -6l-1 -11q-1 -11 -2 -32t-1 -47q0 -19 -7 -19q-6 0 -8 11q-2 23 -13 42q-25 42 -119 42q-52 0 -88 -27t-36 -78q0 -29 19 -56t38 -41.5t71 -50.5l11 -8l26 -18q81 -56 115.5 -98t34.5 -95
q0 -109 -102 -167zM383 116q31 17 50 50t19 63q0 29 -15 53t-35.5 41t-60.5 45q-13 8 -19 13l-42 30q-21 15 -53 41q-35 -11 -60.5 -41.5t-25.5 -64.5q0 -41 27 -69.5t102 -78.5l28 -19q63 -42 85 -63z" />
    <glyph glyph-name="dieresis" unicode="&#xa8;" horiz-adv-x="911" 
d="M555 830q-21 0 -31.5 13t-10.5 30q0 16 11 29.5t32 13.5q19 0 31 -11t12 -29q0 -20 -12 -33t-32 -13zM354 830q-21 0 -31.5 13t-10.5 30q0 16 11 29.5t32 13.5q19 0 31 -11t12 -29q0 -20 -12 -33t-32 -13z" />
    <glyph glyph-name="copyright" unicode="&#xa9;" horiz-adv-x="906" 
d="M454 -17q-163 0 -277.5 114t-114.5 277t114.5 278t277.5 115q161 0 275.5 -115t114.5 -278q0 -162 -114 -276.5t-276 -114.5zM454 27q142 0 237.5 102t95.5 246q0 145 -95.5 246.5t-237.5 101.5q-143 0 -239 -101.5t-96 -246.5q0 -144 96.5 -246.5t238.5 -101.5zM477 150
q-112 0 -182 64t-70 170q0 97 68 162q62 60 171 60q35 0 82 -8q7 -1 21.5 -4l26 -5.5t12.5 -2.5q2 0 6 0.5t5 0.5q2 0 2 -5q0 -61 -6 -97q-1 -8 -10 -8t-9 11q-2 32 -16 47q-31 35 -123 35q-75 0 -115 -42t-40 -121q0 -101 54 -158.5t130 -57.5q64 0 89 25q15 14 23 47
q3 10 11 10q9 0 9 -9q0 -27 -10 -71q-3 -13 -4.5 -17.5t-5.5 -8t-12 -5.5q-44 -12 -107 -12z" />
    <glyph glyph-name="ordfeminine" unicode="&#xaa;" horiz-adv-x="400" 
d="M245 522h-120q-3 0 -5 -5l-22 -60q-6 -18 -6 -26q0 -6 4.5 -10t9.5 -4h5q6 0 6 -4q0 -5 -9 -5q-7 0 -24 1t-21 1q-3 0 -25.5 -1t-37.5 -1q-10 0 -10 5q0 4 5 4q11 0 16 1q29 2 45 42l127 295q5 12 13 12q6 0 14 -17q1 -2 27 -61l56 -124t46 -96q25 -45 43 -50q8 -2 22 -2
q5 0 5 -4q0 -5 -11 -5q-48 0 -98 2q-17 0 -17 3t4 5q7 2 4 10l-40 90q-3 4 -6 4zM137 552h94q5 0 3 4l-46 112q-5 12 -10 0l-43 -112q-2 -4 2 -4z" />
    <glyph glyph-name="guillemotleft" unicode="&#xab;" horiz-adv-x="560" 
d="M481 140l-30 -33q-3 -5 -8 -5q-4 0 -23 22q-92 104 -140 152q-18 18 -18 24t19 22q28 24 178 174q13 11 18 11q9 0 9 -8q0 -7 -6 -13q-1 -1 -14.5 -17l-32.5 -38l-39.5 -46l-38.5 -46.5t-26 -33.5q14 -17 61.5 -65.5t80.5 -77.5q14 -13 14 -15q0 -3 -4 -7zM294 140
l-30 -33q-3 -5 -8 -5q-4 0 -23 22q-92 104 -140 152q-18 18 -18 24t19 22q28 24 178 174q13 11 18 11q9 0 9 -8q0 -7 -6 -13q-1 -1 -14.5 -17l-32.5 -38l-39.5 -46l-38.5 -46.5t-26 -33.5q14 -17 61.5 -65.5t80.5 -77.5q14 -13 14 -15q0 -3 -4 -7z" />
    <glyph glyph-name="logicalnot" unicode="&#xac;" horiz-adv-x="510" 
d="M465 159h-52v161h-368v51h420v-212z" />
    <glyph glyph-name="uni00AD" unicode="&#xad;" horiz-adv-x="390" 
d="M73 310h252q30 0 30 -10q0 -2 -0.5 -3.5t-2 -3t-3 -2.5t-4 -2t-4.5 -1.5t-5 -1.5t-5 -1t-5.5 -1t-5.5 -1q-223 -33 -238 -37q-8 -2 -17.5 -6l-15.5 -6.5t-8 -2.5q-8 0 -5 15l15 56q2 8 22 8z" />
    <glyph glyph-name="registered" unicode="&#xae;" horiz-adv-x="206" 
d="M103 592q-40 0 -66 25t-26 62q0 38 26 63t66 25t66 -25t26 -63q0 -37 -26 -62t-66 -25zM104 607q32 0 53 21t21 52q0 32 -21 52t-54 20t-54 -20t-21 -52t21.5 -52.5t54.5 -20.5zM69 672v22q0 9 -0.5 17.5t-0.5 9.5q0 7 -11 7q-3 0 -3 2q0 3 5 3h5q1 0 6 -0.5t7 -0.5
q5 0 11 0.5t10 0.5q42 0 42 -27q0 -16 -18 -30l17 -21q14 -17 19 -17q3 0 3 -2q0 -3 -7 -3q-9 0 -12 0.5t-9.5 4.5t-13.5 14l-14 19h-18v-9q0 -20 2 -22q4 -2 10 -2q3 0 3 -2q0 -3 -4 -3h-4q-1 0 -7 0.5t-9 0.5q-2 0 -8 -0.5t-7 -0.5h-5q-4 0 -4 2q0 3 4 3q7 0 8 0.5t2 5.5
q0 1 0.5 10t0.5 18zM87 722v-40q5 -3 15 -3q6 0 10 3q9 5 9 18q0 24 -25 24q-7 0 -9 -2z" />
    <glyph glyph-name="macron" unicode="&#xaf;" horiz-adv-x="911" 
d="M343 900h235q12 0 8 -10l-8 -22q-2 -6 -9 -6h-235q-6 0 -8.5 1.5t-1.5 5.5l8 25q1 6 11 6z" />
    <glyph glyph-name="degree" unicode="&#xb0;" horiz-adv-x="308" 
d="M253 595l-1 1q0 -46 -31.5 -76t-74.5 -30q-45 0 -74.5 29.5t-29.5 71.5q0 44 30.5 74.5t74.5 30.5h2q47 0 75.5 -29.5t28.5 -71.5zM206 595q0 25 -15.5 44t-45.5 19q-27 0 -43 -20t-16 -45q0 -26 17.5 -44t42.5 -18t42.5 18.5t17.5 45.5z" />
    <glyph glyph-name="plusminus" unicode="&#xb1;" horiz-adv-x="510" 
d="M230 524h51v-187h187v-51h-186v-189h-52v189h-188v51h188v187zM468 50v-50h-426v50h426z" />
    <glyph glyph-name="twosuperior" unicode="&#xb2;" horiz-adv-x="444" 
d="M316 305h-253q-11 0 -11 8q0 4 12 16q55 44 81.5 67t67.5 66t59.5 83.5t18.5 82.5q0 59 -30 86t-67 27q-44 0 -70 -27q-22 -24 -22 -55q0 -11 -8 -11q-4 0 -6 11q-4 20 -4 69q0 10 7 14q52 25 115 25q71 0 111 -35t40 -84q0 -42 -19 -84t-57 -82.5t-68.5 -67.5t-77.5 -64
v-1q0 -3 3 -3h33q71 0 115 4q36 3 52 14.5t24 36.5q4 10 9 10t5 -9t-7.5 -37.5t-15.5 -42.5q-9 -17 -37 -17z" />
    <glyph glyph-name="threesuperior" unicode="&#xb3;" horiz-adv-x="413" 
d="M158 301q-65 0 -88 13q-8 4 -9.5 8.5t-1.5 18.5q0 45 3 64q1 9 6 9t6 -8q8 -75 103 -75q47 0 77.5 29t30.5 80q0 46 -36 73t-82 32q-20 3 -20 9q0 8 18 11q30 4 65 32t35 70q0 24 -20.5 49t-66.5 25q-35 0 -61 -19t-26 -46q0 -13 -5 -13q-6 0 -7 11q-6 36 -6 59
q0 11 9 15q44 19 113 19q71 0 101 -27.5t30 -57.5q0 -39 -31 -67.5t-62 -41.5v-2q39 -6 79 -36t40 -79q0 -63 -56.5 -109t-137.5 -46z" />
    <glyph glyph-name="acute" unicode="&#xb4;" horiz-adv-x="911" 
d="M583 933q4 -5 25 -44q7 -12 -4 -12h-30q-70 -7 -152 -42q-12 -5 -15 -5q-5 0 -5 6q0 4 7 8q59 41 136 85q22 13 28 13q4 0 10 -9z" />
    <glyph glyph-name="mu" unicode="&#xb5;" horiz-adv-x="576" 
d="M70 150v300h75v-225q0 -175 135 -175q130 0 130 150v250h75v-359q0 -56 32 -56q21 0 34 33l15 -7q-6 -35 -26 -55.5t-50 -20.5q-34 0 -53 24.5t-22 90.5q-53 -115 -165 -115q-81 0 -115 55q9 -159 25 -240l-90 -50l-12 5q12 249 12 395z" />
    <glyph glyph-name="paragraph" unicode="&#xb6;" horiz-adv-x="712" 
d="M384 683q0 40 -17 40q-26 0 -56.5 -17t-47.5 -44q-35 -54 -35 -143q0 -143 75 -192q5 -3 11.5 -6t9.5 -4t5.5 -3t2.5 -6q0 -7 -11 -7q-5 -1 -21 -1q-108 0 -177.5 60t-69.5 159q0 95 68 159q79 75 229 75q9 0 52 -1.5t54 -1.5q1 0 67.5 1.5t93.5 1.5q16 0 16 -8
q0 -6 -8 -6q-16 0 -28 -3q-19 -5 -26.5 -18t-9.5 -39q-2 -32 -2 -216v-393q0 -172 2 -200q0 -7 -7 -14q-23 -21 -48 -21q-6 0 -6 5q0 1 2 13.5t3 24.5q5 55 5 192v614q0 39 -39 39q-34 0 -37 -37q-1 -19 -1 -223v-389q0 -210 3 -242q1 -6 -6 -13q-23 -21 -50 -21q-8 0 -8 6
l1 4q1 4 2.5 13t2.5 21q6 61 6 232v609z" />
    <glyph glyph-name="periodcentered" unicode="&#xb7;" horiz-adv-x="250" 
d="M124 232q-26 0 -40 17t-14 38q0 20 14 37.5t41 17.5q24 0 39.5 -14t15.5 -38q0 -25 -15.5 -41.5t-40.5 -16.5z" />
    <glyph glyph-name="cedilla" unicode="&#xb8;" horiz-adv-x="911" 
d="M472 0h40q-7 -4 -37 -31.5t-38 -36.5q100 -10 100 -71q0 -27 -21 -48.5t-50 -33.5q-40 -18 -78 -18q-13 0 -13 8q0 9 20 11q29 3 51.5 19.5t22.5 41.5q0 52 -72 73q-15 4 -15 9q0 4 13 14z" />
    <glyph glyph-name="onesuperior" unicode="&#xb9;" horiz-adv-x="330" 
d="M200 595v-110q0 -105 3 -131q2 -14 7.5 -21.5t21.5 -10.5q20 -5 46 -5q9 0 9 -6q0 -8 -12 -8q-24 0 -49 0.5t-40 0.5l-16 1l-19 -1q-19 0 -46.5 -0.5t-49.5 -0.5q-12 0 -12 7t8 7q34 0 57 5q17 3 22.5 10.5t7.5 21.5q3 26 3 131v110q0 66 -1 76q-1 6 -1.5 8.5t-3 5
t-7.5 2.5q-14 0 -83 -30q-6 -3 -9 -3q-6 0 -6 6q0 4 3 7q2 2 72.5 45.5t73.5 45.5q11 9 18 9q6 0 6 -13q0 -1 -0.5 -9t-0.5 -21.5t-0.5 -31.5t-1 -44t-0.5 -53z" />
    <glyph glyph-name="ordmasculine" unicode="&#xba;" horiz-adv-x="437" 
d="M216 405q-96 0 -146 53t-50 128q0 69 52.5 125t146.5 56q88 0 143.5 -46.5t55.5 -126.5t-56 -134.5t-146 -54.5zM230 432q17 0 34 6t37.5 20.5t33 46t12.5 76.5q0 73 -41.5 116.5t-95.5 43.5q-47 0 -83 -37.5t-36 -106.5q0 -70 41 -117.5t98 -47.5z" />
    <glyph glyph-name="guillemotright" unicode="&#xbb;" horiz-adv-x="560" 
d="M79 469l30 33q3 5 8 5q4 0 23 -22q92 -104 140 -152q18 -18 18 -24t-19 -22q-28 -24 -178 -174q-13 -11 -18 -11q-9 0 -9 8q0 7 6 13q1 1 14.5 17l32.5 38l39.5 46l38.5 46.5t26 33.5q-14 17 -61.5 65.5t-80.5 77.5q-14 13 -14 15q0 3 4 7zM266 469l30 33q3 5 8 5
q4 0 23 -22q92 -104 140 -152q18 -18 18 -24t-19 -22q-28 -24 -178 -174q-13 -11 -18 -11q-9 0 -9 8q0 7 6 13q1 1 14.5 17l32.5 38l39.5 46l38.5 46.5t26 33.5q-14 17 -61.5 65.5t-80.5 77.5q-14 13 -14 15q0 3 4 7z" />
    <glyph glyph-name="onequarter" unicode="&#xbc;" horiz-adv-x="793" 
d="M660 160h49q7 0 13.5 1.5t10 3t4.5 1.5q6 0 6 -6q0 -8 -6 -28q-3 -8 -12 -8h-65q0 -66 1 -79q3 -29 27 -31q18 -2 27 -2q6 0 6 -6q0 -7 -9 -7q-15 0 -35 0.5t-35 1t-16 0.5t-13 -0.5t-29.5 -1t-32.5 -0.5q-8 0 -8 6q0 7 8 7q10 0 28 2q25 2 27 31q1 26 1 79h-209
q-13 0 -13 8q0 7 9 16q4 4 117.5 134t126.5 147q9 11 16 11q6 0 6 -10v-270zM607 160v190h-1q-7 -7 -82.5 -95.5t-81.5 -94.5h165zM190 565v-104q0 -100 3 -125q1 -9 3 -14t7.5 -9.5t16.5 -6.5q18 -5 44 -5q9 0 9 -6q0 -7 -12 -7q-23 0 -46.5 0.5t-38.5 1.5h-15h-18
q-18 -1 -44 -1.5t-47 -0.5q-11 0 -11 6q0 7 7 7q33 0 55 5q16 3 21 9.5t7 20.5q3 25 3 125v104q0 63 -1 72q-2 16 -11 16q-17 0 -79 -29q-6 -3 -9 -3q-6 0 -6 6q0 4 3 7q2 2 69 43t70 43q11 9 17 9t6 -13q0 -1 -0.5 -8.5t-0.5 -20.5t-0.5 -30t-1 -41.5t-0.5 -50.5zM161 -14
l-20 17q-6 3 1 13l540 705q8 9 13 5l18 -14q6 -4 2 -10l-542 -713q-5 -8 -12 -3z" />
    <glyph glyph-name="onehalf" unicode="&#xbd;" horiz-adv-x="851" 
d="M190 565v-104q0 -100 3 -125q1 -9 3 -14t7.5 -9.5t16.5 -6.5q18 -5 44 -5q9 0 9 -6q0 -7 -12 -7q-23 0 -46.5 0.5t-38.5 1.5h-15h-18q-18 -1 -44 -1.5t-47 -0.5q-11 0 -11 6q0 7 7 7q33 0 55 5q16 3 21 9.5t7 20.5q3 25 3 125v104q0 63 -1 72q-2 16 -11 16q-17 0 -79 -29
q-6 -3 -9 -3q-6 0 -6 6q0 4 3 7q2 2 69 43t70 43q11 9 17 9t6 -13q0 -1 -0.5 -8.5t-0.5 -20.5t-0.5 -30t-1 -41.5t-0.5 -50.5zM128 -14l-20 17q-5 3 2 13l540 705q8 9 13 5l18 -14q6 -4 2 -10l-542 -713q-6 -9 -13 -3zM743 0h-240q-11 0 -11 8q0 4 11 15l51 41.5l47 41
t47.5 47.5t35 46.5t27.5 54t8 53.5q0 56 -28.5 81.5t-63.5 25.5q-43 0 -67 -25q-20 -22 -20 -53q0 -10 -8 -10q-4 0 -6 10q-4 20 -4 66q0 10 7 13q52 24 109 24q68 0 106 -33t38 -80q0 -32 -14 -66t-33 -60.5t-50.5 -58t-55 -51l-58.5 -47.5v-1q0 -3 3 -3h31q69 0 109 4
q34 3 50 14t23 34q4 10 8 10q5 0 5 -9q0 -8 -7.5 -35.5t-14.5 -40.5q-9 -16 -35 -16z" />
    <glyph glyph-name="threequarters" unicode="&#xbe;" horiz-adv-x="807" 
d="M674 160h48q7 0 13.5 1.5t10 3t4.5 1.5q6 0 6 -6q0 -8 -6 -28q-3 -8 -12 -8h-64v-79q3 -29 27 -31q18 -2 28 -2q5 0 5 -6q0 -7 -9 -7q-15 0 -35 0.5t-35 1t-16 0.5t-13 -0.5t-29.5 -1t-32.5 -0.5q-7 0 -7 6q0 7 7 7q10 0 28 2q25 2 27 31q1 26 1 79h-209q-13 0 -13 8
q0 6 10 16q4 4 117.5 134t126.5 147q9 11 15 11q7 0 7 -10v-270zM620 160v190h-1q-7 -7 -82.5 -95.5t-81.5 -94.5h165zM221 544v-2q37 -6 75 -34.5t38 -74.5q0 -60 -53.5 -103.5t-130.5 -43.5q-64 0 -84 12q-7 4 -8.5 8t-1.5 18q0 43 3 61q1 8 6 8q4 0 5 -7q8 -72 98 -72
q44 0 73.5 27.5t29.5 76.5q0 44 -34.5 69.5t-77.5 30.5q-19 3 -19 8q0 8 17 11q29 4 62 30.5t33 66.5q0 22 -20 46t-63 24q-33 0 -58 -18t-25 -44q0 -12 -4 -12q-6 0 -7 10q-6 34 -6 56q0 11 9 15q40 18 107 18q68 0 96.5 -26t28.5 -55q0 -37 -30 -65t-59 -39zM159 -14
l-20 17q-5 3 2 13l539 705q8 9 13 5l19 -14q5 -4 1 -10l-542 -713q-5 -8 -12 -3z" />
    <glyph glyph-name="questiondown" unicode="&#xbf;" horiz-adv-x="488" 
d="M265 17q67 0 98 39q30 36 35 93q2 17 8 17q7 0 8 -10q4 -17 4 -117q0 -9 -11 -16q-67 -40 -166 -40q-91 0 -136 47.5t-45 108.5q0 34 7.5 62t26 56t35.5 48.5l49.5 57.5t53.5 63q41 52 41 80q0 25 -19 51q-9 12 -9 17q0 3 4 6t7 3q14 0 42 -35q29 -36 29 -59
q0 -22 -22 -50q-12 -16 -35.5 -43t-33.5 -40q-51 -65 -69.5 -111t-18.5 -101q0 -46 28 -86.5t89 -40.5zM263 767q24 0 37 -15.5t13 -35.5q0 -19 -13 -35t-38 -16q-22 0 -36.5 13.5t-14.5 34.5q0 23 14.5 38.5t37.5 15.5z" />
    <glyph glyph-name="Agrave" unicode="&#xc0;" horiz-adv-x="700" 
d="M95 107l227 621q14 39 22 39t22 -36l233 -603q40 -98 86 -111q18 -6 40 -6q10 0 10 -6q0 -8 -20 -8q-88 0 -157 2q-30 2 -30 7t7 7q14 5 6 27l-93 246q-3 6 -9 6h-215q-7 0 -10 -8l-60 -177q-14 -39 -14 -67q0 -14 11.5 -21.5t26.5 -7.5h10q10 0 10 -6q0 -8 -15 -8
q-14 0 -44 1.5t-34 1.5q-1 0 -43 -1.5t-70 -1.5q-19 0 -19 8q0 6 9 6q13 0 29 2q32 4 50 27.5t34 66.5zM235 328h191q6 0 4 7l-95 270q-7 23 -15 0l-88 -270q-3 -7 3 -7zM401 830q-24 0 -181 59q-29 11 -29 17q0 5 11 8q46 13 60 19q13 5 16 5q2 0 4 -2t4.5 -6t6.5 -8
q30 -30 98 -73q19 -13 19 -14q0 -5 -9 -5z" />
    <glyph glyph-name="Aacute" unicode="&#xc1;" horiz-adv-x="700" 
d="M95 107l227 621q14 39 22 39t22 -36l233 -603q40 -98 86 -111q18 -6 40 -6q10 0 10 -6q0 -8 -20 -8q-88 0 -157 2q-30 2 -30 7t7 7q14 5 6 27l-93 246q-3 6 -9 6h-215q-7 0 -10 -8l-60 -177q-14 -39 -14 -67q0 -14 11.5 -21.5t26.5 -7.5h10q10 0 10 -6q0 -8 -15 -8
q-14 0 -44 1.5t-34 1.5q-1 0 -43 -1.5t-70 -1.5q-19 0 -19 8q0 6 9 6q13 0 29 2q32 4 50 27.5t34 66.5zM235 328h191q6 0 4 7l-95 270q-7 23 -15 0l-88 -270q-3 -7 3 -7zM478 933q4 -5 25 -44q7 -12 -4 -12l-5 1h-10.5t-14.5 -1q-70 -7 -152 -42q-12 -5 -15 -5q-5 0 -5 6
q0 4 7 8q59 41 136 85q22 13 28 13q4 0 10 -9z" />
    <glyph glyph-name="Acircumflex" unicode="&#xc2;" horiz-adv-x="700" 
d="M95 107l227 621q14 39 22 39t22 -36l233 -603q40 -98 86 -111q18 -6 40 -6q10 0 10 -6q0 -8 -20 -8q-88 0 -157 2q-30 2 -30 7t7 7q14 5 6 27l-93 246q-3 6 -9 6h-215q-7 0 -10 -8l-60 -177q-14 -39 -14 -67q0 -14 11.5 -21.5t26.5 -7.5h10q10 0 10 -6q0 -8 -15 -8
q-14 0 -44 1.5t-34 1.5q-1 0 -43 -1.5t-70 -1.5q-19 0 -19 8q0 6 9 6q13 0 29 2q32 4 50 27.5t34 66.5zM235 328h191q6 0 4 7l-95 270q-7 23 -15 0l-88 -270q-3 -7 3 -7zM477 845l-21 -22q-6 -6 -9 -6q-4 0 -8 5q-14 15 -43.5 39t-40.5 30q-8 4 -10 4q-6 0 -16 -5
q-25 -13 -85 -63q-11 -10 -18 -10t-7 8q0 3 6 11q24 24 112 104q11 10 16 10q3 0 16 -10l101 -76q12 -8 12 -10q0 -1 -5 -9z" />
    <glyph glyph-name="Atilde" unicode="&#xc3;" horiz-adv-x="700" 
d="M95 107l227 621q14 39 22 39t22 -36l233 -603q40 -98 86 -111q18 -6 40 -6q10 0 10 -6q0 -8 -20 -8q-88 0 -157 2q-30 2 -30 7t7 7q14 5 6 27l-93 246q-3 6 -9 6h-215q-7 0 -10 -8l-60 -177q-14 -39 -14 -67q0 -14 11.5 -21.5t26.5 -7.5h10q10 0 10 -6q0 -8 -15 -8
q-14 0 -44 1.5t-34 1.5q-1 0 -43 -1.5t-70 -1.5q-19 0 -19 8q0 6 9 6q13 0 29 2q32 4 50 27.5t34 66.5zM235 328h191q6 0 4 7l-95 270q-7 23 -15 0l-88 -270q-3 -7 3 -7zM421 830q-27 0 -79 26l-13.5 7t-16 8t-17 5.5t-21.5 2.5q-30 0 -61 -36q-8 -9 -14 -9t-6 6q0 4 7 15
q15 23 40 47t46 24q20 0 84 -31q34 -17 58 -17q39 0 61 29q7 11 12 11q7 0 7 -6q0 -5 -4 -13q-9 -17 -36 -43t-47 -26z" />
    <glyph glyph-name="Adieresis" unicode="&#xc4;" horiz-adv-x="700" 
d="M95 107l227 621q14 39 22 39t22 -36l233 -603q40 -98 86 -111q18 -6 40 -6q10 0 10 -6q0 -8 -20 -8q-88 0 -157 2q-30 2 -30 7t7 7q14 5 6 27l-93 246q-3 6 -9 6h-215q-7 0 -10 -8l-60 -177q-14 -39 -14 -67q0 -14 11.5 -21.5t26.5 -7.5h10q10 0 10 -6q0 -8 -15 -8
q-14 0 -44 1.5t-34 1.5q-1 0 -43 -1.5t-70 -1.5q-19 0 -19 8q0 6 9 6q13 0 29 2q32 4 50 27.5t34 66.5zM235 328h191q6 0 4 7l-95 270q-7 23 -15 0l-88 -270q-3 -7 3 -7zM450 830q-21 0 -31.5 13t-10.5 30q0 16 11 29.5t32 13.5q19 0 31 -11t12 -29q0 -20 -12 -33t-32 -13z
M249 830q-21 0 -31.5 13t-10.5 30q0 16 11 29.5t32 13.5q19 0 31 -11t12 -29q0 -20 -12 -33t-32 -13z" />
    <glyph glyph-name="Aring" unicode="&#xc5;" horiz-adv-x="700" 
d="M95 107l227 621q14 39 22 39t22 -36l233 -603q40 -98 86 -111q18 -6 40 -6q10 0 10 -6q0 -8 -20 -8q-88 0 -157 2q-30 2 -30 7t7 7q14 5 6 27l-93 246q-3 6 -9 6h-215q-7 0 -10 -8l-60 -177q-14 -39 -14 -67q0 -14 11.5 -21.5t26.5 -7.5h10q10 0 10 -6q0 -8 -15 -8
q-14 0 -44 1.5t-34 1.5q-1 0 -43 -1.5t-70 -1.5q-19 0 -19 8q0 6 9 6q13 0 29 2q32 4 50 27.5t34 66.5zM235 328h191q6 0 4 7l-95 270q-7 23 -15 0l-88 -270q-3 -7 3 -7zM329 820q-37 0 -57.5 16.5t-20.5 42.5q0 35 33.5 60.5t84.5 25.5q38 0 60 -15.5t22 -41.5
q1 -39 -37 -63.5t-85 -24.5zM345 844q25 0 42 15t17 36q0 19 -13 32.5t-39 13.5q-20 0 -38.5 -13t-18.5 -36q0 -21 15.5 -34.5t34.5 -13.5z" />
    <glyph glyph-name="AE" unicode="&#xc6;" horiz-adv-x="912" 
d="M473 341h-176q-13 0 -18 -7q-28 -38 -114 -185q-43 -71 -43 -101q0 -21 20 -29q21 -8 44 -8q12 0 12 -7t-17 -7q-25 0 -53.5 0.5t-48.5 1.5t-23 1q-2 0 -20.5 -1t-45 -1.5t-47.5 -0.5q-13 0 -13 8q0 6 11 6q22 0 42 10q30 15 50.5 37t54.5 70q34 47 367 569q18 28 22 42
q3 14 13 14q2 0 7 -0.5t8 -0.5q10 -2 17 -2q206 0 229 1q29 2 43 5q2 0 6.5 2.5t7.5 2.5q4 0 4 -9q0 -3 -1.5 -8.5t-3.5 -16t-3 -22.5q0 -2 -2 -30.5t-3 -35.5q-2 -11 -7 -11q-8 0 -8 13q0 22 -6 36t-20 22t-51 12q-26 3 -137 3q-6 0 -6 -10v-317q0 -10 6 -10q136 0 159 2
q37 3 47 14q11 13 15 13q5 0 5 -8q0 -2 -1.5 -9t-3.5 -20t-3 -27q-4 -40 -4 -57q0 -16 -7 -16q-6 0 -8 11q0 13 -3 24q-9 30 -59 35q-20 2 -136 2q-7 0 -7 -9v-45v-172q2 -52 22.5 -66.5t93.5 -14.5q70 0 96 11q19 8 29.5 24t15.5 47q3 15 9 15t6 -15q0 -7 -5 -44.5
t-8 -51.5q-5 -19 -14 -22.5t-40 -3.5q-52 0 -169 3q-58 3 -78 3q-1 0 -14.5 -0.5t-24.5 -0.5q-38 -2 -55 -2q-16 0 -16 8q0 6 8 6q10 0 28 4q22 4 29 55q5 42 5 217v46q0 8 -9 8zM482 385v270q0 3 -1.5 4t-3.5 0t-4 -4q-14 -21 -86 -139t-78 -130q-5 -9 4 -9h160q9 0 9 8z
" />
    <glyph glyph-name="Ccedilla" unicode="&#xc7;" horiz-adv-x="805" 
d="M154 395q0 -148 102.5 -257t258.5 -109q125 0 174 50q28 29 37 84q3 15 10 15t7 -15q0 -8 -7.5 -57t-14.5 -71q-4 -14 -8 -18.5t-18 -10.5q-57 -23 -180 -23q-15 0 -22 1q-23 -19 -56 -52q100 -10 100 -71q0 -27 -21 -48.5t-50 -33.5q-40 -18 -78 -18q-13 0 -13 8
q0 9 20 11q29 3 51.5 19.5t22.5 41.5q0 52 -72 73q-15 4 -15 9q0 4 13 14l59 49q-164 11 -269 105q-121 109 -121 296q0 63 26 138t86 135q107 107 305 107q80 0 145 -12q71 -13 102 -15q13 -1 13 -11q0 -3 -1 -9.5t-2 -19t-2 -27.5q-1 -18 -2 -57.5t-1 -45.5q-1 -21 -9 -21
t-8 21q0 66 -42 102q-28 24 -82.5 40.5t-117.5 16.5q-155 0 -230 -73q-51 -49 -70.5 -112.5t-19.5 -148.5z" />
    <glyph glyph-name="Egrave" unicode="&#xc8;" horiz-adv-x="610" 
d="M178 287v176q0 184 -2 216q-2 27 -10.5 39.5t-32.5 17.5q-12 3 -34 3q-8 0 -8 6q0 8 16 8q50 0 72 -1l41 -2q206 0 229 1q29 2 43 5q2 0 6.5 2.5t7.5 2.5q4 0 4 -9q0 -3 -1.5 -8.5t-3.5 -16t-3 -22.5q0 -2 -2 -30.5t-3 -35.5q-2 -11 -7 -11q-8 0 -8 13q0 22 -6 36t-20 22
t-51 12q-26 3 -137 3q-6 0 -6 -10v-276q0 -10 6 -10q136 0 159 2q37 3 47 14q11 13 15 13q5 0 5 -8q0 -2 -1.5 -9t-3.5 -20t-3 -27q-4 -40 -4 -64q0 -19 -7 -19t-7 9q0 20 -4 33q-9 31 -52 35q-45 5 -143 5q-7 0 -7 -7v-88v-51.5v-76.5v-43q2 -52 22.5 -67t93.5 -15
q70 0 96 11q35 15 45 72q3 15 9 15t6 -15q0 -7 -5 -45t-8 -52q-5 -19 -14 -22.5t-40 -3.5q-52 0 -169 3q-58 3 -78 3q-19 0 -40 -1q-11 0 -31 -1t-27 -1q-16 0 -16 8q0 6 8 6q12 0 30 4q22 4 29 55q5 42 5 217zM375 830q-24 0 -181 59q-29 11 -29 17q0 5 11 8q46 13 60 19
q13 5 16 5q2 0 4 -2t4.5 -6t6.5 -8q30 -30 98 -73q19 -13 19 -14q0 -5 -9 -5z" />
    <glyph glyph-name="Eacute" unicode="&#xc9;" horiz-adv-x="610" 
d="M178 287v176q0 184 -2 216q-2 27 -10.5 39.5t-32.5 17.5q-12 3 -34 3q-8 0 -8 6q0 8 16 8q50 0 72 -1l41 -2q206 0 229 1q29 2 43 5q2 0 6.5 2.5t7.5 2.5q4 0 4 -9q0 -3 -1.5 -8.5t-3.5 -16t-3 -22.5q0 -2 -2 -30.5t-3 -35.5q-2 -11 -7 -11q-8 0 -8 13q0 22 -6 36t-20 22
t-51 12q-26 3 -137 3q-6 0 -6 -10v-276q0 -10 6 -10q136 0 159 2q37 3 47 14q11 13 15 13q5 0 5 -8q0 -2 -1.5 -9t-3.5 -20t-3 -27q-4 -40 -4 -64q0 -19 -7 -19t-7 9q0 20 -4 33q-9 31 -52 35q-45 5 -143 5q-7 0 -7 -7v-88v-51.5v-76.5v-43q2 -52 22.5 -67t93.5 -15
q70 0 96 11q35 15 45 72q3 15 9 15t6 -15q0 -7 -5 -45t-8 -52q-5 -19 -14 -22.5t-40 -3.5q-52 0 -169 3q-58 3 -78 3q-19 0 -40 -1q-11 0 -31 -1t-27 -1q-16 0 -16 8q0 6 8 6q12 0 30 4q22 4 29 55q5 42 5 217zM442 933q4 -5 25 -44q7 -12 -4 -12l-5 1h-10.5t-14.5 -1
q-70 -7 -152 -42q-12 -5 -15 -5q-5 0 -5 6q0 4 7 8q59 41 136 85q22 13 28 13q4 0 10 -9z" />
    <glyph glyph-name="Ecircumflex" unicode="&#xca;" horiz-adv-x="610" 
d="M178 287v176q0 184 -2 216q-2 27 -10.5 39.5t-32.5 17.5q-12 3 -34 3q-8 0 -8 6q0 8 16 8q50 0 72 -1l41 -2q206 0 229 1q29 2 43 5q2 0 6.5 2.5t7.5 2.5q4 0 4 -9q0 -3 -1.5 -8.5t-3.5 -16t-3 -22.5q0 -2 -2 -30.5t-3 -35.5q-2 -11 -7 -11q-8 0 -8 13q0 22 -6 36t-20 22
t-51 12q-26 3 -137 3q-6 0 -6 -10v-276q0 -10 6 -10q136 0 159 2q37 3 47 14q11 13 15 13q5 0 5 -8q0 -2 -1.5 -9t-3.5 -20t-3 -27q-4 -40 -4 -64q0 -19 -7 -19t-7 9q0 20 -4 33q-9 31 -52 35q-45 5 -143 5q-7 0 -7 -7v-88v-51.5v-76.5v-43q2 -52 22.5 -67t93.5 -15
q70 0 96 11q35 15 45 72q3 15 9 15t6 -15q0 -7 -5 -45t-8 -52q-5 -19 -14 -22.5t-40 -3.5q-52 0 -169 3q-58 3 -78 3q-19 0 -40 -1q-11 0 -31 -1t-27 -1q-16 0 -16 8q0 6 8 6q12 0 30 4q22 4 29 55q5 42 5 217zM451 845l-21 -22q-6 -6 -9 -6q-4 0 -8 5q-14 15 -43.5 39
t-40.5 30q-8 4 -10 4q-6 0 -16 -5q-25 -13 -85 -63q-11 -10 -18 -10t-7 8q0 3 6 11q24 24 112 104q11 10 16 10q3 0 16 -10l101 -76q12 -8 12 -10q0 -1 -5 -9z" />
    <glyph glyph-name="Edieresis" unicode="&#xcb;" horiz-adv-x="610" 
d="M178 287v176q0 184 -2 216q-2 27 -10.5 39.5t-32.5 17.5q-12 3 -34 3q-8 0 -8 6q0 8 16 8q50 0 72 -1l41 -2q206 0 229 1q29 2 43 5q2 0 6.5 2.5t7.5 2.5q4 0 4 -9q0 -3 -1.5 -8.5t-3.5 -16t-3 -22.5q0 -2 -2 -30.5t-3 -35.5q-2 -11 -7 -11q-8 0 -8 13q0 22 -6 36t-20 22
t-51 12q-26 3 -137 3q-6 0 -6 -10v-276q0 -10 6 -10q136 0 159 2q37 3 47 14q11 13 15 13q5 0 5 -8q0 -2 -1.5 -9t-3.5 -20t-3 -27q-4 -40 -4 -64q0 -19 -7 -19t-7 9q0 20 -4 33q-9 31 -52 35q-45 5 -143 5q-7 0 -7 -7v-88v-51.5v-76.5v-43q2 -52 22.5 -67t93.5 -15
q70 0 96 11q35 15 45 72q3 15 9 15t6 -15q0 -7 -5 -45t-8 -52q-5 -19 -14 -22.5t-40 -3.5q-52 0 -169 3q-58 3 -78 3q-19 0 -40 -1q-11 0 -31 -1t-27 -1q-16 0 -16 8q0 6 8 6q12 0 30 4q22 4 29 55q5 42 5 217zM424 830q-21 0 -31.5 13t-10.5 30q0 16 11 29.5t32 13.5
q19 0 31 -11t12 -29q0 -20 -12 -33t-32 -13zM223 830q-21 0 -31.5 13t-10.5 30q0 16 11 29.5t32 13.5q19 0 31 -11t12 -29q0 -20 -12 -33t-32 -13z" />
    <glyph glyph-name="Igrave" unicode="&#xcc;" horiz-adv-x="440" 
d="M262 463v-176q0 -175 5 -217q3 -25 10.5 -38.5t28.5 -16.5q28 -4 45 -4q8 0 8 -6q0 -8 -16 -8q-24 0 -53.5 0.5t-49 1.5t-20.5 1t-19.5 -1t-42 -1.5t-36.5 -0.5q-16 0 -16 8q0 6 8 6q12 0 30 4q22 4 29 55q5 42 5 217v176q0 184 -2 216q-3 49 -34 56q-15 4 -31 4
q-8 0 -8 6q0 8 16 8q15 0 39 -0.5t42.5 -1.5t19.5 -1t19.5 1t42 1.5t36.5 0.5q16 0 16 -8q0 -6 -8 -6q-7 0 -25 -3q-20 -4 -27.5 -17t-9.5 -40q-2 -32 -2 -216zM271 830q-24 0 -181 59q-29 11 -29 17q0 5 11 8q46 13 60 19q13 5 16 5q2 0 4 -2t4.5 -6t6.5 -8q30 -30 98 -73
q19 -13 19 -14q0 -5 -9 -5z" />
    <glyph glyph-name="Iacute" unicode="&#xcd;" horiz-adv-x="440" 
d="M262 463v-176q0 -175 5 -217q3 -25 10.5 -38.5t28.5 -16.5q28 -4 45 -4q8 0 8 -6q0 -8 -16 -8q-24 0 -53.5 0.5t-49 1.5t-20.5 1t-19.5 -1t-42 -1.5t-36.5 -0.5q-16 0 -16 8q0 6 8 6q12 0 30 4q22 4 29 55q5 42 5 217v176q0 184 -2 216q-3 49 -34 56q-15 4 -31 4
q-8 0 -8 6q0 8 16 8q15 0 39 -0.5t42.5 -1.5t19.5 -1t19.5 1t42 1.5t36.5 0.5q16 0 16 -8q0 -6 -8 -6q-7 0 -25 -3q-20 -4 -27.5 -17t-9.5 -40q-2 -32 -2 -216zM348 933q4 -5 25 -44q7 -12 -4 -12l-5 1h-10.5t-14.5 -1q-70 -7 -152 -42q-12 -5 -15 -5q-5 0 -5 6q0 4 7 8
q59 41 136 85q22 13 28 13q4 0 10 -9z" />
    <glyph glyph-name="Icircumflex" unicode="&#xce;" horiz-adv-x="440" 
d="M262 463v-176q0 -175 5 -217q3 -25 10.5 -38.5t28.5 -16.5q28 -4 45 -4q8 0 8 -6q0 -8 -16 -8q-24 0 -53.5 0.5t-49 1.5t-20.5 1t-19.5 -1t-42 -1.5t-36.5 -0.5q-16 0 -16 8q0 6 8 6q12 0 30 4q22 4 29 55q5 42 5 217v176q0 184 -2 216q-3 49 -34 56q-15 4 -31 4
q-8 0 -8 6q0 8 16 8q15 0 39 -0.5t42.5 -1.5t19.5 -1t19.5 1t42 1.5t36.5 0.5q16 0 16 -8q0 -6 -8 -6q-7 0 -25 -3q-20 -4 -27.5 -17t-9.5 -40q-2 -32 -2 -216zM347 845l-21 -22q-6 -6 -9 -6q-4 0 -8 5q-14 15 -43.5 39t-40.5 30q-8 4 -10 4q-6 0 -16 -5q-25 -13 -85 -63
q-11 -10 -18 -10t-7 8q0 3 6 11q24 24 112 104q11 10 16 10q3 0 16 -10l101 -76q12 -8 12 -10q0 -1 -5 -9z" />
    <glyph glyph-name="Idieresis" unicode="&#xcf;" horiz-adv-x="440" 
d="M262 463v-176q0 -175 5 -217q3 -25 10.5 -38.5t28.5 -16.5q28 -4 45 -4q8 0 8 -6q0 -8 -16 -8q-24 0 -53.5 0.5t-49 1.5t-20.5 1t-19.5 -1t-42 -1.5t-36.5 -0.5q-16 0 -16 8q0 6 8 6q12 0 30 4q22 4 29 55q5 42 5 217v176q0 184 -2 216q-3 49 -34 56q-15 4 -31 4
q-8 0 -8 6q0 8 16 8q15 0 39 -0.5t42.5 -1.5t19.5 -1t19.5 1t42 1.5t36.5 0.5q16 0 16 -8q0 -6 -8 -6q-7 0 -25 -3q-20 -4 -27.5 -17t-9.5 -40q-2 -32 -2 -216zM320 830q-21 0 -31.5 13t-10.5 30q0 16 11 29.5t32 13.5q19 0 31 -11t12 -29q0 -20 -12 -33t-32 -13zM119 830
q-21 0 -31.5 13t-10.5 30q0 16 11 29.5t32 13.5q19 0 31 -11t12 -29q0 -20 -12 -33t-32 -13z" />
    <glyph glyph-name="Eth" unicode="&#xd0;" horiz-adv-x="917" 
d="M178 397v66q0 184 -2 216q-2 27 -10.5 39.5t-32.5 17.5q-12 3 -34 3q-8 0 -8 6q0 8 16 8q20 0 47 -0.5t46 -1.5t20 -1l50 2q49 1 85 1h19q44 0 70 -0.5t75 -6.5t85 -17t78 -34t74 -56q97 -101 97 -254q0 -168 -108 -282q-110 -115 -303 -115q-53 0 -139 6
q-18 1 -38.5 2.5t-31.5 2.5t-13 1q-19 0 -40 -1q-11 0 -31 -1t-27 -1q-16 0 -16 8q0 6 8 6q12 0 30 4q22 4 29 55q5 42 5 217v74h-88q-9 0 -7 11l3 16q3 9 13 9h79zM262 360v-53q0 -137 2 -169q3 -64 11 -76q27 -40 170 -40q145 0 238 93q38 37 59 102.5t21 136.5
q0 151 -96 252q-64 68 -142.5 90.5t-185.5 22.5q-50 0 -64 -7q-12 -5 -12 -20l-1 -294h205q9 0 7 -11l-4 -19q-1 -8 -13 -8h-195z" />
    <glyph glyph-name="Ntilde" unicode="&#xd1;" horiz-adv-x="947" 
d="M192 612l13 -479q1 -61 9.5 -85.5t29.5 -30.5q23 -6 50 -6q8 0 8 -6q0 -8 -18 -8q-25 0 -49.5 0.5t-39.5 1.5t-17 1l-34 -2q-35 -1 -62 -1q-16 0 -16 8q0 6 8 6q23 0 41 6q18 5 24 31t6 96l1 573q0 50 11 50q4 0 9.5 -5t14.5 -15t11 -12q37 -42 318 -343l138.5 -151
t101.5 -110l-11 508q-1 50 -8.5 69.5t-30.5 25.5q-23 5 -49 5q-8 0 -8 7t20 7q27 0 65 -1.5t39 -1.5q2 0 31.5 1.5t53.5 1.5q18 0 18 -7t-11 -7q-12 0 -24 -3q-24 -5 -30.5 -23t-6.5 -66l-2 -586q0 -25 -0.5 -39t-1.5 -21t-2.5 -9t-4.5 -2q-9 0 -73 64l-47 47.5
l-103.5 106.5l-110.5 117zM554 830q-27 0 -79 26l-13.5 7t-16 8t-17 5.5t-21.5 2.5q-7 0 -14 -1.5t-12.5 -4.5l-10 -5.5t-9 -7t-6.5 -7l-5 -6.5l-4 -4q-8 -9 -14 -9t-6 6q0 4 7 15q15 23 40 47t46 24q20 0 84 -31q34 -17 58 -17q39 0 61 29q7 11 12 11q7 0 7 -6q0 -5 -4 -13
q-9 -17 -36 -43t-47 -26z" />
    <glyph glyph-name="Ograve" unicode="&#xd2;" horiz-adv-x="915" 
d="M64 376q0 64 23.5 130t69 125.5t124.5 97.5t177 38q172 0 282.5 -101.5t110.5 -273.5t-111 -290.5t-288 -118.5q-79 0 -145 23.5t-110 62.5t-75 91t-44.5 106t-13.5 110zM159 404q0 -172 91 -277.5t229 -105.5q31 0 63.5 7.5t72 30t69.5 58.5t50.5 100t20.5 147
q0 172 -89 270.5t-215 98.5q-130 0 -211 -85t-81 -244zM508 830q-24 0 -181 59q-29 11 -29 17q0 5 11 8q46 13 60 19q13 5 16 5q2 0 4 -2t4.5 -6t6.5 -8q30 -30 98 -73q19 -13 19 -14q0 -5 -9 -5z" />
    <glyph glyph-name="Oacute" unicode="&#xd3;" horiz-adv-x="915" 
d="M64 376q0 64 23.5 130t69 125.5t124.5 97.5t177 38q172 0 282.5 -101.5t110.5 -273.5t-111 -290.5t-288 -118.5q-79 0 -145 23.5t-110 62.5t-75 91t-44.5 106t-13.5 110zM159 404q0 -172 91 -277.5t229 -105.5q31 0 63.5 7.5t72 30t69.5 58.5t50.5 100t20.5 147
q0 172 -89 270.5t-215 98.5q-130 0 -211 -85t-81 -244zM585 933q4 -5 25 -44q7 -12 -4 -12h-30q-70 -7 -152 -42q-12 -5 -15 -5q-5 0 -5 6q0 4 7 8q59 41 136 85q22 13 28 13q4 0 10 -9z" />
    <glyph glyph-name="Ocircumflex" unicode="&#xd4;" horiz-adv-x="915" 
d="M64 376q0 64 23.5 130t69 125.5t124.5 97.5t177 38q172 0 282.5 -101.5t110.5 -273.5t-111 -290.5t-288 -118.5q-79 0 -145 23.5t-110 62.5t-75 91t-44.5 106t-13.5 110zM159 404q0 -172 91 -277.5t229 -105.5q31 0 63.5 7.5t72 30t69.5 58.5t50.5 100t20.5 147
q0 172 -89 270.5t-215 98.5q-130 0 -211 -85t-81 -244zM584 845l-21 -22q-6 -6 -9 -6q-4 0 -8 5q-14 15 -43.5 39t-40.5 30q-8 4 -10 4q-6 0 -16 -5q-25 -13 -85 -63q-11 -10 -18 -10t-7 8q0 3 6 11q24 24 112 104q11 10 16 10q3 0 16 -10l101 -76q12 -8 12 -10q0 -1 -5 -9z
" />
    <glyph glyph-name="Otilde" unicode="&#xd5;" horiz-adv-x="915" 
d="M64 376q0 64 23.5 130t69 125.5t124.5 97.5t177 38q172 0 282.5 -101.5t110.5 -273.5t-111 -290.5t-288 -118.5q-79 0 -145 23.5t-110 62.5t-75 91t-44.5 106t-13.5 110zM159 404q0 -172 91 -277.5t229 -105.5q31 0 63.5 7.5t72 30t69.5 58.5t50.5 100t20.5 147
q0 172 -89 270.5t-215 98.5q-130 0 -211 -85t-81 -244zM528 830q-27 0 -79 26l-13.5 7t-16 8t-17 5.5t-21.5 2.5q-7 0 -14 -1.5t-12.5 -4.5l-10 -5.5t-9 -7t-6.5 -7l-5 -6.5l-4 -4q-8 -9 -14 -9t-6 6q0 4 7 15q15 23 40 47t46 24q20 0 84 -31q34 -17 58 -17q39 0 61 29
q7 11 12 11q7 0 7 -6q0 -5 -4 -13q-9 -17 -36 -43t-47 -26z" />
    <glyph glyph-name="Odieresis" unicode="&#xd6;" horiz-adv-x="915" 
d="M64 376q0 64 23.5 130t69 125.5t124.5 97.5t177 38q172 0 282.5 -101.5t110.5 -273.5t-111 -290.5t-288 -118.5q-79 0 -145 23.5t-110 62.5t-75 91t-44.5 106t-13.5 110zM159 404q0 -172 91 -277.5t229 -105.5q31 0 63.5 7.5t72 30t69.5 58.5t50.5 100t20.5 147
q0 172 -89 270.5t-215 98.5q-130 0 -211 -85t-81 -244zM557 830q-21 0 -31.5 13t-10.5 30q0 16 11 29.5t32 13.5q19 0 31 -11t12 -29q0 -20 -12 -33t-32 -13zM356 830q-21 0 -31.5 13t-10.5 30q0 16 11 29.5t32 13.5q19 0 31 -11t12 -29q0 -20 -12 -33t-32 -13z" />
    <glyph glyph-name="multiply" unicode="&#xd7;" horiz-adv-x="510" 
d="M56 430l36 37l162 -167l163 167l38 -37l-163 -167l163 -166l-37 -37l-163 166l-162 -166l-38 37l163 166z" />
    <glyph glyph-name="Oslash" unicode="&#xd8;" horiz-adv-x="915" 
d="M202 66l-87 -93q-4 -6 -10 0l-20 19q-6 6 -2 10l87 94q-53 55 -79.5 129t-26.5 151q0 64 23.5 130t69 125.5t124.5 97.5t177 38q154 0 258 -82l82 88q5 5 14 -2l20 -16q6 -7 0 -13l-81 -87q100 -102 100 -263q0 -172 -111 -290.5t-288 -118.5q-151 0 -250 83zM695 595
l-441 -473q90 -101 225 -101q31 0 63.5 7.5t72 30t69.5 58.5t50.5 100t20.5 147q0 137 -60 231zM227 157l440 475q-86 101 -217 101q-130 0 -210.5 -85t-80.5 -244q0 -146 68 -247z" />
    <glyph glyph-name="Ugrave" unicode="&#xd9;" horiz-adv-x="830" 
d="M120 317v146q0 184 -2 216q-2 27 -10.5 39.5t-32.5 17.5q-12 3 -34 3q-8 0 -8 6q0 8 16 8q27 0 71 -1l44 -2q2 0 41.5 1.5t57.5 1.5q16 0 16 -8q0 -6 -8 -6q-7 0 -25 -3q-19 -3 -27 -16t-10 -41q-2 -32 -2 -216v-140q0 -100 19.5 -156.5t55.5 -90.5q34 -32 69 -43.5
t82 -11.5q45 0 87.5 19.5t69.5 52.5q58 72 58 245v125q0 184 -2 216q-2 27 -10.5 39.5t-32.5 17.5q-12 3 -34 3q-8 0 -8 6q0 8 16 8q20 0 45 -0.5t42.5 -1.5t18.5 -1t33.5 1.5t50.5 1.5q16 0 16 -8q0 -6 -8 -6q-7 0 -25 -3q-20 -4 -27.5 -17t-9.5 -40q-2 -32 -2 -216v-107
q0 -99 -19 -175t-73 -124q-83 -74 -206 -74q-131 0 -206 71q-87 83 -87 263zM470 830q-24 0 -181 59q-29 11 -29 17q0 5 11 8q46 13 60 19q13 5 16 5q2 0 4 -2t4.5 -6t6.5 -8q30 -30 98 -73q19 -13 19 -14q0 -5 -9 -5z" />
    <glyph glyph-name="Uacute" unicode="&#xda;" horiz-adv-x="830" 
d="M120 317v146q0 184 -2 216q-2 27 -10.5 39.5t-32.5 17.5q-12 3 -34 3q-8 0 -8 6q0 8 16 8q27 0 71 -1l44 -2q2 0 41.5 1.5t57.5 1.5q16 0 16 -8q0 -6 -8 -6q-7 0 -25 -3q-19 -3 -27 -16t-10 -41q-2 -32 -2 -216v-140q0 -100 19.5 -156.5t55.5 -90.5q34 -32 69 -43.5
t82 -11.5q45 0 87.5 19.5t69.5 52.5q58 72 58 245v125q0 184 -2 216q-2 27 -10.5 39.5t-32.5 17.5q-12 3 -34 3q-8 0 -8 6q0 8 16 8q20 0 45 -0.5t42.5 -1.5t18.5 -1t33.5 1.5t50.5 1.5q16 0 16 -8q0 -6 -8 -6q-7 0 -25 -3q-20 -4 -27.5 -17t-9.5 -40q-2 -32 -2 -216v-107
q0 -99 -19 -175t-73 -124q-83 -74 -206 -74q-131 0 -206 71q-87 83 -87 263zM562 933q4 -5 25 -44q7 -12 -4 -12h-30q-70 -7 -152 -42q-12 -5 -15 -5q-5 0 -5 6q0 4 7 8q59 41 136 85q22 13 28 13q4 0 10 -9z" />
    <glyph glyph-name="Ucircumflex" unicode="&#xdb;" horiz-adv-x="830" 
d="M120 317v146q0 184 -2 216q-2 27 -10.5 39.5t-32.5 17.5q-12 3 -34 3q-8 0 -8 6q0 8 16 8q27 0 71 -1l44 -2q2 0 41.5 1.5t57.5 1.5q16 0 16 -8q0 -6 -8 -6q-7 0 -25 -3q-19 -3 -27 -16t-10 -41q-2 -32 -2 -216v-140q0 -100 19.5 -156.5t55.5 -90.5q34 -32 69 -43.5
t82 -11.5q45 0 87.5 19.5t69.5 52.5q58 72 58 245v125q0 184 -2 216q-2 27 -10.5 39.5t-32.5 17.5q-12 3 -34 3q-8 0 -8 6q0 8 16 8q20 0 45 -0.5t42.5 -1.5t18.5 -1t33.5 1.5t50.5 1.5q16 0 16 -8q0 -6 -8 -6q-7 0 -25 -3q-20 -4 -27.5 -17t-9.5 -40q-2 -32 -2 -216v-107
q0 -99 -19 -175t-73 -124q-83 -74 -206 -74q-131 0 -206 71q-87 83 -87 263zM556 845l-21 -22q-6 -6 -9 -6q-4 0 -8 5q-14 15 -43.5 39t-40.5 30q-8 4 -10 4q-6 0 -16 -5q-25 -13 -85 -63q-11 -10 -18 -10t-7 8q0 3 6 11q24 24 112 104q11 10 16 10q3 0 16 -10l101 -76
q12 -8 12 -10q0 -1 -5 -9z" />
    <glyph glyph-name="Udieresis" unicode="&#xdc;" horiz-adv-x="830" 
d="M120 317v146q0 184 -2 216q-2 27 -10.5 39.5t-32.5 17.5q-12 3 -34 3q-8 0 -8 6q0 8 16 8q27 0 71 -1l44 -2q2 0 41.5 1.5t57.5 1.5q16 0 16 -8q0 -6 -8 -6q-7 0 -25 -3q-19 -3 -27 -16t-10 -41q-2 -32 -2 -216v-140q0 -100 19.5 -156.5t55.5 -90.5q34 -32 69 -43.5
t82 -11.5q45 0 87.5 19.5t69.5 52.5q58 72 58 245v125q0 184 -2 216q-2 27 -10.5 39.5t-32.5 17.5q-12 3 -34 3q-8 0 -8 6q0 8 16 8q20 0 45 -0.5t42.5 -1.5t18.5 -1t33.5 1.5t50.5 1.5q16 0 16 -8q0 -6 -8 -6q-7 0 -25 -3q-20 -4 -27.5 -17t-9.5 -40q-2 -32 -2 -216v-107
q0 -99 -19 -175t-73 -124q-83 -74 -206 -74q-131 0 -206 71q-87 83 -87 263zM534 830q-21 0 -31.5 13t-10.5 30q0 16 11 29.5t32 13.5q19 0 31 -11t12 -29q0 -20 -12 -33t-32 -13zM333 830q-21 0 -31.5 13t-10.5 30q0 16 11 29.5t32 13.5q19 0 31 -11t12 -29q0 -20 -12 -33
t-32 -13z" />
    <glyph glyph-name="Yacute" unicode="&#xdd;" horiz-adv-x="654" 
d="M289 170v86q0 54 -23 105q-5 12 -77.5 131t-98.5 157q-35 52 -68 74q-24 16 -43 16q-10 0 -10 7t13 7q11 0 54.5 -1.5t44.5 -1.5q2 0 15 1t32.5 1.5t36.5 0.5q13 0 13 -7q0 -2 -15 -9q-13 -7 -13 -18q0 -15 13 -39l92 -159t92 -157q12 27 77.5 141.5l88.5 152.5
q17 27 17 51t-16 28q-15 5 -15 10q0 6 16 6q15 0 39.5 -1.5t26.5 -1.5q1 0 43.5 1.5t53.5 1.5q13 0 13 -6q0 -8 -13 -8q-24 0 -46 -14q-22 -13 -53 -51q-24 -29 -100.5 -157t-90.5 -161q-15 -36 -15 -100v-86q0 -58 3 -100q3 -50 41 -55q28 -4 45 -4q8 0 8 -6q0 -8 -16 -8
q-24 0 -53.5 0.5t-49 1.5t-20.5 1t-19.5 -1t-42 -1.5t-36.5 -0.5q-16 0 -16 8q0 6 8 6q12 0 30 4q28 6 31 55q3 42 3 100zM484 933q4 -5 25 -44q7 -12 -4 -12l-5 1h-10.5t-14.5 -1q-70 -7 -152 -42q-12 -5 -15 -5q-5 0 -5 6q0 4 7 8q59 41 136 85q22 13 28 13q4 0 10 -9z
" />
    <glyph glyph-name="Thorn" unicode="&#xde;" horiz-adv-x="647" 
d="M178 287v176q0 184 -2 216q-2 27 -10.5 39.5t-32.5 17.5q-12 3 -34 3q-8 0 -8 6q0 8 16 8q20 0 46 -0.5t45.5 -1.5t21.5 -1q1 0 20.5 1t47.5 1.5t50 0.5q16 0 16 -7t-8 -7q-11 0 -39 -4q-43 -8 -45 -53q-2 -84 -2 -94q58 4 87 4q121 0 186 -57q19 -17 34 -49.5t15 -68.5
q0 -106 -69.5 -172t-176.5 -66q-16 0 -21 1q-11 0 -11 7q0 9 27 9q73 0 123 47t50 116q0 97 -56 154q-49 50 -137 50q-29 0 -43 -6q-8 -3 -8 -19v-251q0 -175 5 -217q3 -25 10.5 -38.5t28.5 -16.5q28 -4 45 -4q8 0 8 -6q0 -8 -16 -8q-24 0 -53.5 0.5t-49 1.5t-20.5 1l-18 -1
q-18 -1 -41.5 -1.5t-36.5 -0.5q-16 0 -16 8q0 6 8 6q12 0 30 4q22 4 29 55q5 42 5 217z" />
    <glyph glyph-name="germandbls" unicode="&#xdf;" horiz-adv-x="1048" 
d="M209 -14q-79 0 -128 23q-9 4 -11 9.5t-2 22.5q0 20 5 90q0 14 7 14q8 0 8 -10q0 -19 3 -31q10 -43 49.5 -63.5t89.5 -20.5q63 0 97.5 31.5t34.5 81.5q0 43 -23.5 71.5t-87.5 76.5l-40 30q-69 52 -97.5 94t-28.5 88q0 74 53.5 117t141.5 43q49 0 91 -10q17 -4 31 -4
q9 0 9 -6l-1 -11q-1 -11 -2 -32t-1 -47q0 -19 -7 -19q-6 0 -8 11q-2 23 -13 42q-5 8 -14.5 16t-36.5 17t-63 9q-50 0 -83.5 -24.5t-33.5 -67.5q0 -40 24 -69.5t90 -74.5l25 -17q79 -54 111.5 -101.5t32.5 -103.5q0 -92 -82 -145q-46 -30 -140 -30zM733 -14q-79 0 -128 23
q-9 4 -11 9.5t-2 22.5q0 20 5 90q0 14 7 14q8 0 8 -10q0 -19 3 -31q10 -43 49.5 -63.5t89.5 -20.5q63 0 97.5 31.5t34.5 81.5q0 43 -23.5 71.5t-87.5 76.5l-40 30q-69 52 -97.5 94t-28.5 88q0 74 53.5 117t141.5 43q49 0 91 -10q17 -4 31 -4q9 0 9 -6l-1 -11q-1 -11 -2 -32
t-1 -47q0 -19 -7 -19q-6 0 -8 11q-2 23 -13 42q-5 8 -14.5 16t-36.5 17t-63 9q-50 0 -83.5 -24.5t-33.5 -67.5q0 -40 24 -69.5t90 -74.5l25 -17q79 -54 111.5 -101.5t32.5 -103.5q0 -92 -82 -145q-46 -30 -140 -30z" />
    <glyph glyph-name="agrave" unicode="&#xe0;" horiz-adv-x="624" 
d="M82 91l207 532q13 33 21 33q3 0 5 -1t4 -4.5l3.5 -6t4 -9t4.5 -10.5q7 -15 47.5 -115.5l90.5 -223.5l73 -177q15 -35 30 -56t24 -27t21 -10q16 -5 35 -5q11 0 11 -7t-20 -7q-78 0 -139 2q-31 2 -31 6q0 3 6 6q15 6 8 23l-79 195q-2 5 -8 5h-203q-6 0 -9 -7l-50 -136
q-13 -34 -13 -57t30 -23h8q9 0 9 -7t-13 -7q-12 0 -43.5 1.5t-35.5 1.5q-1 0 -34.5 -1.5t-54.5 -1.5q-17 0 -17 7t8 7q12 0 26 2q28 3 43.5 22t30.5 56zM209 269h178q5 0 3 6l-87 233q-7 20 -15 0l-82 -233q-2 -6 3 -6zM363 715q-24 0 -181 59q-29 11 -29 17q0 5 11 8
q46 13 60 19q13 5 16 5q2 0 4 -2t4.5 -6t6.5 -8q30 -30 98 -73q19 -13 19 -14q0 -5 -9 -5z" />
    <glyph glyph-name="aacute" unicode="&#xe1;" horiz-adv-x="624" 
d="M82 91l207 532q13 33 21 33q3 0 5 -1t4 -4.5l3.5 -6t4 -9t4.5 -10.5q7 -15 47.5 -115.5l90.5 -223.5l73 -177q15 -35 30 -56t24 -27t21 -10q16 -5 35 -5q11 0 11 -7t-20 -7q-78 0 -139 2q-31 2 -31 6q0 3 6 6q15 6 8 23l-79 195q-2 5 -8 5h-203q-6 0 -9 -7l-50 -136
q-13 -34 -13 -57t30 -23h8q9 0 9 -7t-13 -7q-12 0 -43.5 1.5t-35.5 1.5q-1 0 -34.5 -1.5t-54.5 -1.5q-17 0 -17 7t8 7q12 0 26 2q28 3 43.5 22t30.5 56zM209 269h178q5 0 3 6l-87 233q-7 20 -15 0l-82 -233q-2 -6 3 -6zM440 818q4 -5 25 -44q7 -12 -4 -12h-5q-4 1 -10.5 1
t-14.5 -1q-70 -7 -152 -42q-12 -5 -15 -5q-5 0 -5 6q0 4 7 8q59 41 136 85q22 13 28 13q4 0 10 -9z" />
    <glyph glyph-name="acircumflex" unicode="&#xe2;" horiz-adv-x="624" 
d="M82 91l207 532q13 33 21 33q3 0 5 -1t4 -4.5l3.5 -6t4 -9t4.5 -10.5q7 -15 47.5 -115.5l90.5 -223.5l73 -177q15 -35 30 -56t24 -27t21 -10q16 -5 35 -5q11 0 11 -7t-20 -7q-78 0 -139 2q-31 2 -31 6q0 3 6 6q15 6 8 23l-79 195q-2 5 -8 5h-203q-6 0 -9 -7l-50 -136
q-13 -34 -13 -57t30 -23h8q9 0 9 -7t-13 -7q-12 0 -43.5 1.5t-35.5 1.5q-1 0 -34.5 -1.5t-54.5 -1.5q-17 0 -17 7t8 7q12 0 26 2q28 3 43.5 22t30.5 56zM209 269h178q5 0 3 6l-87 233q-7 20 -15 0l-82 -233q-2 -6 3 -6zM439 730l-21 -22q-6 -6 -9 -6q-4 0 -8 5
q-14 15 -43.5 39t-40.5 30q-8 4 -10 4q-6 0 -16 -5q-25 -13 -85 -63q-11 -10 -18 -10t-7 8q0 3 6 11q24 24 112 104q11 10 16 10q3 0 16 -10l101 -76q12 -8 12 -10q0 -1 -5 -9z" />
    <glyph glyph-name="atilde" unicode="&#xe3;" horiz-adv-x="624" 
d="M82 91l207 532q13 33 21 33q3 0 5 -1t4 -4.5l3.5 -6t4 -9t4.5 -10.5q7 -15 47.5 -115.5l90.5 -223.5l73 -177q15 -35 30 -56t24 -27t21 -10q16 -5 35 -5q11 0 11 -7t-20 -7q-78 0 -139 2q-31 2 -31 6q0 3 6 6q15 6 8 23l-79 195q-2 5 -8 5h-203q-6 0 -9 -7l-50 -136
q-13 -34 -13 -57t30 -23h8q9 0 9 -7t-13 -7q-12 0 -43.5 1.5t-35.5 1.5q-1 0 -34.5 -1.5t-54.5 -1.5q-17 0 -17 7t8 7q12 0 26 2q28 3 43.5 22t30.5 56zM209 269h178q5 0 3 6l-87 233q-7 20 -15 0l-82 -233q-2 -6 3 -6zM383 715q-27 0 -79 26l-13.5 7t-16 8t-17 5.5
t-21.5 2.5q-30 0 -61 -36q-7 -9 -14 -9q-6 0 -6 6q0 5 7 15q15 23 40 47t46 24q20 0 84 -31q34 -17 58 -17q39 0 61 29q7 11 12 11q7 0 7 -6q0 -5 -4 -13q-9 -17 -36 -43t-47 -26z" />
    <glyph glyph-name="adieresis" unicode="&#xe4;" horiz-adv-x="624" 
d="M82 91l207 532q13 33 21 33q3 0 5 -1t4 -4.5l3.5 -6t4 -9t4.5 -10.5q7 -15 47.5 -115.5l90.5 -223.5l73 -177q15 -35 30 -56t24 -27t21 -10q16 -5 35 -5q11 0 11 -7t-20 -7q-78 0 -139 2q-31 2 -31 6q0 3 6 6q15 6 8 23l-79 195q-2 5 -8 5h-203q-6 0 -9 -7l-50 -136
q-13 -34 -13 -57t30 -23h8q9 0 9 -7t-13 -7q-12 0 -43.5 1.5t-35.5 1.5q-1 0 -34.5 -1.5t-54.5 -1.5q-17 0 -17 7t8 7q12 0 26 2q28 3 43.5 22t30.5 56zM209 269h178q5 0 3 6l-87 233q-7 20 -15 0l-82 -233q-2 -6 3 -6zM412 715q-21 0 -31.5 13t-10.5 30q0 16 11 29.5
t32 13.5q19 0 31 -11t12 -29q0 -20 -12 -33t-32 -13zM211 715q-21 0 -31.5 13t-10.5 30q0 16 11 29.5t32 13.5q19 0 31 -11t12 -29q0 -20 -12 -33t-32 -13z" />
    <glyph glyph-name="aring" unicode="&#xe5;" horiz-adv-x="624" 
d="M82 91l207 532q13 33 21 33q3 0 5 -1t4 -4.5l3.5 -6t4 -9t4.5 -10.5q7 -15 47.5 -115.5l90.5 -223.5l73 -177q15 -35 30 -56t24 -27t21 -10q16 -5 35 -5q11 0 11 -7t-20 -7q-78 0 -139 2q-31 2 -31 6q0 3 6 6q15 6 8 23l-79 195q-2 5 -8 5h-203q-6 0 -9 -7l-50 -136
q-13 -34 -13 -57t30 -23h8q9 0 9 -7t-13 -7q-12 0 -43.5 1.5t-35.5 1.5q-1 0 -34.5 -1.5t-54.5 -1.5q-17 0 -17 7t8 7q12 0 26 2q28 3 43.5 22t30.5 56zM209 269h178q5 0 3 6l-87 233q-7 20 -15 0l-82 -233q-2 -6 3 -6zM291 705q-37 0 -57.5 16.5t-20.5 42.5q0 35 33.5 60.5
t84.5 25.5q38 0 60 -15.5t22 -41.5q1 -39 -37 -63.5t-85 -24.5zM307 729q25 0 42 15t17 36q0 20 -13 33t-39 13q-20 0 -38.5 -13t-18.5 -36q0 -21 15.5 -34.5t34.5 -13.5z" />
    <glyph glyph-name="ae" unicode="&#xe6;" horiz-adv-x="815" 
d="M419 286h-156q-11 0 -15 -6q-18 -23 -99 -153q-39 -62 -39 -86q0 -17 17 -23q19 -7 38 -7q10 0 10 -8q0 -6 -15 -6q-22 0 -47.5 0.5t-43 1.5t-20.5 1q-2 0 -18 -1t-39.5 -1.5t-41.5 -0.5q-12 0 -12 7q0 5 10 5q19 0 37 9q6 3 12 6.5t11.5 8t10 7.5t10 9.5t8.5 9.5
t9.5 11.5t9 11.5l10.5 13l11 14q19 25 323 483q16 24 20 36q3 12 11 12q3 0 13 -1t15 -1h212q21 0 38 5q2 0 6 2t6 2q4 0 4 -8q0 -2 -3 -14t-4 -26q0 -2 -2 -26t-3 -30q-2 -9 -6 -9q-9 0 -9 11q0 17 -5 30q-6 12 -16.5 17t-44.5 9q-23 3 -124 3q-6 0 -6 -9v-265q0 -9 6 -9
q123 0 144 2q35 3 41 11q8 11 13 11q4 0 4 -7q0 -2 -1.5 -7.5t-3 -16.5t-2.5 -23q-3 -26 -3 -49q0 -13 -6 -13q-9 0 -9 13q0 7 -3 16q-6 23 -50 27q-17 2 -124 2q-6 0 -6 -8v-35v-44.5v-67v-37.5q2 -42 21 -52.5t85 -10.5q62 0 85 9q17 7 24.5 19.5t12.5 38.5q3 12 10 12
q6 0 6 -12q0 -7 -4.5 -39t-7.5 -43q-4 -16 -12 -19t-35 -3q-99 0 -154 3q-14 0 -31.5 0.5t-27 1t-15.5 0.5h-12q-12 -1 -22 -1q-32 -2 -48 -2q-14 0 -14 7t7 7q5 0 15 2t12 2q21 4 26 45q4 35 4 184v35q0 7 -8 7zM427 327v230q0 10 -8 0q-11 -16 -74 -116.5t-70 -112.5
q-5 -8 3 -8h141q8 0 8 7z" />
    <glyph glyph-name="ccedilla" unicode="&#xe7;" horiz-adv-x="708" 
d="M418 -13q-40 -36 -59 -55q100 -10 100 -71q0 -27 -21 -48.5t-50 -33.5q-40 -18 -78 -18q-13 0 -13 8q0 9 20 11q29 3 51.5 19.5t22.5 41.5q0 52 -72 73q-15 4 -15 9q0 4 13 14l64 52q-133 14 -219 88q-107 92 -107 252q0 53 23 117t76 115q95 91 268 91q73 0 128 -9
q5 -1 39 -7t51 -7q11 0 11 -9q0 -3 -0.5 -8t-1.5 -16t-2 -24q0 -13 -0.5 -47t-1.5 -40q-1 -18 -10 -18q-7 0 -7 18q0 56 -37 85q-56 47 -173 47q-135 0 -198 -59q-45 -42 -62 -96t-17 -126q0 -126 89.5 -217t227.5 -91q55 0 88 8t57 32q25 25 34 71q3 12 9 12q8 0 8 -12
q0 -6 -7.5 -48t-13.5 -61q-4 -12 -7.5 -16.5t-14.5 -8.5q-49 -19 -159 -19q-23 0 -34 1z" />
    <glyph glyph-name="egrave" unicode="&#xe8;" horiz-adv-x="551" 
d="M155 244v150q0 156 -2 183q-2 24 -8.5 34t-27.5 13q-14 2 -30 2q-7 0 -7 7t14 7q18 0 42 -0.5t41.5 -1t18.5 -0.5h22h49h57.5h52.5h29q9 0 40 5q1 0 5.5 2t6.5 2q4 0 4 -8q0 -2 -3 -14t-4 -26q0 -2 -2 -26t-3 -30q-2 -9 -8 -9q-7 0 -7 11q0 17 -5 30q-5 11 -17 16.5
t-46 9.5q-22 3 -127 3q-5 0 -5 -9v-231q0 -9 5 -9q127 0 147 2q34 3 43 12q11 11 13 11q5 0 5 -7q0 -2 -1.5 -7.5t-3 -16.5t-2.5 -23q-4 -34 -4 -55q0 -16 -8 -16q-6 0 -6 8q0 17 -4 28q-5 21 -45 26q-32 4 -133 4q-6 0 -6 -6v-71v-145q2 -43 21 -55.5t84 -12.5t88 9
q18 8 27 21t13 38q3 13 9 13t6 -13q0 -6 -4.5 -38t-7.5 -44q-4 -16 -12.5 -19t-36.5 -3q-45 0 -153 3q-37 2 -73 2q-19 0 -38 -1q-34 -2 -51 -2q-14 0 -14 7t7 7q5 0 15 2t12 2q8 1 12.5 8.5t6 13.5t4.5 23q5 35 5 184zM346 715q-24 0 -181 59q-29 11 -29 17q0 5 11 8
q46 13 60 19q13 5 16 5q2 0 4 -2t4.5 -6t6.5 -8q30 -30 98 -73q19 -13 19 -14q0 -5 -9 -5z" />
    <glyph glyph-name="eacute" unicode="&#xe9;" horiz-adv-x="551" 
d="M155 244v150q0 156 -2 183q-2 24 -8.5 34t-27.5 13q-14 2 -30 2q-7 0 -7 7t14 7q18 0 42 -0.5t41.5 -1t18.5 -0.5h22h49h57.5h52.5h29q9 0 40 5q1 0 5.5 2t6.5 2q4 0 4 -8q0 -2 -3 -14t-4 -26q0 -2 -2 -26t-3 -30q-2 -9 -8 -9q-7 0 -7 11q0 17 -5 30q-5 11 -17 16.5
t-46 9.5q-22 3 -127 3q-5 0 -5 -9v-231q0 -9 5 -9q127 0 147 2q34 3 43 12q11 11 13 11q5 0 5 -7q0 -2 -1.5 -7.5t-3 -16.5t-2.5 -23q-4 -34 -4 -55q0 -16 -8 -16q-6 0 -6 8q0 17 -4 28q-5 21 -45 26q-32 4 -133 4q-6 0 -6 -6v-71v-145q2 -43 21 -55.5t84 -12.5t88 9
q18 8 27 21t13 38q3 13 9 13t6 -13q0 -6 -4.5 -38t-7.5 -44q-4 -16 -12.5 -19t-36.5 -3q-45 0 -153 3q-37 2 -73 2q-19 0 -38 -1q-34 -2 -51 -2q-14 0 -14 7t7 7q5 0 15 2t12 2q8 1 12.5 8.5t6 13.5t4.5 23q5 35 5 184zM403 818q4 -5 25 -44q7 -12 -4 -12h-30
q-70 -7 -152 -42q-12 -5 -15 -5q-5 0 -5 6q0 4 7 8q59 41 136 85q22 13 28 13q4 0 10 -9z" />
    <glyph glyph-name="ecircumflex" unicode="&#xea;" horiz-adv-x="551" 
d="M155 244v150q0 156 -2 183q-2 24 -8.5 34t-27.5 13q-14 2 -30 2q-7 0 -7 7t14 7q18 0 42 -0.5t41.5 -1t18.5 -0.5h22h49h57.5h52.5h29q9 0 40 5q1 0 5.5 2t6.5 2q4 0 4 -8q0 -2 -3 -14t-4 -26q0 -2 -2 -26t-3 -30q-2 -9 -8 -9q-7 0 -7 11q0 17 -5 30q-5 11 -17 16.5
t-46 9.5q-22 3 -127 3q-5 0 -5 -9v-231q0 -9 5 -9q127 0 147 2q34 3 43 12q11 11 13 11q5 0 5 -7q0 -2 -1.5 -7.5t-3 -16.5t-2.5 -23q-4 -34 -4 -55q0 -16 -8 -16q-6 0 -6 8q0 17 -4 28q-5 21 -45 26q-32 4 -133 4q-6 0 -6 -6v-71v-145q2 -43 21 -55.5t84 -12.5t88 9
q18 8 27 21t13 38q3 13 9 13t6 -13q0 -6 -4.5 -38t-7.5 -44q-4 -16 -12.5 -19t-36.5 -3q-45 0 -153 3q-37 2 -73 2q-19 0 -38 -1q-34 -2 -51 -2q-14 0 -14 7t7 7q5 0 15 2t12 2q8 1 12.5 8.5t6 13.5t4.5 23q5 35 5 184zM412 730l-21 -22q-6 -6 -9 -6q-4 0 -8 5
q-14 15 -43.5 39t-40.5 30q-8 4 -10 4q-6 0 -16 -5q-25 -13 -85 -63q-11 -10 -18 -10t-7 8q0 3 6 11q24 24 112 104q11 10 16 10q3 0 16 -10l101 -76q12 -8 12 -10q0 -1 -5 -9z" />
    <glyph glyph-name="edieresis" unicode="&#xeb;" horiz-adv-x="551" 
d="M155 244v150q0 156 -2 183q-2 24 -8.5 34t-27.5 13q-14 2 -30 2q-7 0 -7 7t14 7q18 0 42 -0.5t41.5 -1t18.5 -0.5h22h49h57.5h52.5h29q9 0 40 5q1 0 5.5 2t6.5 2q4 0 4 -8q0 -2 -3 -14t-4 -26q0 -2 -2 -26t-3 -30q-2 -9 -8 -9q-7 0 -7 11q0 17 -5 30q-5 11 -17 16.5
t-46 9.5q-22 3 -127 3q-5 0 -5 -9v-231q0 -9 5 -9q127 0 147 2q34 3 43 12q11 11 13 11q5 0 5 -7q0 -2 -1.5 -7.5t-3 -16.5t-2.5 -23q-4 -34 -4 -55q0 -16 -8 -16q-6 0 -6 8q0 17 -4 28q-5 21 -45 26q-32 4 -133 4q-6 0 -6 -6v-71v-145q2 -43 21 -55.5t84 -12.5t88 9
q18 8 27 21t13 38q3 13 9 13t6 -13q0 -6 -4.5 -38t-7.5 -44q-4 -16 -12.5 -19t-36.5 -3q-45 0 -153 3q-37 2 -73 2q-19 0 -38 -1q-34 -2 -51 -2q-14 0 -14 7t7 7q5 0 15 2t12 2q8 1 12.5 8.5t6 13.5t4.5 23q5 35 5 184zM375 715q-21 0 -31.5 13t-10.5 30q0 16 11 29.5
t32 13.5q19 0 31 -11t12 -29q0 -20 -12 -33t-32 -13zM174 715q-21 0 -31.5 13t-10.5 30q0 16 11 29.5t32 13.5q19 0 31 -11t12 -29q0 -20 -12 -33t-32 -13z" />
    <glyph glyph-name="igrave" unicode="&#xec;" horiz-adv-x="389" 
d="M235 394v-150q0 -149 4 -184q2 -15 4 -22.5t9 -14t19 -8.5q26 -4 40 -4q7 0 7 -7t-14 -7q-22 0 -48 0.5t-44 1.5l-18 1q-1 0 -17.5 -1t-37 -1.5t-32.5 -0.5q-14 0 -14 7t7 7q11 0 27 4q18 4 23 45q5 44 5 184v150q0 156 -2 183q-3 41 -28 46q-15 3 -27 3q-7 0 -7 7t14 7
q13 0 34 -0.5t37.5 -1t17.5 -0.5t17.5 0.5t37.5 1t33 0.5q14 0 14 -7t-7 -7q-12 0 -22 -2q-17 -4 -23 -13.5t-8 -33.5q-1 -27 -1 -183zM245 715q-24 0 -181 59q-29 11 -29 17q0 5 11 8q46 13 60 19q13 5 16 5q2 0 4 -2t4.5 -6t6.5 -8q30 -30 98 -73q19 -13 19 -14
q0 -5 -9 -5z" />
    <glyph glyph-name="iacute" unicode="&#xed;" horiz-adv-x="389" 
d="M235 394v-150q0 -149 4 -184q2 -15 4 -22.5t9 -14t19 -8.5q26 -4 40 -4q7 0 7 -7t-14 -7q-22 0 -48 0.5t-44 1.5l-18 1q-1 0 -17.5 -1t-37 -1.5t-32.5 -0.5q-14 0 -14 7t7 7q11 0 27 4q18 4 23 45q5 44 5 184v150q0 156 -2 183q-3 41 -28 46q-15 3 -27 3q-7 0 -7 7t14 7
q13 0 34 -0.5t37.5 -1t17.5 -0.5t17.5 0.5t37.5 1t33 0.5q14 0 14 -7t-7 -7q-12 0 -22 -2q-17 -4 -23 -13.5t-8 -33.5q-1 -27 -1 -183zM322 818q4 -5 25 -44q7 -12 -4 -12h-30q-70 -7 -152 -42q-12 -5 -15 -5q-5 0 -5 6q0 4 7 8q59 41 136 85q22 13 28 13q4 0 10 -9z" />
    <glyph glyph-name="icircumflex" unicode="&#xee;" horiz-adv-x="389" 
d="M235 394v-150q0 -149 4 -184q2 -15 4 -22.5t9 -14t19 -8.5q26 -4 40 -4q7 0 7 -7t-14 -7q-22 0 -48 0.5t-44 1.5l-18 1q-1 0 -17.5 -1t-37 -1.5t-32.5 -0.5q-14 0 -14 7t7 7q11 0 27 4q18 4 23 45q5 44 5 184v150q0 156 -2 183q-3 41 -28 46q-15 3 -27 3q-7 0 -7 7t14 7
q13 0 34 -0.5t37.5 -1t17.5 -0.5t17.5 0.5t37.5 1t33 0.5q14 0 14 -7t-7 -7q-12 0 -22 -2q-17 -4 -23 -13.5t-8 -33.5q-1 -27 -1 -183zM321 730l-21 -22q-6 -6 -9 -6q-4 0 -8 5q-14 15 -43.5 39t-40.5 30q-8 4 -10 4q-6 0 -16 -5q-25 -13 -85 -63q-11 -10 -18 -10t-7 8
q0 3 6 11q24 24 112 104q11 10 16 10q3 0 16 -10l101 -76q12 -8 12 -10q0 -1 -5 -9z" />
    <glyph glyph-name="idieresis" unicode="&#xef;" horiz-adv-x="389" 
d="M235 394v-150q0 -149 4 -184q2 -15 4 -22.5t9 -14t19 -8.5q26 -4 40 -4q7 0 7 -7t-14 -7q-22 0 -48 0.5t-44 1.5l-18 1q-1 0 -17.5 -1t-37 -1.5t-32.5 -0.5q-14 0 -14 7t7 7q11 0 27 4q18 4 23 45q5 44 5 184v150q0 156 -2 183q-3 41 -28 46q-15 3 -27 3q-7 0 -7 7t14 7
q13 0 34 -0.5t37.5 -1t17.5 -0.5t17.5 0.5t37.5 1t33 0.5q14 0 14 -7t-7 -7q-12 0 -22 -2q-17 -4 -23 -13.5t-8 -33.5q-1 -27 -1 -183zM294 715q-21 0 -31.5 13t-10.5 30q0 16 11 29.5t32 13.5q19 0 31 -11t12 -29q0 -20 -12 -33t-32 -13zM93 715q-21 0 -31.5 13t-10.5 30
q0 16 11 29.5t32 13.5q19 0 31 -11t12 -29q0 -20 -12 -33t-32 -13z" />
    <glyph glyph-name="eth" unicode="&#xf0;" horiz-adv-x="809" 
d="M155 338v56q0 156 -2 183q-2 24 -8.5 34t-27.5 13q-14 2 -30 2q-7 0 -7 7t14 7q18 0 41.5 -0.5t40.5 -1t18 -0.5q3 0 22.5 0.5t47 1t50.5 0.5q125 0 182 -11q107 -21 171 -86q86 -86 86 -216q0 -142 -95 -239q-95 -98 -267 -98q-27 0 -124 5q-65 5 -73 5h-6
q-5 0 -13 -0.5t-16 -0.5q-36 -2 -52 -2q-14 0 -14 7t7 7q11 0 27 4q8 2 12.5 9t6 13.5t4.5 22.5q5 35 5 184v61h-76q-7 0 -6 9l3 17q1 7 11 7h68zM235 304v-45q0 -128 1 -142q2 -51 10 -61q23 -34 146 -34q126 0 207 78q68 64 68 201q0 130 -82 212q-57 58 -125 76.5
t-162 18.5q-44 0 -52 -6q-11 -4 -11 -17v-246h178q9 0 6 -9l-3 -19q-1 -7 -12 -7h-169z" />
    <glyph glyph-name="ntilde" unicode="&#xf1;" horiz-adv-x="833" 
d="M182 514l10 -401q1 -52 8.5 -72t25.5 -25q20 -5 44 -5q7 0 7 -7t-16 -7q-22 0 -43.5 0.5t-34.5 1.5t-15 1l-30 -2q-31 -1 -55 -1q-14 0 -14 7t7 7q20 0 36 5q16 4 20.5 25t4.5 81v487q0 43 12 43q8 0 34 -26l278 -290l208 -219l-9 426q-1 43 -7 59t-26 20q-21 4 -43 4
q-7 0 -7 8q0 6 17 6q24 0 57.5 -1t34.5 -1q2 0 28 1t47 1q16 0 16 -6q0 -8 -10 -8q-11 0 -21 -2q-21 -4 -26 -18.5t-5 -55.5l-2 -498v-33.5t-1 -18t-2.5 -8t-3.5 -1.5q-10 0 -67 52q-57 51 -229 230q-199 208 -228 241zM487 715q-27 0 -79 26l-13.5 7t-16 8t-17 5.5
t-21.5 2.5q-30 0 -61 -36q-7 -9 -14 -9q-6 0 -6 6q0 5 7 15q15 23 40 47t46 24q20 0 84 -31q34 -17 58 -17q39 0 61 29q7 11 12 11q7 0 7 -6q0 -5 -4 -13q-9 -17 -36 -43t-47 -26z" />
    <glyph glyph-name="ograve" unicode="&#xf2;" horiz-adv-x="808" 
d="M55 320q0 43 12.5 87.5t40.5 88.5t67.5 78.5t99 56t129.5 21.5q152 0 250 -86.5t98 -232.5t-98.5 -246.5t-254.5 -100.5q-86 0 -154.5 30.5t-108.5 80t-60.5 106.5t-20.5 117zM146 343q0 -146 78.5 -234t199.5 -88q27 0 55 6t62.5 25t60 49t43 84t17.5 124
q0 146 -76.5 228.5t-186.5 82.5q-114 0 -183.5 -71t-69.5 -206zM455 715q-24 0 -181 59q-29 11 -29 17q0 5 11 8q46 13 60 19q13 5 16 5q2 0 4 -2t4.5 -6t6.5 -8q30 -30 98 -73q19 -13 19 -14q0 -5 -9 -5z" />
    <glyph glyph-name="oacute" unicode="&#xf3;" horiz-adv-x="808" 
d="M55 320q0 43 12.5 87.5t40.5 88.5t67.5 78.5t99 56t129.5 21.5q152 0 250 -86.5t98 -232.5t-98.5 -246.5t-254.5 -100.5q-86 0 -154.5 30.5t-108.5 80t-60.5 106.5t-20.5 117zM146 343q0 -146 78.5 -234t199.5 -88q27 0 55 6t62.5 25t60 49t43 84t17.5 124
q0 146 -76.5 228.5t-186.5 82.5q-114 0 -183.5 -71t-69.5 -206zM532 818q4 -5 25 -44q7 -12 -4 -12h-30q-70 -7 -152 -42q-12 -5 -15 -5q-5 0 -5 6q0 4 7 8q59 41 136 85q22 13 28 13q4 0 10 -9z" />
    <glyph glyph-name="ocircumflex" unicode="&#xf4;" horiz-adv-x="808" 
d="M55 320q0 43 12.5 87.5t40.5 88.5t67.5 78.5t99 56t129.5 21.5q152 0 250 -86.5t98 -232.5t-98.5 -246.5t-254.5 -100.5q-86 0 -154.5 30.5t-108.5 80t-60.5 106.5t-20.5 117zM146 343q0 -146 78.5 -234t199.5 -88q27 0 55 6t62.5 25t60 49t43 84t17.5 124
q0 146 -76.5 228.5t-186.5 82.5q-114 0 -183.5 -71t-69.5 -206zM531 730l-21 -22q-6 -6 -9 -6q-4 0 -8 5q-14 15 -43.5 39t-40.5 30q-8 4 -10 4q-6 0 -16 -5q-25 -13 -85 -63q-11 -10 -18 -10t-7 8q0 3 6 11q24 24 112 104q11 10 16 10q3 0 16 -10l101 -76q12 -8 12 -10
q0 -1 -5 -9z" />
    <glyph glyph-name="otilde" unicode="&#xf5;" horiz-adv-x="808" 
d="M55 320q0 43 12.5 87.5t40.5 88.5t67.5 78.5t99 56t129.5 21.5q152 0 250 -86.5t98 -232.5t-98.5 -246.5t-254.5 -100.5q-86 0 -154.5 30.5t-108.5 80t-60.5 106.5t-20.5 117zM146 343q0 -146 78.5 -234t199.5 -88q27 0 55 6t62.5 25t60 49t43 84t17.5 124
q0 146 -76.5 228.5t-186.5 82.5q-114 0 -183.5 -71t-69.5 -206zM484 715q-27 0 -79 26l-13.5 7t-16 8t-17 5.5t-21.5 2.5q-7 0 -14 -1.5t-12.5 -4.5l-10 -5.5t-9 -7t-6.5 -7l-5 -6.5l-4 -4q-8 -9 -14 -9t-6 6q0 5 7 15q15 23 40 47t46 24q20 0 84 -31q34 -17 58 -17
q39 0 61 29q7 11 12 11q7 0 7 -6q0 -5 -4 -13q-9 -17 -36 -43t-47 -26z" />
    <glyph glyph-name="odieresis" unicode="&#xf6;" horiz-adv-x="808" 
d="M55 320q0 43 12.5 87.5t40.5 88.5t67.5 78.5t99 56t129.5 21.5q152 0 250 -86.5t98 -232.5t-98.5 -246.5t-254.5 -100.5q-86 0 -154.5 30.5t-108.5 80t-60.5 106.5t-20.5 117zM146 343q0 -146 78.5 -234t199.5 -88q27 0 55 6t62.5 25t60 49t43 84t17.5 124
q0 146 -76.5 228.5t-186.5 82.5q-114 0 -183.5 -71t-69.5 -206zM504 715q-21 0 -31.5 13t-10.5 30q0 16 11 29.5t32 13.5q19 0 31 -11t12 -29q0 -20 -12 -33t-32 -13zM303 715q-21 0 -31.5 13t-10.5 30q0 16 11 29.5t32 13.5q19 0 31 -11t12 -29q0 -20 -12 -33t-32 -13z" />
    <glyph glyph-name="divide" unicode="&#xf7;" horiz-adv-x="510" 
d="M257 370l-1 -1q-21 0 -34.5 14.5t-13.5 35.5q0 22 13.5 36.5t34.5 14.5q22 0 36.5 -14t14.5 -35q1 -22 -13.5 -36.5t-36.5 -14.5zM468 294v-51h-426v51h426zM256 67v-1q-21 0 -34.5 14.5t-13.5 35.5q0 22 13.5 36.5t34.5 14.5q22 0 36.5 -14t14.5 -35q1 -22 -13.5 -36.5
t-37.5 -14.5z" />
    <glyph glyph-name="oslash" unicode="&#xf8;" horiz-adv-x="808" 
d="M179 56l-76 -80q-3 -4 -9 0l-20 17q-6 5 -2 9l77 79q-94 93 -94 239q0 43 12.5 87.5t40.5 88.5t67.5 78.5t98.5 56t129 21.5q136 0 228 -70l73 78q5 6 13 -2l17 -17q6 -5 0 -11l-71 -73q89 -89 89 -224q0 -146 -98 -246.5t-254 -100.5q-135 0 -221 70zM611 505l-384 -400
q77 -84 196 -84q28 0 56 6t62 25.5t59.5 49.5t43 83.5t17.5 123.5q0 118 -50 196zM203 134l383 402q-74 84 -189 84q-114 0 -183 -71.5t-69 -205.5q0 -125 58 -209z" />
    <glyph glyph-name="ugrave" unicode="&#xf9;" horiz-adv-x="732" 
d="M110 269v125q0 156 -2 183q-2 23 -9 33.5t-27 13.5q-14 2 -30 2q-7 0 -7 7t14 7q18 0 41 -0.5t40.5 -1t19.5 -0.5t38 1t51 1t15 -7t-8 -7q-11 0 -22 -2q-16 -3 -22 -13.5t-8 -33.5q-2 -27 -2 -183v-119q0 -86 16.5 -133t48.5 -75q30 -27 60 -36.5t71 -9.5q40 0 76.5 16.5
t59.5 43.5q50 60 50 206v107q0 129 -2 183q-1 22 -8 33t-27 14q-14 2 -30 2q-7 0 -7 7t14 7q17 0 39.5 -0.5t38.5 -1t17 -0.5t30 1t44 1q14 0 14 -7t-7 -7q-11 0 -22 -2q-17 -4 -23 -14t-8 -33q-1 -14 -1 -183v-91q0 -185 -82 -255q-72 -62 -184 -62q-119 0 -183 60
q-77 72 -77 223zM436 715q-24 0 -181 59q-29 11 -29 17q0 5 11 8q46 13 60 19q13 5 16 5q2 0 4 -2t4.5 -6t6.5 -8q30 -30 98 -73q19 -13 19 -14q0 -5 -9 -5z" />
    <glyph glyph-name="uacute" unicode="&#xfa;" horiz-adv-x="732" 
d="M110 269v125q0 156 -2 183q-2 23 -9 33.5t-27 13.5q-14 2 -30 2q-7 0 -7 7t14 7q18 0 41 -0.5t40.5 -1t19.5 -0.5t38 1t51 1t15 -7t-8 -7q-11 0 -22 -2q-16 -3 -22 -13.5t-8 -33.5q-2 -27 -2 -183v-119q0 -86 16.5 -133t48.5 -75q30 -27 60 -36.5t71 -9.5q40 0 76.5 16.5
t59.5 43.5q50 60 50 206v107q0 129 -2 183q-1 22 -8 33t-27 14q-14 2 -30 2q-7 0 -7 7t14 7q17 0 39.5 -0.5t38.5 -1t17 -0.5t30 1t44 1q14 0 14 -7t-7 -7q-11 0 -22 -2q-17 -4 -23 -14t-8 -33q-1 -14 -1 -183v-91q0 -185 -82 -255q-72 -62 -184 -62q-119 0 -183 60
q-77 72 -77 223zM494 818q4 -5 25 -44q7 -12 -4 -12h-30q-70 -7 -152 -42q-12 -5 -15 -5q-5 0 -5 6q0 4 7 8q59 41 136 85q22 13 28 13q4 0 10 -9z" />
    <glyph glyph-name="ucircumflex" unicode="&#xfb;" horiz-adv-x="732" 
d="M110 269v125q0 156 -2 183q-2 23 -9 33.5t-27 13.5q-14 2 -30 2q-7 0 -7 7t14 7q18 0 41 -0.5t40.5 -1t19.5 -0.5t38 1t51 1t15 -7t-8 -7q-11 0 -22 -2q-16 -3 -22 -13.5t-8 -33.5q-2 -27 -2 -183v-119q0 -86 16.5 -133t48.5 -75q30 -27 60 -36.5t71 -9.5q40 0 76.5 16.5
t59.5 43.5q50 60 50 206v107q0 129 -2 183q-1 22 -8 33t-27 14q-14 2 -30 2q-7 0 -7 7t14 7q17 0 39.5 -0.5t38.5 -1t17 -0.5t30 1t44 1q14 0 14 -7t-7 -7q-11 0 -22 -2q-17 -4 -23 -14t-8 -33q-1 -14 -1 -183v-91q0 -185 -82 -255q-72 -62 -184 -62q-119 0 -183 60
q-77 72 -77 223zM493 730l-21 -22q-6 -6 -9 -6q-4 0 -8 5q-14 15 -43.5 39t-40.5 30q-8 4 -10 4q-6 0 -16 -5q-25 -13 -85 -63q-11 -10 -18 -10t-7 8q0 3 6 11q24 24 112 104q11 10 16 10q3 0 16 -10l101 -76q12 -8 12 -10q0 -1 -5 -9z" />
    <glyph glyph-name="udieresis" unicode="&#xfc;" horiz-adv-x="732" 
d="M110 269v125q0 156 -2 183q-2 23 -9 33.5t-27 13.5q-14 2 -30 2q-7 0 -7 7t14 7q18 0 41 -0.5t40.5 -1t19.5 -0.5t38 1t51 1t15 -7t-8 -7q-11 0 -22 -2q-16 -3 -22 -13.5t-8 -33.5q-2 -27 -2 -183v-119q0 -86 16.5 -133t48.5 -75q30 -27 60 -36.5t71 -9.5q40 0 76.5 16.5
t59.5 43.5q50 60 50 206v107q0 129 -2 183q-1 22 -8 33t-27 14q-14 2 -30 2q-7 0 -7 7t14 7q17 0 39.5 -0.5t38.5 -1t17 -0.5t30 1t44 1q14 0 14 -7t-7 -7q-11 0 -22 -2q-17 -4 -23 -14t-8 -33q-1 -14 -1 -183v-91q0 -185 -82 -255q-72 -62 -184 -62q-119 0 -183 60
q-77 72 -77 223zM485 715q-21 0 -31.5 13t-10.5 30q0 16 11 29.5t32 13.5q19 0 31 -11t12 -29q0 -20 -12 -33t-32 -13zM284 715q-21 0 -31.5 13t-10.5 30q0 16 11 29.5t32 13.5q19 0 31 -11t12 -29q0 -20 -12 -33t-32 -13z" />
    <glyph glyph-name="yacute" unicode="&#xfd;" horiz-adv-x="576" 
d="M255 145v73q0 52 -19 87l-70 112.5t-86 134.5q-26 40 -58 62q-20 12 -37 12q-9 0 -9 8q0 6 11 6q10 0 49 -1l38 -1q2 0 14 0.5t29.5 1t32.5 0.5q12 0 12 -6q0 -4 -14 -9q-11 -5 -11 -14q0 -11 12 -33l160 -265q8 16 40 70.5l65.5 110.5t38.5 65q15 26 15 44t-14 22
q-13 3 -13 10q0 5 14 5q13 0 36 -1t25 -1t39 1t47 1q11 0 11 -5q0 -9 -11 -9q-22 0 -41 -11q-18 -11 -44 -42q-20 -24 -88 -132t-83 -138q-5 -11 -8 -23.5t-3.5 -18.5t0 -23.5t0.5 -19.5v-73q0 -50 3 -85q2 -21 9 -31.5t25 -13.5q24 -4 40 -4q7 0 7 -7t-14 -7q-22 0 -48 0.5
t-44 1.5t-19 1t-17.5 -1t-37 -1.5t-31.5 -0.5q-14 0 -14 7t7 7q10 0 26 4q23 5 26 45q2 35 2 85zM416 818q4 -5 25 -44q7 -12 -4 -12h-5q-4 1 -10.5 1t-14.5 -1q-70 -7 -152 -42q-12 -5 -15 -5q-5 0 -5 6q0 4 7 8q59 41 136 85q22 13 28 13q4 0 10 -9z" />
    <glyph glyph-name="thorn" unicode="&#xfe;" horiz-adv-x="586" 
d="M155 244v150q0 156 -2 183q-2 23 -9.5 33.5t-26.5 13.5q-14 2 -30 2q-7 0 -7 7t14 7q18 0 41 -0.5t40 -1t19 -0.5q1 0 18.5 0.5t42.5 1t44 0.5q15 0 15 -6q0 -8 -8 -8q-16 0 -34 -3q-37 -6 -37 -43q-2 -72 -2 -80q34 3 76 3q118 0 175 -49q17 -15 31.5 -44t14.5 -60
q0 -88 -67 -143t-163 -55q-16 0 -21 1q-9 0 -9 6q0 10 23 10q65 0 112 42t47 104q0 73 -49 121q-40 40 -127 40q-18 0 -36 -6q-7 -3 -7 -16v-210q0 -149 4 -184q3 -22 9 -32t25 -13q24 -4 38 -4q7 0 7 -7t-14 -7q-21 0 -47.5 0.5t-44.5 1.5l-18 1q-1 0 -16.5 -1t-36 -1.5
t-32.5 -0.5q-14 0 -14 7t7 7q10 0 26 4q12 3 16 13t8 32q5 35 5 184z" />
    <glyph glyph-name="ydieresis" unicode="&#xff;" horiz-adv-x="576" 
d="M255 145v73q0 52 -19 87l-70 112.5t-86 134.5q-26 40 -58 62q-20 12 -37 12q-9 0 -9 8q0 6 11 6q10 0 49 -1l38 -1q2 0 14 0.5t29.5 1t32.5 0.5q12 0 12 -6q0 -4 -14 -9q-11 -5 -11 -14q0 -11 12 -33l160 -265q8 16 40 70.5l65.5 110.5t38.5 65q15 26 15 44t-14 22
q-13 3 -13 10q0 5 14 5q13 0 36 -1t25 -1t39 1t47 1q11 0 11 -5q0 -9 -11 -9q-22 0 -41 -11q-18 -11 -44 -42q-20 -24 -88 -132t-83 -138q-5 -11 -8 -23.5t-3.5 -18.5t0 -23.5t0.5 -19.5v-73q0 -50 3 -85q2 -21 9 -31.5t25 -13.5q24 -4 40 -4q7 0 7 -7t-14 -7q-22 0 -48 0.5
t-44 1.5t-19 1t-17.5 -1t-37 -1.5t-31.5 -0.5q-14 0 -14 7t7 7q10 0 26 4q23 5 26 45q2 35 2 85zM397 715q-21 0 -31.5 13t-10.5 30q0 16 11 29.5t32 13.5q19 0 31 -11t12 -29q0 -20 -12 -33t-32 -13zM196 715q-21 0 -31.5 13t-10.5 30q0 16 11 29.5t32 13.5q19 0 31 -11
t12 -29q0 -20 -12 -33t-32 -13z" />
    <glyph glyph-name="Amacron" unicode="&#x100;" horiz-adv-x="700" 
d="M95 107l227 621q14 39 22 39t22 -36l233 -603q40 -98 86 -111q18 -6 40 -6q10 0 10 -6q0 -8 -20 -8q-88 0 -157 2q-30 2 -30 7t7 7q14 5 6 27l-93 246q-3 6 -9 6h-215q-7 0 -10 -8l-60 -177q-14 -39 -14 -67q0 -14 11.5 -21.5t26.5 -7.5h10q10 0 10 -6q0 -8 -15 -8
q-14 0 -44 1.5t-34 1.5q-1 0 -43 -1.5t-70 -1.5q-19 0 -19 8q0 6 9 6q13 0 29 2q32 4 50 27.5t34 66.5zM235 328h191q6 0 4 7l-95 270q-7 23 -15 0l-88 -270q-3 -7 3 -7zM238 900h235q12 0 8 -10l-8 -22q-1 -6 -9 -6h-235q-6 0 -8.5 1.5t-1.5 5.5l8 25q1 6 11 6z" />
    <glyph glyph-name="amacron" unicode="&#x101;" horiz-adv-x="624" 
d="M82 91l207 532q13 33 21 33q3 0 5 -1t4 -4.5l3.5 -6t4 -9t4.5 -10.5q7 -15 47.5 -115.5l90.5 -223.5l73 -177q15 -35 30 -56t24 -27t21 -10q16 -5 35 -5q11 0 11 -7t-20 -7q-78 0 -139 2q-31 2 -31 6q0 3 6 6q15 6 8 23l-79 195q-2 5 -8 5h-203q-6 0 -9 -7l-50 -136
q-13 -34 -13 -57t30 -23h8q9 0 9 -7t-13 -7q-12 0 -43.5 1.5t-35.5 1.5q-1 0 -34.5 -1.5t-54.5 -1.5q-17 0 -17 7t8 7q12 0 26 2q28 3 43.5 22t30.5 56zM209 269h178q5 0 3 6l-87 233q-7 20 -15 0l-82 -233q-2 -6 3 -6zM200 785h235q12 0 8 -10l-8 -22q-1 -6 -9 -6h-235
q-6 0 -8.5 1.5t-1.5 5.5l8 25q1 6 11 6z" />
    <glyph glyph-name="Abreve" unicode="&#x102;" horiz-adv-x="700" 
d="M95 107l227 621q14 39 22 39t22 -36l233 -603q40 -98 86 -111q18 -6 40 -6q10 0 10 -6q0 -8 -20 -8q-88 0 -157 2q-30 2 -30 7t7 7q14 5 6 27l-93 246q-3 6 -9 6h-215q-7 0 -10 -8l-60 -177q-14 -39 -14 -67q0 -14 11.5 -21.5t26.5 -7.5h10q10 0 10 -6q0 -8 -15 -8
q-14 0 -44 1.5t-34 1.5q-1 0 -43 -1.5t-70 -1.5q-19 0 -19 8q0 6 9 6q13 0 29 2q32 4 50 27.5t34 66.5zM235 328h191q6 0 4 7l-95 270q-7 23 -15 0l-88 -270q-3 -7 3 -7zM211 919l32 24q7 5 9 5q3 0 4.5 -2.5l4 -6.5l4.5 -7q36 -47 94 -47q51 0 88 29q9 7 17 14t11.5 10.5
t7 5.5t5.5 2q8 0 8 -8t-22 -30.5t-40 -33.5q-47 -29 -101 -29q-52 0 -93 29q-36 26 -36 36q0 4 7 9z" />
    <glyph glyph-name="abreve" unicode="&#x103;" horiz-adv-x="624" 
d="M82 91l207 532q13 33 21 33q3 0 5 -1t4 -4.5l3.5 -6t4 -9t4.5 -10.5q7 -15 47.5 -115.5l90.5 -223.5l73 -177q15 -35 30 -56t24 -27t21 -10q16 -5 35 -5q11 0 11 -7t-20 -7q-78 0 -139 2q-31 2 -31 6q0 3 6 6q15 6 8 23l-79 195q-2 5 -8 5h-203q-6 0 -9 -7l-50 -136
q-13 -34 -13 -57t30 -23h8q9 0 9 -7t-13 -7q-12 0 -43.5 1.5t-35.5 1.5q-1 0 -34.5 -1.5t-54.5 -1.5q-17 0 -17 7t8 7q12 0 26 2q28 3 43.5 22t30.5 56zM209 269h178q5 0 3 6l-87 233q-7 20 -15 0l-82 -233q-2 -6 3 -6zM173 789l32 24q8 5 9 5q3 0 4.5 -2.5l4 -6.5l4.5 -7
q36 -47 94 -47q51 0 88 29q9 7 17 14t11.5 10.5t7 5.5t5.5 2q8 0 8 -8t-22 -30.5t-40 -33.5q-47 -29 -101 -29q-52 0 -93 29q-36 26 -36 36q0 4 7 9z" />
    <glyph glyph-name="Aogonek" unicode="&#x104;" horiz-adv-x="700" 
d="M235 328h191q6 0 4 7l-95 270q-7 23 -15 0l-88 -270q-3 -7 3 -7zM511 -129q0 -23 14.5 -36.5t36.5 -13.5q14 0 29.5 9t26 18t12.5 9q8 0 8 -6q0 -4 -8 -14q-9 -10 -22.5 -21.5t-41.5 -26t-54 -14.5q-38 0 -58.5 19.5t-20.5 50.5q0 66 97 148l4 4q11 10 11 23q0 8 -4 20
l-93 246q-3 6 -9 6h-215q-7 0 -10 -8l-60 -177q-14 -39 -14 -67q0 -14 11.5 -21.5t26.5 -7.5h10q10 0 10 -6q0 -8 -15 -8q-14 0 -44 1.5t-34 1.5q-1 0 -43 -1.5t-70 -1.5q-19 0 -19 8q0 6 9 6q13 0 29 2q32 4 50 27.5t34 66.5l227 621q14 39 22 39t22 -36l233 -603
q40 -98 86 -111q18 -6 40 -6q10 0 10 -6q0 -8 -20 -8q-2 0 -26 1.5t-46.5 2t-46.5 -2t-33 -8.5q-23 -17 -37.5 -54t-14.5 -65z" />
    <glyph glyph-name="aogonek" unicode="&#x105;" horiz-adv-x="624" 
d="M209 269h178q5 0 3 6l-87 233q-7 20 -15 0l-82 -233q-2 -6 3 -6zM464 -129q0 -23 14.5 -36.5t36.5 -13.5q14 0 29.5 9t26 18t12.5 9q8 0 8 -6q0 -4 -8 -14q-9 -10 -22.5 -21.5t-41.5 -26t-54 -14.5q-38 0 -58.5 19.5t-20.5 50.5q0 32 16 60t35.5 44.5t35.5 33.5t16 29
q0 4 1 7t0.5 5.5t-3.5 9.5l-79 195q-2 5 -8 5h-203q-6 0 -9 -7l-50 -136q-13 -34 -13 -57t30 -23h8q9 0 9 -7t-13 -7q-12 0 -43.5 1.5t-35.5 1.5q-1 0 -34.5 -1.5t-54.5 -1.5q-17 0 -17 7t8 7q12 0 26 2q28 3 43.5 22t30.5 56l207 532q13 33 21 33q3 0 5 -1t4 -4.5l3.5 -6
t4 -9t4.5 -10.5q7 -15 47.5 -115.5l90.5 -223.5l73 -177q15 -35 30 -56t24 -27t21 -10q16 -5 35 -5q11 0 11 -7t-20 -7q-1 0 -14 1t-28.5 2t-33.5 0.5t-32.5 -4t-20.5 -9.5q-19 -20 -34.5 -55t-15.5 -61z" />
    <glyph glyph-name="Cacute" unicode="&#x106;" horiz-adv-x="805" 
d="M515 -17q-210 0 -330 108q-121 109 -121 296q0 63 26 138t86 135q107 107 305 107q80 0 145 -12q71 -13 102 -15q13 -1 13 -11q0 -3 -1 -9.5t-2 -19t-2 -27.5q-1 -18 -2 -57.5t-1 -45.5q-1 -21 -9 -21t-8 21q0 66 -42 102q-28 24 -82.5 40.5t-117.5 16.5q-155 0 -230 -73
q-51 -49 -70.5 -112.5t-19.5 -148.5q0 -148 102.5 -257t258.5 -109q125 0 174 50q28 29 37 84q3 15 10 15t7 -15q0 -8 -7.5 -57t-14.5 -71q-4 -14 -8 -18.5t-18 -10.5q-57 -23 -180 -23zM575 933q4 -5 25 -44q7 -12 -4 -12h-30q-70 -7 -152 -42q-12 -5 -15 -5q-5 0 -5 6
q0 4 7 8q59 41 136 85q22 13 28 13q4 0 10 -9z" />
    <glyph glyph-name="cacute" unicode="&#x107;" horiz-adv-x="708" 
d="M452 -14q-185 0 -290 91q-107 92 -107 252q0 53 23 117t76 115q95 91 268 91q67 0 128 -10q67 -12 90 -13q11 0 11 -9q0 -3 -0.5 -8t-1.5 -16t-2 -24q0 -13 -0.5 -47t-1.5 -40q-1 -18 -10 -18q-7 0 -7 18q0 56 -37 85q-56 47 -173 47q-135 0 -198 -59q-45 -42 -62 -96
t-17 -126q0 -126 89.5 -217t227.5 -91q55 0 88 8t57 32q25 25 34 71q3 12 9 12q8 0 8 -12q0 -6 -7.5 -48t-13.5 -61q-4 -12 -7.5 -16.5t-14.5 -8.5q-49 -19 -159 -19zM501 818q4 -5 25 -44q7 -12 -4 -12h-4q-5 1 -11.5 1t-14.5 -1q-70 -7 -152 -42q-12 -5 -15 -5q-5 0 -5 6
q0 4 7 8q59 41 136 85q22 13 28 13q4 0 10 -9z" />
    <glyph glyph-name="Ccaron" unicode="&#x10c;" horiz-adv-x="805" 
d="M515 -17q-210 0 -330 108q-121 109 -121 296q0 63 26 138t86 135q107 107 305 107q80 0 145 -12q71 -13 102 -15q13 -1 13 -11q0 -3 -1 -9.5t-2 -19t-2 -27.5q-1 -18 -2 -57.5t-1 -45.5q-1 -21 -9 -21t-8 21q0 66 -42 102q-28 24 -82.5 40.5t-117.5 16.5q-155 0 -230 -73
q-51 -49 -70.5 -112.5t-19.5 -148.5q0 -148 102.5 -257t258.5 -109q125 0 174 50q28 29 37 84q3 15 10 15t7 -15q0 -8 -7.5 -57t-14.5 -71q-4 -14 -8 -18.5t-18 -10.5q-57 -23 -180 -23zM336 920l21 22q6 6 9 6q4 0 8 -5q15 -16 44.5 -40t39.5 -29q8 -4 10 -4q6 0 16 5
q25 13 85 63q11 10 18 10t7 -8q0 -3 -6 -11q-24 -24 -112 -104q-11 -10 -17 -10q-4 0 -15 10l-101 76q-12 8 -12 10t5 9z" />
    <glyph glyph-name="ccaron" unicode="&#x10d;" horiz-adv-x="708" 
d="M452 -14q-185 0 -290 91q-107 92 -107 252q0 53 23 117t76 115q95 91 268 91q67 0 128 -10q67 -12 90 -13q11 0 11 -9q0 -3 -0.5 -8t-1.5 -16t-2 -24q0 -13 -0.5 -47t-1.5 -40q-1 -18 -10 -18q-7 0 -7 18q0 56 -37 85q-56 47 -173 47q-135 0 -198 -59q-45 -42 -62 -96
t-17 -126q0 -126 89.5 -217t227.5 -91q55 0 88 8t57 32q25 25 34 71q3 12 9 12q8 0 8 -12q0 -6 -7.5 -48t-13.5 -61q-4 -12 -7.5 -16.5t-14.5 -8.5q-49 -19 -159 -19zM287 805l21 22q6 6 9 6q4 0 8 -5q15 -16 44.5 -40t39.5 -29q8 -4 10 -4q6 0 16 5q25 13 85 63
q11 10 18 10t7 -8q0 -3 -6 -11q-24 -24 -112 -104q-11 -10 -17 -10q-4 0 -15 10l-101 76q-12 8 -12 10t5 9z" />
    <glyph glyph-name="Dcaron" unicode="&#x10e;" horiz-adv-x="917" 
d="M178 287v176q0 184 -2 216q-2 27 -10.5 39.5t-32.5 17.5q-12 3 -34 3q-8 0 -8 6q0 8 16 8q20 0 47 -0.5t46 -1.5t20 -1l50 2q49 1 85 1h19q44 0 70 -0.5t75 -6.5t85 -17t78 -34t74 -56q97 -101 97 -254q0 -168 -108 -282q-110 -115 -303 -115q-53 0 -139 6
q-18 1 -38.5 2.5t-31.5 2.5t-13 1q-19 0 -40 -1q-11 0 -31 -1t-27 -1q-16 0 -16 8q0 6 8 6q12 0 30 4q22 4 29 55q5 42 5 217zM262 479v-124q0 -179 2 -217q3 -64 11 -76q27 -40 170 -40q145 0 238 93q38 37 59 102.5t21 136.5q0 151 -96 252q-64 68 -142.5 90.5
t-184.5 22.5q-51 0 -65 -7q-12 -5 -12 -20q-1 -34 -1 -213zM312 920l21 22q6 6 9 6q4 0 8 -5q15 -16 44.5 -40t39.5 -29q8 -4 10 -4q6 0 16 5q25 13 85 63q11 10 18 10t7 -8q0 -3 -6 -11q-24 -24 -112 -104q-11 -10 -17 -10q-4 0 -15 10l-101 76q-12 8 -12 10t5 9z" />
    <glyph glyph-name="dcaron" unicode="&#x10f;" horiz-adv-x="809" 
d="M155 244v150q0 156 -2 183q-2 24 -8.5 34t-27.5 13q-14 2 -30 2q-7 0 -7 7t14 7q18 0 42 -0.5t41.5 -1t18.5 -0.5q3 0 22 0.5t46 1t50 0.5q125 0 182 -11q107 -21 171 -86q86 -86 86 -216q0 -142 -95 -239q-95 -98 -267 -98q-28 0 -123 5q-63 5 -72 5h-6q-5 0 -13.5 -0.5
t-16.5 -0.5q-36 -2 -53 -2q-14 0 -14 7t7 7q11 0 27 4q8 2 12.5 9t6 13.5t4.5 22.5q5 35 5 184zM235 586v-284q0 -169 1 -185q2 -51 10 -61q23 -34 146 -34q124 0 206 77q33 31 51 86t18 116q0 130 -83 213q-57 58 -124.5 76.5t-160.5 18.5q-37 0 -53 -6q-11 -4 -11 -17z
M278 805l21 22q6 6 9 6q4 0 8 -5q15 -16 44.5 -40t39.5 -29q8 -4 10 -4q6 0 16 5q25 13 85 63q11 10 18 10t7 -8q0 -3 -6 -11q-24 -24 -112 -104q-11 -10 -17 -10q-4 0 -15 10l-101 76q-12 8 -12 10t5 9z" />
    <glyph glyph-name="Dcroat" unicode="&#x110;" horiz-adv-x="917" 
d="M178 397v66q0 184 -2 216q-2 27 -10.5 39.5t-32.5 17.5q-12 3 -34 3q-8 0 -8 6q0 8 16 8q20 0 47 -0.5t46 -1.5t20 -1l50 2q49 1 85 1h19q44 0 70 -0.5t75 -6.5t85 -17t78 -34t74 -56q97 -101 97 -254q0 -168 -108 -282q-110 -115 -303 -115q-53 0 -139 6
q-18 1 -38.5 2.5t-31.5 2.5t-13 1q-19 0 -40 -1q-11 0 -31 -1t-27 -1q-16 0 -16 8q0 6 8 6q12 0 30 4q22 4 29 55q5 42 5 217v74h-88q-9 0 -7 11l3 16q3 9 13 9h79zM262 360v-53q0 -137 2 -169q3 -64 11 -76q27 -40 170 -40q145 0 238 93q38 37 59 102.5t21 136.5
q0 151 -96 252q-64 68 -142.5 90.5t-185.5 22.5q-50 0 -64 -7q-12 -5 -12 -20l-1 -294h205q9 0 7 -11l-4 -19q-1 -8 -13 -8h-195z" />
    <glyph glyph-name="dcroat" unicode="&#x111;" horiz-adv-x="809" 
d="M155 338v56q0 156 -2 183q-2 24 -8.5 34t-27.5 13q-14 2 -30 2q-7 0 -7 7t14 7q18 0 41.5 -0.5t40.5 -1t18 -0.5q3 0 22.5 0.5t47 1t50.5 0.5q125 0 182 -11q107 -21 171 -86q86 -86 86 -216q0 -142 -95 -239q-95 -98 -267 -98q-27 0 -124 5q-65 5 -73 5h-6
q-5 0 -13 -0.5t-16 -0.5q-36 -2 -52 -2q-14 0 -14 7t7 7q11 0 27 4q8 2 12.5 9t6 13.5t4.5 22.5q5 35 5 184v61h-76q-7 0 -6 9l3 17q1 7 11 7h68zM235 304v-45q0 -128 1 -142q2 -51 10 -61q23 -34 146 -34q126 0 207 78q68 64 68 201q0 130 -82 212q-57 58 -125 76.5
t-162 18.5q-44 0 -52 -6q-11 -4 -11 -17v-246h178q9 0 6 -9l-3 -19q-1 -7 -12 -7h-169z" />
    <glyph glyph-name="Emacron" unicode="&#x112;" horiz-adv-x="610" 
d="M178 287v176q0 184 -2 216q-2 27 -10.5 39.5t-32.5 17.5q-12 3 -34 3q-8 0 -8 6q0 8 16 8q50 0 72 -1l41 -2q206 0 229 1q29 2 43 5q2 0 6.5 2.5t7.5 2.5q4 0 4 -9q0 -3 -1.5 -8.5t-3.5 -16t-3 -22.5q0 -2 -2 -30.5t-3 -35.5q-2 -11 -7 -11q-8 0 -8 13q0 22 -6 36t-20 22
t-51 12q-26 3 -137 3q-6 0 -6 -10v-276q0 -10 6 -10q136 0 159 2q37 3 47 14q11 13 15 13q5 0 5 -8q0 -2 -1.5 -9t-3.5 -20t-3 -27q-4 -40 -4 -64q0 -19 -7 -19t-7 9q0 20 -4 33q-9 31 -52 35q-45 5 -143 5q-7 0 -7 -7v-88v-51.5v-76.5v-43q2 -52 22.5 -67t93.5 -15
q70 0 96 11q35 15 45 72q3 15 9 15t6 -15q0 -7 -5 -45t-8 -52q-5 -19 -14 -22.5t-40 -3.5q-52 0 -169 3q-58 3 -78 3q-19 0 -40 -1q-11 0 -31 -1t-27 -1q-16 0 -16 8q0 6 8 6q12 0 30 4q22 4 29 55q5 42 5 217zM212 900h235q12 0 8 -10l-8 -22q-1 -6 -9 -6h-235
q-6 0 -8.5 1.5t-1.5 5.5l8 25q1 6 11 6z" />
    <glyph glyph-name="emacron" unicode="&#x113;" horiz-adv-x="551" 
d="M155 244v150q0 156 -2 183q-2 24 -8.5 34t-27.5 13q-14 2 -30 2q-7 0 -7 7t14 7q18 0 42 -0.5t41.5 -1t18.5 -0.5h22h49h57.5h52.5h29q9 0 40 5q1 0 5.5 2t6.5 2q4 0 4 -8q0 -2 -3 -14t-4 -26q0 -2 -2 -26t-3 -30q-2 -9 -8 -9q-7 0 -7 11q0 17 -5 30q-5 11 -17 16.5
t-46 9.5q-22 3 -127 3q-5 0 -5 -9v-231q0 -9 5 -9q127 0 147 2q34 3 43 12q11 11 13 11q5 0 5 -7q0 -2 -1.5 -7.5t-3 -16.5t-2.5 -23q-4 -34 -4 -55q0 -16 -8 -16q-6 0 -6 8q0 17 -4 28q-5 21 -45 26q-32 4 -133 4q-6 0 -6 -6v-71v-145q2 -43 21 -55.5t84 -12.5t88 9
q18 8 27 21t13 38q3 13 9 13t6 -13q0 -6 -4.5 -38t-7.5 -44q-4 -16 -12.5 -19t-36.5 -3q-45 0 -153 3q-37 2 -73 2q-19 0 -38 -1q-34 -2 -51 -2q-14 0 -14 7t7 7q5 0 15 2t12 2q8 1 12.5 8.5t6 13.5t4.5 23q5 35 5 184zM183 785h235q12 0 8 -10l-8 -22q-2 -6 -9 -6h-235
q-6 0 -8.5 1.5t-1.5 5.5l8 25q1 6 11 6z" />
    <glyph glyph-name="Edotaccent" unicode="&#x116;" horiz-adv-x="610" 
d="M178 287v176q0 184 -2 216q-2 27 -10.5 39.5t-32.5 17.5q-12 3 -34 3q-8 0 -8 6q0 8 16 8q50 0 72 -1l41 -2q206 0 229 1q29 2 43 5q2 0 6.5 2.5t7.5 2.5q4 0 4 -9q0 -3 -1.5 -8.5t-3.5 -16t-3 -22.5q0 -2 -2 -30.5t-3 -35.5q-2 -11 -7 -11q-8 0 -8 13q0 22 -6 36t-20 22
t-51 12q-26 3 -137 3q-6 0 -6 -10v-276q0 -10 6 -10q136 0 159 2q37 3 47 14q11 13 15 13q5 0 5 -8q0 -2 -1.5 -9t-3.5 -20t-3 -27q-4 -40 -4 -64q0 -19 -7 -19t-7 9q0 20 -4 33q-9 31 -52 35q-45 5 -143 5q-7 0 -7 -7v-88v-51.5v-76.5v-43q2 -52 22.5 -67t93.5 -15
q70 0 96 11q35 15 45 72q3 15 9 15t6 -15q0 -7 -5 -45t-8 -52q-5 -19 -14 -22.5t-40 -3.5q-52 0 -169 3q-58 3 -78 3q-19 0 -40 -1q-11 0 -31 -1t-27 -1q-16 0 -16 8q0 6 8 6q12 0 30 4q22 4 29 55q5 42 5 217zM329 830q-25 0 -38 15.5t-13 35.5q0 19 13 35.5t38 16.5
q22 0 37 -13.5t15 -35.5q0 -23 -14.5 -38.5t-37.5 -15.5z" />
    <glyph glyph-name="edotaccent" unicode="&#x117;" horiz-adv-x="551" 
d="M155 244v150q0 156 -2 183q-2 24 -8.5 34t-27.5 13q-14 2 -30 2q-7 0 -7 7t14 7q18 0 42 -0.5t41.5 -1t18.5 -0.5h22h49h57.5h52.5h29q9 0 40 5q1 0 5.5 2t6.5 2q4 0 4 -8q0 -2 -3 -14t-4 -26q0 -2 -2 -26t-3 -30q-2 -9 -8 -9q-7 0 -7 11q0 17 -5 30q-5 11 -17 16.5
t-46 9.5q-22 3 -127 3q-5 0 -5 -9v-231q0 -9 5 -9q127 0 147 2q34 3 43 12q11 11 13 11q5 0 5 -7q0 -2 -1.5 -7.5t-3 -16.5t-2.5 -23q-4 -34 -4 -55q0 -16 -8 -16q-6 0 -6 8q0 17 -4 28q-5 21 -45 26q-32 4 -133 4q-6 0 -6 -6v-71v-145q2 -43 21 -55.5t84 -12.5t88 9
q18 8 27 21t13 38q3 13 9 13t6 -13q0 -6 -4.5 -38t-7.5 -44q-4 -16 -12.5 -19t-36.5 -3q-45 0 -153 3q-37 2 -73 2q-19 0 -38 -1q-34 -2 -51 -2q-14 0 -14 7t7 7q5 0 15 2t12 2q8 1 12.5 8.5t6 13.5t4.5 23q5 35 5 184zM295 715q-25 0 -38 15.5t-13 35.5q0 19 13 35.5
t38 16.5q22 0 37 -13.5t15 -35.5q0 -23 -14.5 -38.5t-37.5 -15.5z" />
    <glyph glyph-name="Eogonek" unicode="&#x118;" horiz-adv-x="610" 
d="M391 -129q0 -23 14.5 -36.5t36.5 -13.5q14 0 29.5 9t26 18t12.5 9q8 0 8 -6q0 -4 -8 -14q-9 -10 -22.5 -21.5t-41.5 -26t-54 -14.5q-38 0 -58.5 19.5t-20.5 50.5q0 28 14.5 56t32 45l34 32t17.5 16l-113 3q-58 3 -78 3q-19 0 -40 -1q-11 0 -31 -1t-27 -1q-16 0 -16 8
q0 6 8 6q12 0 30 4q22 4 29 55q5 42 5 217v176q0 184 -2 216q-2 27 -10.5 39.5t-32.5 17.5q-12 3 -34 3q-8 0 -8 6q0 8 16 8q50 0 72 -1l41 -2q206 0 229 1q29 2 43 5q2 0 6.5 2.5t7.5 2.5q4 0 4 -9q0 -3 -1.5 -8.5t-3.5 -16t-3 -22.5q0 -2 -2 -30.5t-3 -35.5q-2 -11 -7 -11
q-8 0 -8 13q0 22 -6 36t-20 22t-51 12q-26 3 -137 3q-6 0 -6 -10v-276q0 -10 6 -10q136 0 159 2q37 3 47 14q11 13 15 13q5 0 5 -8q0 -2 -1.5 -9t-3.5 -20t-3 -27q-4 -40 -4 -64q0 -19 -7 -19t-7 9q0 20 -4 33q-9 31 -52 35q-45 5 -143 5q-7 0 -7 -7v-88v-51.5v-76.5v-43
q2 -52 22.5 -67t93.5 -15q70 0 96 11q35 15 45 72q3 15 9 15t6 -15q0 -7 -5 -45t-8 -52q-4 -15 -36.5 -19.5t-41.5 -10.5q-24 -17 -38 -54t-14 -65z" />
    <glyph glyph-name="eogonek" unicode="&#x119;" horiz-adv-x="551" 
d="M356 -129q0 -23 14.5 -36.5t36.5 -13.5q14 0 29.5 9t26 18t12.5 9q8 0 8 -6q0 -4 -8 -14q-9 -10 -22.5 -21.5t-41.5 -26t-54 -14.5q-38 0 -58.5 19.5t-20.5 50.5q0 40 30 81t70 70q-53 0 -109 2q-37 2 -73 2q-19 0 -38 -1q-34 -2 -51 -2q-14 0 -14 7t7 7q5 0 15 2t12 2
q8 1 12.5 8.5t6 13.5t4.5 23q5 35 5 184v150q0 156 -2 183q-2 24 -8.5 34t-27.5 13q-14 2 -30 2q-7 0 -7 7t14 7q18 0 42 -0.5t41.5 -1t18.5 -0.5h22h49h57.5h52.5h29q9 0 40 5q1 0 5.5 2t6.5 2q4 0 4 -8q0 -2 -3 -14t-4 -26q0 -2 -2 -26t-3 -30q-2 -9 -8 -9q-7 0 -7 11
q0 17 -5 30q-5 11 -17 16.5t-46 9.5q-22 3 -127 3q-5 0 -5 -9v-231q0 -9 5 -9q127 0 147 2q34 3 43 12q11 11 13 11q5 0 5 -7q0 -2 -1.5 -7.5t-3 -16.5t-2.5 -23q-4 -34 -4 -55q0 -16 -8 -16q-6 0 -6 8q0 17 -4 28q-5 21 -45 26q-32 4 -133 4q-6 0 -6 -6v-71v-145
q2 -43 21 -55.5t84 -12.5t88 9q18 8 27 21t13 38q3 13 9 13t6 -13q0 -6 -4.5 -38t-7.5 -44q-3 -10 -12.5 -13.5t-25.5 -6t-27 -8.5q-21 -11 -35.5 -50.5t-14.5 -67.5z" />
    <glyph glyph-name="Ecaron" unicode="&#x11a;" horiz-adv-x="610" 
d="M178 287v176q0 184 -2 216q-2 27 -10.5 39.5t-32.5 17.5q-12 3 -34 3q-8 0 -8 6q0 8 16 8q50 0 72 -1l41 -2q206 0 229 1q29 2 43 5q2 0 6.5 2.5t7.5 2.5q4 0 4 -9q0 -3 -1.5 -8.5t-3.5 -16t-3 -22.5q0 -2 -2 -30.5t-3 -35.5q-2 -11 -7 -11q-8 0 -8 13q0 22 -6 36t-20 22
t-51 12q-26 3 -137 3q-6 0 -6 -10v-276q0 -10 6 -10q136 0 159 2q37 3 47 14q11 13 15 13q5 0 5 -8q0 -2 -1.5 -9t-3.5 -20t-3 -27q-4 -40 -4 -64q0 -19 -7 -19t-7 9q0 20 -4 33q-9 31 -52 35q-45 5 -143 5q-7 0 -7 -7v-88v-51.5v-76.5v-43q2 -52 22.5 -67t93.5 -15
q70 0 96 11q35 15 45 72q3 15 9 15t6 -15q0 -7 -5 -45t-8 -52q-5 -19 -14 -22.5t-40 -3.5q-52 0 -169 3q-58 3 -78 3q-19 0 -40 -1q-11 0 -31 -1t-27 -1q-16 0 -16 8q0 6 8 6q12 0 30 4q22 4 29 55q5 42 5 217zM208 920l21 22q6 6 9 6q4 0 8 -5q15 -16 44.5 -40t39.5 -29
q8 -4 10 -4q6 0 16 5q25 13 85 63q11 10 18 10t7 -8q0 -3 -6 -11q-24 -24 -112 -104q-11 -10 -17 -10q-4 0 -15 10l-101 76q-12 8 -12 10t5 9z" />
    <glyph glyph-name="ecaron" unicode="&#x11b;" horiz-adv-x="551" 
d="M155 244v150q0 156 -2 183q-2 24 -8.5 34t-27.5 13q-14 2 -30 2q-7 0 -7 7t14 7q18 0 42 -0.5t41.5 -1t18.5 -0.5h22h49h57.5h52.5h29q9 0 40 5q1 0 5.5 2t6.5 2q4 0 4 -8q0 -2 -3 -14t-4 -26q0 -2 -2 -26t-3 -30q-2 -9 -8 -9q-7 0 -7 11q0 17 -5 30q-5 11 -17 16.5
t-46 9.5q-22 3 -127 3q-5 0 -5 -9v-231q0 -9 5 -9q127 0 147 2q34 3 43 12q11 11 13 11q5 0 5 -7q0 -2 -1.5 -7.5t-3 -16.5t-2.5 -23q-4 -34 -4 -55q0 -16 -8 -16q-6 0 -6 8q0 17 -4 28q-5 21 -45 26q-32 4 -133 4q-6 0 -6 -6v-71v-145q2 -43 21 -55.5t84 -12.5t88 9
q18 8 27 21t13 38q3 13 9 13t6 -13q0 -6 -4.5 -38t-7.5 -44q-4 -16 -12.5 -19t-36.5 -3q-45 0 -153 3q-37 2 -73 2q-19 0 -38 -1q-34 -2 -51 -2q-14 0 -14 7t7 7q5 0 15 2t12 2q8 1 12.5 8.5t6 13.5t4.5 23q5 35 5 184zM179 805l21 22q6 6 9 6q4 0 8 -5q15 -16 44.5 -40
t39.5 -29q8 -4 10 -4q6 0 16 5q25 13 85 63q11 10 18 10t7 -8q0 -3 -6 -11q-24 -24 -112 -104q-11 -10 -17 -10q-4 0 -15 10l-101 76q-12 8 -12 10t5 9z" />
    <glyph glyph-name="Gbreve" unicode="&#x11e;" horiz-adv-x="862" 
d="M653 82v170q0 61 -7.5 78t-37.5 25q-12 3 -34 3q-8 0 -8 6q0 8 16 8q20 0 47 -1t46 -1.5t20 -0.5t19.5 0.5t42 1.5t36.5 1q16 0 16 -8q0 -6 -8 -6q-7 0 -25 -3q-20 -4 -27.5 -17t-9.5 -40q-2 -32 -2 -104v-112q0 -33 -2 -41t-11 -13q-85 -45 -212 -45q-207 0 -329 107
q-50 43 -84.5 120t-34.5 165q0 113 47 198t120 131q101 63 266 63q72 0 153 -17q34 -8 81 -10q12 -1 12 -9q0 -3 -1.5 -18.5t-3.5 -47.5t-2 -76q0 -21 -9 -21q-5 0 -7 15q-3 37 -21 66q-21 32 -83 56.5t-152 24.5q-130 0 -214 -66q-45 -36 -72 -102.5t-27 -151.5
q0 -93 34.5 -167t71.5 -110q110 -107 262 -107q78 0 114 21q20 11 20 35zM332 904l32 24q8 5 9 5q3 0 4.5 -2.5l4 -6.5l4.5 -7q36 -47 94 -47q51 0 88 29q9 7 17 14t11.5 10.5t7 5.5t5.5 2q8 0 8 -8t-22 -30.5t-40 -33.5q-47 -29 -101 -29q-52 0 -93 29q-36 26 -36 36
q0 4 7 9z" />
    <glyph glyph-name="gbreve" unicode="&#x11f;" horiz-adv-x="759" 
d="M569 67v147q0 53 -6 67t-32 19q-14 2 -30 2q-7 0 -7 7t14 7q18 0 42.5 -0.5t42.5 -1t19 -0.5t17 0.5t36.5 1t32.5 0.5q14 0 14 -7t-7 -7q-12 0 -22 -2q-18 -3 -24.5 -13.5t-8.5 -33.5q-1 -27 -1 -88v-95q0 -29 -2 -35t-10 -11q-73 -38 -187 -38q-183 0 -290 91
q-44 37 -74.5 102t-30.5 140q0 96 41.5 168.5t105.5 110.5q89 54 234 54q75 0 135 -14q41 -9 71 -9q11 0 11 -8q0 -3 -1.5 -16t-2.5 -40t-1 -64q0 -18 -10 -18q-6 0 -6 13q-3 32 -20 56q-19 27 -71.5 46.5t-131.5 19.5q-112 0 -184 -55q-40 -30 -63.5 -86t-23.5 -128
q0 -79 30 -142t63 -93q96 -89 225 -89q67 0 95 16q18 10 18 26zM260 789l32 24q8 5 9 5q3 0 4.5 -2.5l4 -6.5l4.5 -7q36 -47 94 -47q51 0 88 29q9 7 17 14t11.5 10.5t7 5.5t5.5 2q8 0 8 -8t-22 -30.5t-40 -33.5q-47 -29 -101 -29q-52 0 -93 29q-36 26 -36 36q0 4 7 9z" />
    <glyph glyph-name="Gcommaaccent" unicode="&#x122;" horiz-adv-x="862" 
d="M653 82v170q0 61 -7.5 78t-37.5 25q-12 3 -34 3q-8 0 -8 6q0 8 16 8q20 0 47 -1t46 -1.5t20 -0.5t19.5 0.5t42 1.5t36.5 1q16 0 16 -8q0 -6 -8 -6q-7 0 -25 -3q-20 -4 -27.5 -17t-9.5 -40q-2 -32 -2 -104v-112q0 -33 -2 -41t-11 -13q-85 -45 -212 -45q-207 0 -329 107
q-50 43 -84.5 120t-34.5 165q0 113 47 198t120 131q101 63 266 63q72 0 153 -17q34 -8 81 -10q12 -1 12 -9q0 -3 -1.5 -18.5t-3.5 -47.5t-2 -76q0 -21 -9 -21q-5 0 -7 15q-3 37 -21 66q-21 32 -83 56.5t-152 24.5q-130 0 -214 -66q-45 -36 -72 -102.5t-27 -151.5
q0 -93 34.5 -167t71.5 -110q110 -107 262 -107q78 0 114 21q20 11 20 35zM472 -168q0 19 -8 33.5t-16 22t-8 11.5q0 19 19.5 35.5t39.5 16.5q6 0 17 -18q16 -25 16 -41q0 -15 -9 -37q-22 -60 -61 -102q-7 -9 -13 -9t-6 7q0 1 6 13q23 40 23 68z" />
    <glyph glyph-name="gcommaaccent" unicode="&#x123;" horiz-adv-x="759" 
d="M569 67v147q0 53 -6 67t-32 19q-14 2 -30 2q-7 0 -7 7t14 7q18 0 42.5 -0.5t42.5 -1t19 -0.5t17 0.5t36.5 1t32.5 0.5q14 0 14 -7t-7 -7q-12 0 -22 -2q-18 -3 -24.5 -13.5t-8.5 -33.5q-1 -27 -1 -88v-95q0 -29 -2 -35t-10 -11q-73 -38 -187 -38q-183 0 -290 91
q-44 37 -74.5 102t-30.5 140q0 96 41.5 168.5t105.5 110.5q89 54 234 54q75 0 135 -14q41 -9 71 -9q11 0 11 -8q0 -3 -1.5 -16t-2.5 -40t-1 -64q0 -18 -10 -18q-6 0 -6 13q-3 32 -20 56q-19 27 -71.5 46.5t-131.5 19.5q-112 0 -184 -55q-40 -30 -63.5 -86t-23.5 -128
q0 -79 30 -142t63 -93q96 -89 225 -89q67 0 95 16q18 10 18 26zM406 -168q0 19 -8 33.5t-16 22t-8 11.5q0 19 19.5 35.5t39.5 16.5q6 0 17 -18q16 -25 16 -41q0 -15 -9 -37q-22 -60 -61 -102q-7 -9 -13 -9t-6 7q0 1 6 13q23 40 23 68z" />
    <glyph glyph-name="Imacron" unicode="&#x12a;" horiz-adv-x="440" 
d="M262 463v-176q0 -175 5 -217q3 -25 10.5 -38.5t28.5 -16.5q28 -4 45 -4q8 0 8 -6q0 -8 -16 -8q-24 0 -53.5 0.5t-49 1.5t-20.5 1t-19.5 -1t-42 -1.5t-36.5 -0.5q-16 0 -16 8q0 6 8 6q12 0 30 4q22 4 29 55q5 42 5 217v176q0 184 -2 216q-3 49 -34 56q-15 4 -31 4
q-8 0 -8 6q0 8 16 8q15 0 39 -0.5t42.5 -1.5t19.5 -1t19.5 1t42 1.5t36.5 0.5q16 0 16 -8q0 -6 -8 -6q-7 0 -25 -3q-20 -4 -27.5 -17t-9.5 -40q-2 -32 -2 -216zM108 900h235q12 0 8 -10l-8 -22q-1 -6 -9 -6h-235q-6 0 -8.5 1.5t-1.5 5.5l8 25q1 6 11 6z" />
    <glyph glyph-name="imacron" unicode="&#x12b;" horiz-adv-x="389" 
d="M235 394v-150q0 -149 4 -184q2 -15 4 -22.5t9 -14t19 -8.5q26 -4 40 -4q7 0 7 -7t-14 -7q-22 0 -48 0.5t-44 1.5l-18 1q-1 0 -17.5 -1t-37 -1.5t-32.5 -0.5q-14 0 -14 7t7 7q11 0 27 4q18 4 23 45q5 44 5 184v150q0 156 -2 183q-3 41 -28 46q-15 3 -27 3q-7 0 -7 7t14 7
q13 0 34 -0.5t37.5 -1t17.5 -0.5t17.5 0.5t37.5 1t33 0.5q14 0 14 -7t-7 -7q-12 0 -22 -2q-17 -4 -23 -13.5t-8 -33.5q-1 -27 -1 -183zM82 785h235q12 0 8 -10l-8 -22q-1 -6 -9 -6h-235q-6 0 -8.5 1.5t-1.5 5.5l8 25q1 6 11 6z" />
    <glyph glyph-name="Iogonek" unicode="&#x12e;" horiz-adv-x="440" 
d="M265 -9q-53 -49 -53 -120q0 -23 14.5 -36.5t36.5 -13.5q14 0 29.5 9t26 18t12.5 9q8 0 8 -6q0 -4 -8 -14q-9 -10 -22.5 -21.5t-41.5 -26t-54 -14.5q-38 0 -58.5 19.5t-20.5 50.5q0 33 25 70.5t45 55t36 28.5q-5 0 -9.5 0.5t-7 0.5h-3.5q-19 0 -40 -1q-11 0 -31 -1t-27 -1
q-16 0 -16 8q0 6 8 6q12 0 30 4q22 4 29 55q5 42 5 217v176q0 184 -2 216q-3 49 -34 56q-15 4 -31 4q-8 0 -8 6q0 8 16 8q15 0 39 -0.5t42.5 -1.5t19.5 -1t19.5 1t42 1.5t36.5 0.5q16 0 16 -8q0 -6 -8 -6q-7 0 -25 -3q-20 -4 -27.5 -17t-9.5 -40q-2 -32 -2 -216v-176
q0 -175 5 -217q3 -25 10.5 -38.5t28.5 -16.5q28 -4 45 -4q8 0 8 -6q0 -8 -16 -8q-6 0 -25.5 2t-32 0.5t-20.5 -8.5z" />
    <glyph glyph-name="iogonek" unicode="&#x12f;" horiz-adv-x="389" 
d="M181 -129q0 -23 14.5 -36.5t36.5 -13.5q14 0 29.5 9t26 18t12.5 9q8 0 8 -6q0 -4 -8 -14q-9 -10 -22.5 -21.5t-41.5 -26t-54 -14.5q-38 0 -58.5 19.5t-20.5 50.5q0 33 24 70t45 56t36 29h-14h-6q-5 0 -13 -0.5t-16 -0.5q-36 -2 -52 -2q-14 0 -14 7t7 7q11 0 27 4
q18 4 23 45q5 44 5 184v150q0 156 -2 183q-3 41 -28 46q-15 3 -27 3q-7 0 -7 7t14 7q13 0 34 -0.5t37.5 -1t17.5 -0.5t17.5 0.5t37.5 1t33 0.5q14 0 14 -7t-7 -7q-12 0 -22 -2q-17 -4 -23 -13.5t-8 -33.5q-1 -27 -1 -183v-150q0 -149 4 -184q2 -15 4 -22.5t9 -14t19 -8.5
q26 -4 40 -4q7 0 7 -7t-14 -7q-5 0 -21.5 2t-28.5 0t-23 -9q-21 -14 -35.5 -52t-14.5 -67z" />
    <glyph glyph-name="Idotaccent" unicode="&#x130;" horiz-adv-x="440" 
d="M262 463v-176q0 -175 5 -217q3 -25 10.5 -38.5t28.5 -16.5q28 -4 45 -4q8 0 8 -6q0 -8 -16 -8q-24 0 -53.5 0.5t-49 1.5t-20.5 1t-19.5 -1t-42 -1.5t-36.5 -0.5q-16 0 -16 8q0 6 8 6q12 0 30 4q22 4 29 55q5 42 5 217v176q0 184 -2 216q-3 49 -34 56q-15 4 -31 4
q-8 0 -8 6q0 8 16 8q15 0 39 -0.5t42.5 -1.5t19.5 -1t19.5 1t42 1.5t36.5 0.5q16 0 16 -8q0 -6 -8 -6q-7 0 -25 -3q-20 -4 -27.5 -17t-9.5 -40q-2 -32 -2 -216zM220 830q-25 0 -38 15.5t-13 35.5q0 19 13 35.5t38 16.5q22 0 37 -13.5t15 -35.5q0 -23 -14.5 -38.5
t-37.5 -15.5z" />
    <glyph glyph-name="dotlessi" unicode="&#x131;" horiz-adv-x="389" 
d="M235 394v-150q0 -149 4 -184q2 -15 4 -22.5t9 -14t19 -8.5q26 -4 40 -4q7 0 7 -7t-14 -7q-22 0 -48 0.5t-44 1.5l-18 1q-1 0 -17.5 -1t-37 -1.5t-32.5 -0.5q-14 0 -14 7t7 7q11 0 27 4q18 4 23 45q5 44 5 184v150q0 156 -2 183q-3 41 -28 46q-15 3 -27 3q-7 0 -7 7t14 7
q13 0 34 -0.5t37.5 -1t17.5 -0.5t17.5 0.5t37.5 1t33 0.5q14 0 14 -7t-7 -7q-12 0 -22 -2q-17 -4 -23 -13.5t-8 -33.5q-1 -27 -1 -183z" />
    <glyph glyph-name="Kcommaaccent" unicode="&#x136;" horiz-adv-x="752" 
d="M178 287v176q0 184 -2 216q-2 27 -10.5 39.5t-32.5 17.5q-12 3 -34 3q-8 0 -8 6q0 8 16 8q20 0 46 -0.5t44.5 -1.5t19.5 -1q2 0 40.5 1.5t56.5 1.5q16 0 16 -8q0 -6 -8 -6q-7 0 -25 -3q-20 -4 -27.5 -17t-9.5 -40q-2 -32 -2 -216v-60h4q8 9 111.5 115t122.5 127
q54 56 54 72t-13 21q-9 4 -9 8q0 7 12 7q10 0 36 -1.5t39 -1.5l41 2q40 1 55 1t15 -7t-10 -7q-25 0 -56 -14q-10 -4 -19.5 -10t-16 -10.5t-17.5 -14l-16 -14t-19 -18l-20 -19.5q-186 -179 -220 -219q22 -25 134.5 -140.5t140.5 -141.5q68 -63 91.5 -81.5t57.5 -32.5
q31 -13 62 -13q13 0 13 -6q0 -8 -22 -8h-51q-47 0 -69 2q-25 2 -47 12t-33 18l-41 31q-32 26 -149 151.5t-156 173.5h-5v-98q0 -175 5 -217q3 -25 10.5 -38.5t28.5 -16.5q28 -4 39 -4q8 0 8 -6q0 -8 -16 -8q-22 0 -48.5 0.5t-45.5 1.5t-21 1q-1 0 -39.5 -1.5t-56.5 -1.5
q-16 0 -16 8q0 6 8 6q12 0 30 4q22 4 29 55q5 42 5 217zM427 -148q0 19 -8 33.5t-16 22t-8 11.5q0 19 19.5 35.5t39.5 16.5q6 0 17 -18q16 -25 16 -41q0 -15 -9 -37q-22 -60 -61 -102q-7 -9 -13 -9t-6 7q0 1 6 13q23 40 23 68z" />
    <glyph glyph-name="kcommaaccent" unicode="&#x137;" horiz-adv-x="666" 
d="M155 244v150q0 156 -2 183q-2 24 -8.5 34t-27.5 13q-14 2 -30 2q-7 0 -7 7t14 7q18 0 41.5 -0.5t40 -1t17.5 -0.5q2 0 37 1t50 1q14 0 14 -7t-7 -7q-11 0 -22 -2q-17 -4 -23 -14t-8 -33q-2 -27 -2 -183v-51h4q6 7 49.5 50.5l92.5 92.5l62 62q48 48 48 61q0 15 -11 17
q-8 2 -8 8t10 6q9 0 32 -1t34 -1l36 1q36 1 49 1t13 -6q0 -7 -9 -7q-20 0 -49 -12q-8 -3 -14.5 -6.5t-13 -8.5t-11 -8t-12.5 -10.5l-11.5 -11t-14 -13t-15.5 -14.5q-20 -18 -99 -94.5t-92 -90.5q18 -20 117 -118.5t125 -122.5q76 -68 95 -79q12 -7 31 -15q31 -12 54 -12
q11 0 11 -7t-19 -7h-45q-41 0 -61 2q-22 2 -41.5 10t-29.5 15.5l-36 26.5q-28 22 -130 128t-137 148h-4v-83q0 -149 4 -184q3 -22 9 -32t25 -13q24 -4 34 -4q7 0 7 -7t-14 -7q-19 0 -43 0.5t-41 1.5t-19 1q-1 0 -36 -1.5t-51 -1.5q-14 0 -14 7t7 7q11 0 27 4q8 2 12.5 9
t6 13.5t4.5 22.5q5 35 5 184zM389 -168q0 19 -8 33.5t-16 22t-8 11.5q0 19 19.5 35.5t39.5 16.5q6 0 17 -18q16 -25 16 -41q0 -15 -9 -37q-22 -60 -61 -102q-7 -9 -13 -9t-6 7q0 1 6 13q23 40 23 68z" />
    <glyph glyph-name="Lacute" unicode="&#x139;" horiz-adv-x="592" 
d="M262 463v-178q0 -115 4.5 -165.5t17.5 -63.5q23 -23 120 -23q49 0 77 5t44 25q21 25 26 60q2 13 9 13q6 0 6 -15q0 -46 -15 -100q-5 -18 -15 -22.5t-48 -4.5q-40 0 -166 3q-63 3 -102 3h-14q-15 -1 -27 -1q-40 -2 -57 -2q-16 0 -16 8q0 6 8 6q12 0 30 4q22 4 29 55
q5 42 5 217v176q0 184 -2 216q-2 27 -10.5 39.5t-32.5 17.5q-12 3 -34 3q-8 0 -8 6q0 8 16 8q20 0 47 -0.5t46 -1.5t20 -1t22 1t47 1.5t39 0.5q16 0 16 -8q0 -6 -8 -6q-15 0 -33 -3q-21 -4 -29 -17t-10 -40q-2 -32 -2 -216zM398 933q4 -5 25 -44q7 -12 -4 -12h-30
q-70 -7 -152 -42q-12 -5 -15 -5q-5 0 -5 6q0 4 7 8q59 41 136 85q22 13 28 13q4 0 10 -9z" />
    <glyph glyph-name="lacute" unicode="&#x13a;" 
d="M235 394v-152q0 -100 3.5 -140t14.5 -51q20 -20 117 -20q29 0 44.5 1t33.5 7t28 18q16 19 21 48q2 11 9 11q6 0 6 -13q0 -39 -13 -85q-5 -15 -13.5 -19t-42.5 -4q-91 0 -153 3q-80 2 -96 2q-19 0 -36 -1q-36 -2 -51 -2q-14 0 -14 7t7 7q11 0 27 4q8 2 12.5 9t6 13.5
t4.5 22.5q5 35 5 184v150q0 156 -2 183q-2 24 -8.5 34t-27.5 13q-14 2 -30 2q-7 0 -7 7t14 7q18 0 41.5 -0.5t40.5 -1t18 -0.5t20 0.5t42 1t35 0.5q14 0 14 -7q0 -6 -7 -6q-9 0 -29 -2q-19 -4 -25 -14t-8 -34q-1 -27 -1 -183zM385 818q4 -5 25 -44q7 -12 -4 -12h-4
q-5 1 -11.5 1t-14.5 -1q-70 -7 -152 -42q-12 -5 -15 -5q-5 0 -5 6q0 4 7 8q59 41 136 85q22 13 28 13q4 0 10 -9z" />
    <glyph glyph-name="Lcommaaccent" unicode="&#x13b;" horiz-adv-x="592" 
d="M262 463v-178q0 -115 4.5 -165.5t17.5 -63.5q23 -23 120 -23q49 0 77 5t44 25q21 25 26 60q2 13 9 13q6 0 6 -15q0 -46 -15 -100q-5 -18 -15 -22.5t-48 -4.5q-40 0 -166 3q-63 3 -102 3h-14q-15 -1 -27 -1q-40 -2 -57 -2q-16 0 -16 8q0 6 8 6q12 0 30 4q22 4 29 55
q5 42 5 217v176q0 184 -2 216q-2 27 -10.5 39.5t-32.5 17.5q-12 3 -34 3q-8 0 -8 6q0 8 16 8q20 0 47 -0.5t46 -1.5t20 -1t22 1t47 1.5t39 0.5q16 0 16 -8q0 -6 -8 -6q-15 0 -33 -3q-21 -4 -29 -17t-10 -40q-2 -32 -2 -216zM352 -168q0 19 -8 33.5t-16 22t-8 11.5
q0 19 19.5 35.5t39.5 16.5q6 0 17 -18q16 -25 16 -41q0 -15 -9 -37q-22 -60 -61 -102q-7 -9 -13 -9t-6 7q0 1 6 13q23 40 23 68z" />
    <glyph glyph-name="lcommaaccent" unicode="&#x13c;" 
d="M235 394v-152q0 -100 3.5 -140t14.5 -51q20 -20 117 -20q29 0 44.5 1t33.5 7t28 18q16 19 21 48q2 11 9 11q6 0 6 -13q0 -39 -13 -85q-5 -15 -13.5 -19t-42.5 -4q-91 0 -153 3q-80 2 -96 2q-19 0 -36 -1q-36 -2 -51 -2q-14 0 -14 7t7 7q11 0 27 4q8 2 12.5 9t6 13.5
t4.5 22.5q5 35 5 184v150q0 156 -2 183q-2 24 -8.5 34t-27.5 13q-14 2 -30 2q-7 0 -7 7t14 7q18 0 41.5 -0.5t40.5 -1t18 -0.5t20 0.5t42 1t35 0.5q14 0 14 -7q0 -6 -7 -6q-9 0 -29 -2q-19 -4 -25 -14t-8 -34q-1 -27 -1 -183zM303 -168q0 19 -8 33.5t-16 22t-8 11.5
q0 19 19.5 35.5t39.5 16.5q6 0 17 -18q16 -25 16 -41q0 -15 -9 -37q-22 -60 -61 -102q-7 -9 -13 -9t-6 7q0 1 6 13q23 40 23 68z" />
    <glyph glyph-name="Lcaron" unicode="&#x13d;" horiz-adv-x="592" 
d="M262 463v-178q0 -115 4.5 -165.5t17.5 -63.5q23 -23 120 -23q49 0 77 5t44 25q21 25 26 60q2 13 9 13q6 0 6 -15q0 -46 -15 -100q-5 -18 -15 -22.5t-48 -4.5q-40 0 -166 3q-63 3 -102 3h-14q-15 -1 -27 -1q-40 -2 -57 -2q-16 0 -16 8q0 6 8 6q12 0 30 4q22 4 29 55
q5 42 5 217v176q0 184 -2 216q-2 27 -10.5 39.5t-32.5 17.5q-12 3 -34 3q-8 0 -8 6q0 8 16 8q20 0 47 -0.5t46 -1.5t20 -1t22 1t47 1.5t39 0.5q16 0 16 -8q0 -6 -8 -6q-15 0 -33 -3q-21 -4 -29 -17t-10 -40q-2 -32 -2 -216zM477 637q0 19 -8 33.5t-16 22t-8 11.5
q0 19 19.5 35.5t39.5 16.5q6 0 17 -18q16 -25 16 -41q0 -15 -9 -37q-22 -60 -61 -102q-7 -9 -13 -9t-6 7q0 1 6 13q23 40 23 68z" />
    <glyph glyph-name="lcaron" unicode="&#x13e;" 
d="M235 394v-152q0 -100 3.5 -140t14.5 -51q20 -20 117 -20q29 0 44.5 1t33.5 7t28 18q16 19 21 48q2 11 9 11q6 0 6 -13q0 -39 -13 -85q-5 -15 -13.5 -19t-42.5 -4q-91 0 -153 3q-80 2 -96 2q-19 0 -36 -1q-36 -2 -51 -2q-14 0 -14 7t7 7q11 0 27 4q8 2 12.5 9t6 13.5
t4.5 22.5q5 35 5 184v150q0 156 -2 183q-2 24 -8.5 34t-27.5 13q-14 2 -30 2q-7 0 -7 7t14 7q18 0 41.5 -0.5t40.5 -1t18 -0.5t20 0.5t42 1t35 0.5q14 0 14 -7q0 -6 -7 -6q-9 0 -29 -2q-19 -4 -25 -14t-8 -34q-1 -27 -1 -183zM434 524q0 19 -8 33.5t-16 22t-8 11.5
q0 19 19.5 35.5t39.5 16.5q6 0 17 -18q16 -25 16 -41q0 -15 -9 -37q-22 -60 -61 -102q-7 -9 -13 -9t-6 7q0 1 6 13q23 40 23 68z" />
    <glyph glyph-name="Lslash" unicode="&#x141;" horiz-adv-x="592" 
d="M262 381v-96q0 -111 4.5 -163.5t17.5 -65.5q23 -23 120 -23q49 0 77 5t44 25q21 25 26 60q2 13 9 13q6 0 6 -15q0 -46 -15 -100q-5 -18 -15 -22.5t-48 -4.5q-40 0 -166 3q-63 3 -102 3h-14q-15 -1 -27 -1q-40 -2 -57 -2q-16 0 -16 8q0 6 8 6q12 0 30 4q22 4 29 55
q5 42 5 217v56l-89 -46q-6 -2 -9 3l-10 22q-2 7 2 8l106 55v78q0 184 -2 216q-2 27 -10.5 39.5t-32.5 17.5q-12 3 -34 3q-8 0 -8 6q0 8 16 8q20 0 47 -0.5t46 -1.5t20 -1t22 1t47 1.5t39 0.5q16 0 16 -8q0 -6 -8 -6q-15 0 -33 -3q-21 -4 -29 -17t-10 -40q-2 -32 -2 -216v-39
l149 72q6 3 8 -3l11 -23q3 -6 -5 -9z" />
    <glyph glyph-name="lslash" unicode="&#x142;" 
d="M235 322v-80q0 -95 3.5 -137.5t15.5 -53.5q20 -20 115 -20q67 0 86 9q11 5 18 14q18 21 23 51q2 11 8 11q7 0 7 -13q0 -39 -13 -85q-5 -15 -13.5 -19t-42.5 -4q-92 0 -151 3q-78 2 -95 2q-19 0 -38 -1q-10 0 -27 -1t-24 -1q-14 0 -14 7q0 6 7 6q11 0 27 4q8 2 12.5 9
t6 13.5t4.5 23.5q5 35 5 184v46l-75 -40q-6 0 -8 3l-10 24q-1 1 -0.5 3.5t1.5 3.5l92 45v65q0 156 -2 183q-2 24 -8.5 34t-27.5 13q-14 2 -30 2q-7 0 -7 7t14 7q18 0 42 -0.5t41.5 -1t18.5 -0.5t19.5 0.5t41 1t34.5 0.5q14 0 14 -7t-7 -7q-9 0 -29 -2q-19 -4 -25 -13.5
t-8 -33.5q-1 -27 -1 -183v-32l128 63q5 2 7 -3l11 -25q2 -5 -4 -8z" />
    <glyph glyph-name="Nacute" unicode="&#x143;" horiz-adv-x="947" 
d="M192 612l13 -479q1 -61 9.5 -85.5t29.5 -30.5q23 -6 50 -6q8 0 8 -6q0 -8 -18 -8q-25 0 -49.5 0.5t-39.5 1.5t-17 1l-34 -2q-35 -1 -62 -1q-16 0 -16 8q0 6 8 6q23 0 41 6q18 5 24 31t6 96l1 573q0 50 11 50q4 0 9.5 -5t14.5 -15t11 -12q37 -42 318 -343l138.5 -151
t101.5 -110l-11 508q-1 50 -8.5 69.5t-30.5 25.5q-23 5 -49 5q-8 0 -8 7t20 7q27 0 65 -1.5t39 -1.5q2 0 31.5 1.5t53.5 1.5q18 0 18 -7t-11 -7q-12 0 -24 -3q-24 -5 -30.5 -23t-6.5 -66l-2 -586q0 -25 -0.5 -39t-1.5 -21t-2.5 -9t-4.5 -2q-9 0 -73 64l-47 47.5
l-103.5 106.5l-110.5 117zM586 908q4 -5 25 -44q7 -12 -4 -12h-5q-4 1 -10.5 1t-14.5 -1q-70 -7 -152 -42q-12 -5 -15 -5q-5 0 -5 6q0 4 7 8q59 41 136 85q22 13 28 13q4 0 10 -9z" />
    <glyph glyph-name="nacute" unicode="&#x144;" horiz-adv-x="833" 
d="M182 514l10 -401q1 -52 8.5 -72t25.5 -25q20 -5 44 -5q7 0 7 -7t-16 -7q-22 0 -43.5 0.5t-34.5 1.5t-15 1l-30 -2q-31 -1 -55 -1q-14 0 -14 7t7 7q20 0 36 5q16 4 20.5 25t4.5 81v487q0 43 12 43q8 0 34 -26l278 -290l208 -219l-9 426q-1 43 -7 59t-26 20q-21 4 -43 4
q-7 0 -7 8q0 6 17 6q24 0 57.5 -1t34.5 -1q2 0 28 1t47 1q16 0 16 -6q0 -8 -10 -8q-11 0 -21 -2q-21 -4 -26 -18.5t-5 -55.5l-2 -498v-33.5t-1 -18t-2.5 -8t-3.5 -1.5q-10 0 -67 52q-57 51 -229 230q-199 208 -228 241zM524 818q4 -5 25 -44q7 -12 -4 -12h-30
q-70 -7 -152 -42q-12 -5 -15 -5q-5 0 -5 6q0 4 7 8q59 41 136 85q22 13 28 13q4 0 10 -9z" />
    <glyph glyph-name="Ncommaaccent" unicode="&#x145;" horiz-adv-x="947" 
d="M192 612l13 -479q1 -61 9.5 -85.5t29.5 -30.5q23 -6 50 -6q8 0 8 -6q0 -8 -18 -8q-25 0 -49.5 0.5t-39.5 1.5t-17 1l-34 -2q-35 -1 -62 -1q-16 0 -16 8q0 6 8 6q23 0 41 6q18 5 24 31t6 96l1 573q0 50 11 50q4 0 9.5 -5t14.5 -15t11 -12q37 -42 318 -343l138.5 -151
t101.5 -110l-11 508q-1 50 -8.5 69.5t-30.5 25.5q-23 5 -49 5q-8 0 -8 7t20 7q27 0 65 -1.5t39 -1.5q2 0 31.5 1.5t53.5 1.5q18 0 18 -7t-11 -7q-12 0 -24 -3q-24 -5 -30.5 -23t-6.5 -66l-2 -586q0 -25 -0.5 -39t-1.5 -21t-2.5 -9t-4.5 -2q-9 0 -73 64l-47 47.5
l-103.5 106.5l-110.5 117zM470 -138q0 19 -8 33.5t-16 22t-8 11.5q0 19 19.5 35.5t39.5 16.5q6 0 17 -18q16 -25 16 -41q0 -15 -9 -37q-22 -60 -61 -102q-7 -9 -13 -9t-6 7q0 1 6 13q23 40 23 68z" />
    <glyph glyph-name="ncommaaccent" unicode="&#x146;" horiz-adv-x="833" 
d="M182 514l10 -401q1 -52 8.5 -72t25.5 -25q20 -5 44 -5q7 0 7 -7t-16 -7q-22 0 -43.5 0.5t-34.5 1.5t-15 1l-30 -2q-31 -1 -55 -1q-14 0 -14 7t7 7q20 0 36 5q16 4 20.5 25t4.5 81v487q0 43 12 43q8 0 34 -26l278 -290l208 -219l-9 426q-1 43 -7 59t-26 20q-21 4 -43 4
q-7 0 -7 8q0 6 17 6q24 0 57.5 -1t34.5 -1q2 0 28 1t47 1q16 0 16 -6q0 -8 -10 -8q-11 0 -21 -2q-21 -4 -26 -18.5t-5 -55.5l-2 -498v-33.5t-1 -18t-2.5 -8t-3.5 -1.5q-10 0 -67 52q-57 51 -229 230q-199 208 -228 241zM403 -138q0 19 -8 33.5t-16 22t-8 11.5
q0 19 19.5 35.5t39.5 16.5q6 0 17 -18q16 -25 16 -41q0 -15 -9 -37q-22 -60 -61 -102q-7 -9 -13 -9t-6 7q0 1 6 13q23 40 23 68z" />
    <glyph glyph-name="Ncaron" unicode="&#x147;" horiz-adv-x="947" 
d="M192 612l13 -479q1 -61 9.5 -85.5t29.5 -30.5q23 -6 50 -6q8 0 8 -6q0 -8 -18 -8q-25 0 -49.5 0.5t-39.5 1.5t-17 1l-34 -2q-35 -1 -62 -1q-16 0 -16 8q0 6 8 6q23 0 41 6q18 5 24 31t6 96l1 573q0 50 11 50q4 0 9.5 -5t14.5 -15t11 -12q37 -42 318 -343l138.5 -151
t101.5 -110l-11 508q-1 50 -8.5 69.5t-30.5 25.5q-23 5 -49 5q-8 0 -8 7t20 7q27 0 65 -1.5t39 -1.5q2 0 31.5 1.5t53.5 1.5q18 0 18 -7t-11 -7q-12 0 -24 -3q-24 -5 -30.5 -23t-6.5 -66l-2 -586q0 -25 -0.5 -39t-1.5 -21t-2.5 -9t-4.5 -2q-9 0 -73 64l-47 47.5
l-103.5 106.5l-110.5 117zM352 900l21 22q6 6 9 6q4 0 8 -5q15 -16 44.5 -40t39.5 -29q8 -4 10 -4q6 0 16 5q25 13 85 63q11 10 18 10t7 -8q0 -3 -6 -11q-24 -24 -112 -104q-11 -10 -17 -10q-4 0 -15 10l-101 76q-12 8 -12 10q0 1 5 9z" />
    <glyph glyph-name="ncaron" unicode="&#x148;" horiz-adv-x="833" 
d="M182 514l10 -401q1 -52 8.5 -72t25.5 -25q20 -5 44 -5q7 0 7 -7t-16 -7q-22 0 -43.5 0.5t-34.5 1.5t-15 1l-30 -2q-31 -1 -55 -1q-14 0 -14 7t7 7q20 0 36 5q16 4 20.5 25t4.5 81v487q0 43 12 43q8 0 34 -26l278 -290l208 -219l-9 426q-1 43 -7 59t-26 20q-21 4 -43 4
q-7 0 -7 8q0 6 17 6q24 0 57.5 -1t34.5 -1q2 0 28 1t47 1q16 0 16 -6q0 -8 -10 -8q-11 0 -21 -2q-21 -4 -26 -18.5t-5 -55.5l-2 -498v-33.5t-1 -18t-2.5 -8t-3.5 -1.5q-10 0 -67 52q-57 51 -229 230q-199 208 -228 241zM290 805l21 22q6 6 9 6q4 0 8 -5q15 -16 44.5 -40
t39.5 -29q8 -4 10 -4q6 0 16 5q25 13 85 63q11 10 18 10t7 -8q0 -3 -6 -11q-24 -24 -112 -104q-11 -10 -17 -10q-4 0 -15 10l-101 76q-12 8 -12 10t5 9z" />
    <glyph glyph-name="Omacron" unicode="&#x14c;" horiz-adv-x="915" 
d="M64 376q0 64 23.5 130t69 125.5t124.5 97.5t177 38q172 0 282.5 -101.5t110.5 -273.5t-111 -290.5t-288 -118.5q-79 0 -145 23.5t-110 62.5t-75 91t-44.5 106t-13.5 110zM159 404q0 -172 91 -277.5t229 -105.5q31 0 63.5 7.5t72 30t69.5 58.5t50.5 100t20.5 147
q0 172 -89 270.5t-215 98.5q-130 0 -211 -85t-81 -244zM345 900h235q12 0 8 -10l-8 -22q-2 -6 -9 -6h-235q-6 0 -8.5 1.5t-1.5 5.5l8 25q1 6 11 6z" />
    <glyph glyph-name="omacron" unicode="&#x14d;" horiz-adv-x="808" 
d="M55 320q0 43 12.5 87.5t40.5 88.5t67.5 78.5t99 56t129.5 21.5q152 0 250 -86.5t98 -232.5t-98.5 -246.5t-254.5 -100.5q-86 0 -154.5 30.5t-108.5 80t-60.5 106.5t-20.5 117zM146 343q0 -146 78.5 -234t199.5 -88q27 0 55 6t62.5 25t60 49t43 84t17.5 124
q0 146 -76.5 228.5t-186.5 82.5q-114 0 -183.5 -71t-69.5 -206zM301 785h235q12 0 8 -10l-8 -22q-2 -6 -9 -6h-235q-6 0 -8.5 1.5t-1.5 5.5l8 25q1 6 11 6z" />
    <glyph glyph-name="Ohungarumlaut" unicode="&#x150;" horiz-adv-x="915" 
d="M64 376q0 64 23.5 130t69 125.5t124.5 97.5t177 38q172 0 282.5 -101.5t110.5 -273.5t-111 -290.5t-288 -118.5q-79 0 -145 23.5t-110 62.5t-75 91t-44.5 106t-13.5 110zM159 404q0 -172 91 -277.5t229 -105.5q31 0 63.5 7.5t72 30t69.5 58.5t50.5 100t20.5 147
q0 172 -89 270.5t-215 98.5q-130 0 -211 -85t-81 -244zM445 943q15 20 17 20q6 0 13 -3q9 -4 37 -22q11 -6 3 -9q-1 -1 -6 -2.5t-11.5 -4t-12.5 -6.5q-66 -42 -98 -75q-10 -11 -14 -11q-7 0 -3 9q2 6 33.5 49t41.5 55zM575 945q17 18 19 18q6 0 14 -4q15 -9 35 -25
q8 -8 1 -10l-6 -1q-5 -1 -12 -3t-13 -6q-51 -27 -106 -75q-8 -9 -14 -9t-3 8q2 6 38 50.5t47 56.5z" />
    <glyph glyph-name="ohungarumlaut" unicode="&#x151;" horiz-adv-x="808" 
d="M55 320q0 43 12.5 87.5t40.5 88.5t67.5 78.5t99 56t129.5 21.5q152 0 250 -86.5t98 -232.5t-98.5 -246.5t-254.5 -100.5q-86 0 -154.5 30.5t-108.5 80t-60.5 106.5t-20.5 117zM146 343q0 -146 78.5 -234t199.5 -88q27 0 55 6t62.5 25t60 49t43 84t17.5 124
q0 146 -76.5 228.5t-186.5 82.5q-114 0 -183.5 -71t-69.5 -206zM361 828q15 20 17 20q6 0 13 -3q9 -4 37 -22q8 -6 3 -9q-1 -1 -6 -2.5t-11.5 -4t-12.5 -6.5q-66 -42 -98 -75q-10 -11 -14 -11q-7 0 -3 9q2 6 33.5 49t41.5 55zM491 830q16 18 19 18q6 0 14 -4q15 -9 35 -25
q8 -8 1 -10l-6 -1q-5 -1 -12 -3t-13 -6q-51 -27 -106 -75q-8 -9 -14 -9t-3 8q2 6 38 50.5t47 56.5z" />
    <glyph glyph-name="OE" unicode="&#x152;" horiz-adv-x="1187" 
d="M839 704v-276q0 -10 6 -10q136 0 159 2q37 3 47 14q11 13 15 13q5 0 5 -8q0 -2 -1.5 -9t-3.5 -20t-3 -27q-4 -40 -4 -57q0 -16 -7 -16q-6 0 -8 11q0 13 -3 24q-9 30 -59 35q-20 2 -136 2q-7 0 -7 -9v-45v-213q2 -52 22.5 -66.5t93.5 -14.5q70 0 96 11q19 8 29.5 24
t15.5 47q3 15 9 15t6 -15q0 -7 -5 -44.5t-8 -51.5q-5 -19 -14 -22.5t-40 -3.5q-52 0 -169 3q-59 3 -78 3q-4 0 -10.5 -0.5t-9.5 -0.5q-10 -2 -14 -2q-10 0 -10 7q0 3 1.5 12.5t1.5 17.5l2 88h-3q-41 -46 -67 -66q-97 -73 -236 -73q-98 0 -175 35.5t-122 93.5t-68 125
t-23 138q0 52 14.5 104.5t46 104.5t77 92.5t113.5 65.5t149 25q189 0 288 -125h4v65q0 9 -1 22t-1 15q0 9 10 9q1 0 4.5 -0.5t6.5 -0.5q12 -2 20 -2q208 0 231 1q29 2 43 5q2 0 6.5 2.5t7.5 2.5q4 0 4 -9q0 -3 -3 -17t-5 -28q0 -2 -2 -30.5t-3 -35.5q-2 -11 -7 -11
q-8 0 -8 13q0 22 -6 36t-20 22t-51 12q-25 3 -137 3q-6 0 -6 -12zM478 21q31 0 63.5 7.5t72.5 30t70 58.5t50.5 100t20.5 147q0 172 -89.5 270.5t-215.5 98.5q-130 0 -210.5 -85t-80.5 -244q0 -172 91 -277.5t228 -105.5z" />
    <glyph glyph-name="oe" unicode="&#x153;" horiz-adv-x="1057" 
d="M744 595v-230q0 -9 6 -9q124 0 145 2q34 3 41 11q9 11 13 11t4 -7q0 -2 -1.5 -7.5t-3 -16.5t-2.5 -23q-3 -25 -3 -49q0 -13 -7 -13q-8 0 -8 9q0 11 -3 20q-6 24 -50 28q-17 2 -125 2q-6 0 -6 -8v-36v-68.5v-76.5v-38q2 -42 21.5 -53t85.5 -11t84 9q31 15 38 58q3 12 9 12
q7 0 7 -12q0 -7 -4.5 -39t-7.5 -43q-4 -16 -12 -19t-35 -3q-56 0 -158 3q-68 2 -71 2q-8 0 -15.5 -1.5t-10.5 -1.5q-8 0 -8 6q0 3 1 11t1 15l2 80h-3l-22.5 -25.5t-35 -30.5t-53 -34t-69 -22.5t-91.5 -10.5q-86 0 -154 30t-107.5 79t-60 106.5t-20.5 117.5q0 55 21 111.5
t62 107t111 82.5t158 32q168 0 259 -111h3v60q0 8 -0.5 18.5t-0.5 12.5q0 8 8 8q1 0 8.5 -1t15.5 -1h214q3 0 38 5q1 0 5.5 2t6.5 2q4 0 4 -8q0 -2 -3 -13.5t-4 -24.5q0 -1 -2 -26t-3 -31q-2 -9 -7 -9q-8 0 -8 11q0 18 -5 30q-10 20 -61 27q-22 3 -125 3q-6 0 -6 -11z
M422 21q27 0 56 6.5t64.5 25.5t62.5 49.5t45.5 84t18.5 122.5q0 142 -80.5 226.5t-191.5 84.5q-114 0 -183 -71.5t-69 -205.5q0 -143 78.5 -232.5t198.5 -89.5z" />
    <glyph glyph-name="Racute" unicode="&#x154;" horiz-adv-x="754" 
d="M178 287v176q0 184 -2 216q-2 27 -10.5 39.5t-32.5 17.5q-12 3 -34 3q-8 0 -8 6q0 8 16 8q20 0 47 -0.5t46 -1.5t20 -1q3 0 51.5 1.5t66.5 1.5q122 0 183 -44q25 -18 47 -54t22 -82q0 -119 -121 -231q159 -204 208 -256q59 -62 122 -72q19 -3 39 -3q9 0 9 -6q0 -8 -24 -8
h-71q-72 0 -107 19q-20 11 -44.5 36t-36.5 40.5l-54 70.5l-109 148q-6 6 -13 6l-123 2q-7 0 -7 -8v-24q0 -175 5 -217q3 -25 10.5 -38.5t28.5 -16.5q28 -4 45 -4q8 0 8 -6q0 -8 -16 -8q-24 0 -53.5 0.5t-49 1.5t-20.5 1h-7q-7 -1 -18 -1.5t-23 -0.5t-25 -0.5t-21 -0.5
q-16 0 -16 8q0 6 8 6q12 0 30 4q22 4 29 55q5 42 5 217zM258 703v-327q0 -8 7 -12q27 -16 105 -16q48 0 75 19q61 42 61 154q0 94 -46.5 147t-126.5 53q-47 0 -67 -6q-8 -3 -8 -12zM484 933q4 -5 25 -44q7 -12 -4 -12l-5 1h-10.5t-14.5 -1q-70 -7 -152 -42q-12 -5 -15 -5
q-5 0 -5 6q0 4 7 8q59 41 136 85q22 13 28 13q4 0 10 -9z" />
    <glyph glyph-name="racute" unicode="&#x155;" horiz-adv-x="672" 
d="M155 244v150q0 156 -2 183q-2 24 -8.5 34t-27.5 13q-14 2 -30 2q-7 0 -7 7t14 7q18 0 42.5 -0.5t42.5 -1t19 -0.5q2 0 48 1t62 1q111 0 164 -37q23 -16 42 -46.5t19 -69.5q0 -102 -108 -194q137 -171 184 -220q52 -53 98 -59q17 -3 31 -3q8 0 8 -7t-21 -7h-55
q-63 0 -94 17q-18 10 -38.5 29.5t-35.5 37.5l-46 58l-53.5 69.5l-41.5 54.5q-5 5 -12 5l-112 2q-6 0 -6 -7v-20q0 -148 4 -183q3 -21 9.5 -31.5t25.5 -13.5q24 -4 39 -4q7 0 7 -7t-14 -7q-21 0 -47 0.5t-43 1.5l-18 1h-6q-7 -1 -17.5 -1.5t-21.5 -0.5t-22.5 -0.5t-19.5 -0.5
q-14 0 -14 7t7 7q11 0 27 4q8 2 12.5 9t6 13.5t4.5 22.5q5 35 5 184zM231 595v-273q0 -6 6 -11q24 -13 97 -13q44 0 66 15q53 35 53 130q0 79 -40.5 123t-111.5 44q-41 0 -63 -5q-7 -3 -7 -10zM443 818q4 -5 25 -44q7 -12 -4 -12h-30q-70 -7 -152 -42q-12 -5 -15 -5
q-5 0 -5 6q0 4 7 8q59 41 136 85q22 13 28 13q4 0 10 -9z" />
    <glyph glyph-name="Rcommaaccent" unicode="&#x156;" horiz-adv-x="754" 
d="M178 287v176q0 184 -2 216q-2 27 -10.5 39.5t-32.5 17.5q-12 3 -34 3q-8 0 -8 6q0 8 16 8q20 0 47 -0.5t46 -1.5t20 -1q3 0 51.5 1.5t66.5 1.5q122 0 183 -44q25 -18 47 -54t22 -82q0 -119 -121 -231q159 -204 208 -256q59 -62 122 -72q19 -3 39 -3q9 0 9 -6q0 -8 -24 -8
h-71q-72 0 -107 19q-20 11 -44.5 36t-36.5 40.5l-54 70.5l-109 148q-6 6 -13 6l-123 2q-7 0 -7 -8v-24q0 -175 5 -217q3 -25 10.5 -38.5t28.5 -16.5q28 -4 45 -4q8 0 8 -6q0 -8 -16 -8q-24 0 -53.5 0.5t-49 1.5t-20.5 1h-7q-7 -1 -18 -1.5t-23 -0.5t-25 -0.5t-21 -0.5
q-16 0 -16 8q0 6 8 6q12 0 30 4q22 4 29 55q5 42 5 217zM258 703v-327q0 -8 7 -12q27 -16 105 -16q48 0 75 19q61 42 61 154q0 94 -46.5 147t-126.5 53q-47 0 -67 -6q-8 -3 -8 -12zM428 -148q0 19 -8 33.5t-16 22t-8 11.5q0 19 19.5 35.5t39.5 16.5q6 0 17 -18
q16 -25 16 -41q0 -15 -9 -37q-22 -60 -61 -102q-7 -9 -13 -9t-6 7q0 1 6 13q23 40 23 68z" />
    <glyph glyph-name="rcommaaccent" unicode="&#x157;" horiz-adv-x="672" 
d="M155 244v150q0 156 -2 183q-2 24 -8.5 34t-27.5 13q-14 2 -30 2q-7 0 -7 7t14 7q18 0 42.5 -0.5t42.5 -1t19 -0.5q2 0 48 1t62 1q111 0 164 -37q23 -16 42 -46.5t19 -69.5q0 -102 -108 -194q137 -171 184 -220q52 -53 98 -59q17 -3 31 -3q8 0 8 -7t-21 -7h-55
q-63 0 -94 17q-18 10 -38.5 29.5t-35.5 37.5l-46 58l-53.5 69.5l-41.5 54.5q-5 5 -12 5l-112 2q-6 0 -6 -7v-20q0 -148 4 -183q3 -21 9.5 -31.5t25.5 -13.5q24 -4 39 -4q7 0 7 -7t-14 -7q-21 0 -47 0.5t-43 1.5l-18 1h-6q-7 -1 -17.5 -1.5t-21.5 -0.5t-22.5 -0.5t-19.5 -0.5
q-14 0 -14 7t7 7q11 0 27 4q8 2 12.5 9t6 13.5t4.5 22.5q5 35 5 184zM231 595v-273q0 -6 6 -11q24 -13 97 -13q44 0 66 15q53 35 53 130q0 79 -40.5 123t-111.5 44q-41 0 -63 -5q-7 -3 -7 -10zM382 -168q0 19 -8 33.5t-16 22t-8 11.5q0 19 19.5 35.5t39.5 16.5q6 0 17 -18
q16 -25 16 -41q0 -15 -9 -37q-22 -60 -61 -102q-7 -9 -13 -9t-6 7q0 1 6 13q23 40 23 68z" />
    <glyph glyph-name="Rcaron" unicode="&#x158;" horiz-adv-x="754" 
d="M178 287v176q0 184 -2 216q-2 27 -10.5 39.5t-32.5 17.5q-12 3 -34 3q-8 0 -8 6q0 8 16 8q20 0 47 -0.5t46 -1.5t20 -1q3 0 51.5 1.5t66.5 1.5q122 0 183 -44q25 -18 47 -54t22 -82q0 -119 -121 -231q159 -204 208 -256q59 -62 122 -72q19 -3 39 -3q9 0 9 -6q0 -8 -24 -8
h-71q-72 0 -107 19q-20 11 -44.5 36t-36.5 40.5l-54 70.5l-109 148q-6 6 -13 6l-123 2q-7 0 -7 -8v-24q0 -175 5 -217q3 -25 10.5 -38.5t28.5 -16.5q28 -4 45 -4q8 0 8 -6q0 -8 -16 -8q-24 0 -53.5 0.5t-49 1.5t-20.5 1h-7q-7 -1 -18 -1.5t-23 -0.5t-25 -0.5t-21 -0.5
q-16 0 -16 8q0 6 8 6q12 0 30 4q22 4 29 55q5 42 5 217zM258 703v-327q0 -8 7 -12q27 -16 105 -16q48 0 75 19q61 42 61 154q0 94 -46.5 147t-126.5 53q-47 0 -67 -6q-8 -3 -8 -12zM230 920l21 22q6 6 9 6q4 0 8 -5q15 -16 44.5 -40t39.5 -29q8 -4 10 -4q6 0 16 5
q25 13 85 63q11 10 18 10t7 -8q0 -3 -6 -11q-24 -24 -112 -104q-11 -10 -17 -10q-4 0 -15 10l-101 76q-12 8 -12 10t5 9z" />
    <glyph glyph-name="rcaron" unicode="&#x159;" horiz-adv-x="672" 
d="M155 244v150q0 156 -2 183q-2 24 -8.5 34t-27.5 13q-14 2 -30 2q-7 0 -7 7t14 7q18 0 42.5 -0.5t42.5 -1t19 -0.5q2 0 48 1t62 1q111 0 164 -37q23 -16 42 -46.5t19 -69.5q0 -102 -108 -194q137 -171 184 -220q52 -53 98 -59q17 -3 31 -3q8 0 8 -7t-21 -7h-55
q-63 0 -94 17q-18 10 -38.5 29.5t-35.5 37.5l-46 58l-53.5 69.5l-41.5 54.5q-5 5 -12 5l-112 2q-6 0 -6 -7v-20q0 -148 4 -183q3 -21 9.5 -31.5t25.5 -13.5q24 -4 39 -4q7 0 7 -7t-14 -7q-21 0 -47 0.5t-43 1.5l-18 1h-6q-7 -1 -17.5 -1.5t-21.5 -0.5t-22.5 -0.5t-19.5 -0.5
q-14 0 -14 7t7 7q11 0 27 4q8 2 12.5 9t6 13.5t4.5 22.5q5 35 5 184zM231 595v-273q0 -6 6 -11q24 -13 97 -13q44 0 66 15q53 35 53 130q0 79 -40.5 123t-111.5 44q-41 0 -63 -5q-7 -3 -7 -10zM199 805l21 22q6 6 9 6q4 0 8 -5q15 -16 44.5 -40t39.5 -29q8 -4 10 -4
q6 0 16 5q25 13 85 63q11 10 18 10t7 -8q0 -3 -6 -11q-24 -24 -112 -104q-11 -10 -17 -10q-4 0 -15 10l-101 76q-12 8 -12 10t5 9z" />
    <glyph glyph-name="Sacute" unicode="&#x15a;" horiz-adv-x="570" 
d="M248 -17q-79 0 -134 27q-10 5 -12.5 11t-2.5 27q0 26 5 106q1 16 8 16t7 -11q0 -23 3 -37q11 -52 52 -77t96 -25q68 0 105.5 40t37.5 93q0 51 -24.5 88t-90.5 92l-45 37q-75 61 -102.5 111t-27.5 106q0 81 56 130.5t151 49.5q51 0 93 -10q24 -5 35 -5q10 0 10 -7l-1 -13
q-1 -13 -2 -38t-1 -55q0 -23 -7 -23q-6 0 -8 13q-3 31 -13 50q-29 53 -125 53q-53 0 -88 -31.5t-35 -84.5q0 -43 25 -77.5t97 -90.5l28 -22q85 -67 115.5 -119t30.5 -116q0 -40 -19.5 -86.5t-65.5 -79.5q-60 -42 -151 -42zM447 933q4 -5 25 -44q7 -12 -4 -12h-30
q-70 -7 -152 -42q-12 -5 -15 -5q-5 0 -5 6q0 4 7 8q59 41 136 85q22 13 28 13q4 0 10 -9z" />
    <glyph glyph-name="sacute" unicode="&#x15b;" horiz-adv-x="524" 
d="M209 -14q-79 0 -128 23q-9 4 -11 9.5t-2 22.5q0 20 5 90q0 14 7 14q8 0 8 -10q0 -19 3 -31q10 -43 49.5 -63.5t89.5 -20.5q63 0 97.5 31.5t34.5 81.5q0 43 -23.5 71.5t-87.5 76.5l-40 30q-69 52 -97.5 94t-28.5 88q0 74 53.5 117t141.5 43q49 0 91 -10q17 -4 31 -4
q9 0 9 -6l-1 -11q-1 -11 -2 -32t-1 -47q0 -19 -7 -19q-6 0 -8 11q-2 23 -13 42q-5 8 -14.5 16t-36.5 17t-63 9q-50 0 -83.5 -24.5t-33.5 -67.5q0 -40 24 -69.5t90 -74.5l25 -17q79 -54 111.5 -101.5t32.5 -103.5q0 -92 -82 -145q-46 -30 -140 -30zM390 818q4 -5 25 -44
q7 -12 -4 -12h-30q-70 -7 -152 -42q-12 -5 -15 -5q-5 0 -5 6q0 4 7 8q59 41 136 85q22 13 28 13q4 0 10 -9z" />
    <glyph glyph-name="Scedilla" unicode="&#x15e;" horiz-adv-x="570" 
d="M310 448l28 -22q85 -67 115.5 -119t30.5 -116q0 -40 -19.5 -86.5t-65.5 -79.5q-26 -18 -61 -29q-17 -10 -71 -64q100 -10 100 -71q0 -27 -21 -48.5t-50 -33.5q-41 -18 -78 -18q-13 0 -13 8q0 9 20 11q29 3 51.5 19.5t22.5 41.5q0 52 -72 73q-15 4 -15 9q0 4 13 14l59 49
q-12 -2 -18 -2q-6 -1 -18 -1q-79 0 -134 27q-10 5 -12.5 11t-2.5 27q0 26 5 106q1 16 8 16t7 -11q0 -23 3 -37q11 -52 52 -77t96 -25q68 0 105.5 40t37.5 93q0 51 -24.5 88t-90.5 92l-45 37q-75 61 -102.5 111t-27.5 106q0 81 56 130.5t151 49.5q51 0 93 -10q24 -5 35 -5
q10 0 10 -7l-1 -13q-1 -13 -2 -38t-1 -55q0 -23 -7 -23q-6 0 -8 13q-3 31 -13 50q-29 53 -125 53q-53 0 -88 -31.5t-35 -84.5q0 -43 25 -77.5t97 -90.5z" />
    <glyph glyph-name="scedilla" unicode="&#x15f;" horiz-adv-x="524" 
d="M283 -8q-49 -41 -65 -60q100 -10 100 -71q0 -27 -21 -48.5t-50 -33.5q-41 -18 -78 -18q-13 0 -13 8q0 9 20 11q29 3 51.5 19.5t22.5 41.5q0 52 -72 73q-15 4 -15 9q0 4 13 14l60 50q-9 -1 -27 -1q-79 0 -128 23q-9 4 -11 9.5t-2 22.5q0 20 5 90q0 14 7 14q8 0 8 -10
q0 -19 3 -31q10 -43 49.5 -63.5t89.5 -20.5q63 0 97.5 31.5t34.5 81.5q0 43 -23.5 71.5t-87.5 76.5l-40 30q-69 52 -97.5 94t-28.5 88q0 74 53.5 117t141.5 43q49 0 91 -10q17 -4 31 -4q9 0 9 -6l-1 -11q-1 -11 -2 -32t-1 -47q0 -19 -7 -19q-6 0 -8 11q-2 23 -13 42
q-5 8 -14.5 16t-36.5 17t-63 9q-50 0 -83.5 -24.5t-33.5 -67.5q0 -40 24 -69.5t90 -74.5l25 -17q79 -54 111.5 -101.5t32.5 -103.5q0 -92 -82 -145q-28 -18 -66 -24z" />
    <glyph glyph-name="Scaron" unicode="&#x160;" horiz-adv-x="570" 
d="M248 -17q-79 0 -134 27q-10 5 -12.5 11t-2.5 27q0 26 5 106q1 16 8 16t7 -11q0 -23 3 -37q11 -52 52 -77t96 -25q68 0 105.5 40t37.5 93q0 51 -24.5 88t-90.5 92l-45 37q-75 61 -102.5 111t-27.5 106q0 81 56 130.5t151 49.5q51 0 93 -10q24 -5 35 -5q10 0 10 -7l-1 -13
q-1 -13 -2 -38t-1 -55q0 -23 -7 -23q-6 0 -8 13q-3 31 -13 50q-29 53 -125 53q-53 0 -88 -31.5t-35 -84.5q0 -43 25 -77.5t97 -90.5l28 -22q85 -67 115.5 -119t30.5 -116q0 -40 -19.5 -86.5t-65.5 -79.5q-60 -42 -151 -42zM178 920l21 22q6 6 9 6q4 0 8 -5q15 -16 44.5 -40
t39.5 -29q8 -4 10 -4q6 0 16 5q25 13 85 63q11 10 18 10t7 -8q0 -3 -6 -11q-24 -24 -112 -104q-11 -10 -17 -10q-4 0 -15 10l-101 76q-12 8 -12 10t5 9z" />
    <glyph glyph-name="scaron" unicode="&#x161;" horiz-adv-x="524" 
d="M209 -14q-79 0 -128 23q-9 4 -11 9.5t-2 22.5q0 20 5 90q0 14 7 14q8 0 8 -10q0 -19 3 -31q10 -43 49.5 -63.5t89.5 -20.5q63 0 97.5 31.5t34.5 81.5q0 43 -23.5 71.5t-87.5 76.5l-40 30q-69 52 -97.5 94t-28.5 88q0 74 53.5 117t141.5 43q49 0 91 -10q17 -4 31 -4
q9 0 9 -6l-1 -11q-1 -11 -2 -32t-1 -47q0 -19 -7 -19q-6 0 -8 11q-2 23 -13 42q-5 8 -14.5 16t-36.5 17t-63 9q-50 0 -83.5 -24.5t-33.5 -67.5q0 -40 24 -69.5t90 -74.5l25 -17q79 -54 111.5 -101.5t32.5 -103.5q0 -92 -82 -145q-46 -30 -140 -30zM145 805l21 22q6 6 9 6
q4 0 8 -5q15 -16 44.5 -40t39.5 -29q8 -4 10 -4q6 0 16 5q25 13 85 63q11 10 18 10t7 -8q0 -3 -6 -11q-24 -24 -112 -104q-11 -10 -17 -10q-4 0 -15 10l-101 76q-12 8 -12 10t5 9z" />
    <glyph glyph-name="Tcommaaccent" unicode="&#x162;" horiz-adv-x="691" 
d="M391 710v-423q0 -175 5 -217q3 -25 10.5 -38.5t28.5 -16.5q28 -4 45 -4q8 0 8 -6q0 -8 -16 -8q-24 0 -53.5 0.5t-49 1.5t-20.5 1t-19.5 -1t-42 -1.5t-36.5 -0.5q-16 0 -16 8q0 6 8 6q12 0 30 4q22 4 29 55q5 42 5 217v423l-148 -2q-47 -1 -68.5 -7.5t-33.5 -24.5
q-11 -17 -17 -31q-4 -10 -10 -10q-5 0 -5 9q0 16 22 104q6 19 10 19q2 0 15 -5.5t29 -6.5q48 -5 79 -5h375q44 0 71 5l12.5 2t10 2t5.5 1q5 0 5 -12q0 -17 -1.5 -62t-1.5 -48q0 -13 -7 -13t-8 17l-1 11q-5 53 -123 55zM336 -168q0 19 -8 33.5t-16 22t-8 11.5q0 19 19.5 35.5
t39.5 16.5q6 0 17 -18q16 -25 16 -41q0 -15 -9 -37q-22 -60 -61 -102q-7 -9 -13 -9t-6 7q0 1 6 13q23 40 23 68z" />
    <glyph glyph-name="tcommaaccent" unicode="&#x163;" horiz-adv-x="610" 
d="M347 601v-357q0 -149 4 -184q3 -22 9 -32t25 -13q24 -4 40 -4q7 0 7 -7t-14 -7q-21 0 -47 0.5t-43.5 1.5t-18.5 1t-18.5 -1t-39.5 -1.5t-33 -0.5q-14 0 -14 7q0 6 7 6q10 0 26 4q21 5 26 46q4 35 4 184v357l-127 -2q-42 -1 -60.5 -6.5t-28.5 -20.5q-2 -3 -14 -27
q-2 -8 -9 -8q-6 0 -6 7q0 5 9.5 48t9.5 44q6 16 9 16q2 0 13.5 -4t25.5 -6q33 -4 69 -4h332q35 0 63 4q5 1 11 2l9 1.5t5 0.5q4 0 4 -10q0 -15 -1.5 -54.5t-1.5 -42.5q0 -11 -8 -11q-6 0 -7 15l-1 9q-3 22 -25 34t-81 13zM291 -168q0 19 -8 33.5t-16 22t-8 11.5
q0 19 19.5 35.5t39.5 16.5q6 0 17 -18q16 -25 16 -41q0 -15 -9 -37q-22 -60 -61 -102q-7 -9 -13 -9t-6 7q0 1 6 13q23 40 23 68z" />
    <glyph glyph-name="Tcaron" unicode="&#x164;" horiz-adv-x="691" 
d="M391 710v-423q0 -175 5 -217q3 -25 10.5 -38.5t28.5 -16.5q28 -4 45 -4q8 0 8 -6q0 -8 -16 -8q-24 0 -53.5 0.5t-49 1.5t-20.5 1t-19.5 -1t-42 -1.5t-36.5 -0.5q-16 0 -16 8q0 6 8 6q12 0 30 4q22 4 29 55q5 42 5 217v423l-148 -2q-47 -1 -68.5 -7.5t-33.5 -24.5
q-11 -17 -17 -31q-4 -10 -10 -10q-5 0 -5 9q0 16 22 104q6 19 10 19q2 0 15 -5.5t29 -6.5q48 -5 79 -5h375q44 0 71 5l12.5 2t10 2t5.5 1q5 0 5 -12q0 -17 -1.5 -62t-1.5 -48q0 -13 -7 -13t-8 17l-1 11q-5 53 -123 55zM224 920l21 22q6 6 9 6q4 0 8 -5q15 -16 44.5 -40
t39.5 -29q8 -4 10 -4q6 0 16 5q25 13 85 63q11 10 18 10t7 -8q0 -3 -6 -11q-24 -24 -112 -104q-11 -10 -17 -10q-4 0 -15 10l-101 76q-12 8 -12 10t5 9z" />
    <glyph glyph-name="tcaron" unicode="&#x165;" horiz-adv-x="610" 
d="M347 601v-357q0 -149 4 -184q3 -22 9 -32t25 -13q24 -4 40 -4q7 0 7 -7t-14 -7q-21 0 -47 0.5t-43.5 1.5t-18.5 1t-18.5 -1t-39.5 -1.5t-33 -0.5q-14 0 -14 7q0 6 7 6q10 0 26 4q21 5 26 46q4 35 4 184v357l-127 -2q-42 -1 -60.5 -6.5t-28.5 -20.5q-2 -3 -14 -27
q-2 -8 -9 -8q-6 0 -6 7q0 5 9.5 48t9.5 44q6 16 9 16q2 0 13.5 -4t25.5 -6q33 -4 69 -4h332q35 0 63 4q5 1 11 2l9 1.5t5 0.5q4 0 4 -10q0 -15 -1.5 -54.5t-1.5 -42.5q0 -11 -8 -11q-6 0 -7 15l-1 9q-3 22 -25 34t-81 13zM188 805l21 22q6 6 9 6q4 0 8 -5q15 -16 44.5 -40
t39.5 -29q8 -4 10 -4q6 0 16 5q25 13 85 63q11 10 18 10t7 -8q0 -3 -6 -11q-24 -24 -112 -104q-11 -10 -17 -10q-4 0 -15 10l-101 76q-12 8 -12 10t5 9z" />
    <glyph glyph-name="Umacron" unicode="&#x16a;" horiz-adv-x="830" 
d="M120 317v146q0 184 -2 216q-2 27 -10.5 39.5t-32.5 17.5q-12 3 -34 3q-8 0 -8 6q0 8 16 8q27 0 71 -1l44 -2q2 0 41.5 1.5t57.5 1.5q16 0 16 -8q0 -6 -8 -6q-7 0 -25 -3q-19 -3 -27 -16t-10 -41q-2 -32 -2 -216v-140q0 -100 19.5 -156.5t55.5 -90.5q34 -32 69 -43.5
t82 -11.5q45 0 87.5 19.5t69.5 52.5q58 72 58 245v125q0 184 -2 216q-2 27 -10.5 39.5t-32.5 17.5q-12 3 -34 3q-8 0 -8 6q0 8 16 8q20 0 45 -0.5t42.5 -1.5t18.5 -1t33.5 1.5t50.5 1.5q16 0 16 -8q0 -6 -8 -6q-7 0 -25 -3q-20 -4 -27.5 -17t-9.5 -40q-2 -32 -2 -216v-107
q0 -99 -19 -175t-73 -124q-83 -74 -206 -74q-131 0 -206 71q-87 83 -87 263zM322 900h235q12 0 8 -10l-8 -22q-1 -6 -9 -6h-235q-6 0 -8.5 1.5t-1.5 5.5l8 25q1 6 11 6z" />
    <glyph glyph-name="umacron" unicode="&#x16b;" horiz-adv-x="732" 
d="M110 269v125q0 156 -2 183q-2 23 -9 33.5t-27 13.5q-14 2 -30 2q-7 0 -7 7t14 7q18 0 41 -0.5t40.5 -1t19.5 -0.5t38 1t51 1t15 -7t-8 -7q-11 0 -22 -2q-16 -3 -22 -13.5t-8 -33.5q-2 -27 -2 -183v-119q0 -86 16.5 -133t48.5 -75q30 -27 60 -36.5t71 -9.5q40 0 76.5 16.5
t59.5 43.5q50 60 50 206v107q0 129 -2 183q-1 22 -8 33t-27 14q-14 2 -30 2q-7 0 -7 7t14 7q17 0 39.5 -0.5t38.5 -1t17 -0.5t30 1t44 1q14 0 14 -7t-7 -7q-11 0 -22 -2q-17 -4 -23 -14t-8 -33q-1 -14 -1 -183v-91q0 -185 -82 -255q-72 -62 -184 -62q-119 0 -183 60
q-77 72 -77 223zM273 785h235q12 0 8 -10l-8 -22q-2 -6 -9 -6h-235q-6 0 -8.5 1.5t-1.5 5.5l8 25q1 6 11 6z" />
    <glyph glyph-name="Uring" unicode="&#x16e;" horiz-adv-x="830" 
d="M120 317v146q0 184 -2 216q-2 27 -10.5 39.5t-32.5 17.5q-12 3 -34 3q-8 0 -8 6q0 8 16 8q27 0 71 -1l44 -2q2 0 41.5 1.5t57.5 1.5q16 0 16 -8q0 -6 -8 -6q-7 0 -25 -3q-19 -3 -27 -16t-10 -41q-2 -32 -2 -216v-140q0 -100 19.5 -156.5t55.5 -90.5q34 -32 69 -43.5
t82 -11.5q45 0 87.5 19.5t69.5 52.5q58 72 58 245v125q0 184 -2 216q-2 27 -10.5 39.5t-32.5 17.5q-12 3 -34 3q-8 0 -8 6q0 8 16 8q20 0 45 -0.5t42.5 -1.5t18.5 -1t33.5 1.5t50.5 1.5q16 0 16 -8q0 -6 -8 -6q-7 0 -25 -3q-20 -4 -27.5 -17t-9.5 -40q-2 -32 -2 -216v-107
q0 -99 -19 -175t-73 -124q-83 -74 -206 -74q-131 0 -206 71q-87 83 -87 263zM413 820q-37 0 -57.5 16.5t-20.5 42.5q0 35 33.5 60.5t84.5 25.5q38 0 60 -15.5t22 -41.5q1 -39 -37 -63.5t-85 -24.5zM429 844q25 0 42 15t17 36q0 19 -13 32.5t-39 13.5q-20 0 -38.5 -13
t-18.5 -36q0 -21 15.5 -34.5t34.5 -13.5z" />
    <glyph glyph-name="uring" unicode="&#x16f;" horiz-adv-x="732" 
d="M110 269v125q0 156 -2 183q-2 23 -9 33.5t-27 13.5q-14 2 -30 2q-7 0 -7 7t14 7q18 0 41 -0.5t40.5 -1t19.5 -0.5t38 1t51 1t15 -7t-8 -7q-11 0 -22 -2q-16 -3 -22 -13.5t-8 -33.5q-2 -27 -2 -183v-119q0 -86 16.5 -133t48.5 -75q30 -27 60 -36.5t71 -9.5q40 0 76.5 16.5
t59.5 43.5q50 60 50 206v107q0 129 -2 183q-1 22 -8 33t-27 14q-14 2 -30 2q-7 0 -7 7t14 7q17 0 39.5 -0.5t38.5 -1t17 -0.5t30 1t44 1q14 0 14 -7t-7 -7q-11 0 -22 -2q-17 -4 -23 -14t-8 -33q-1 -14 -1 -183v-91q0 -185 -82 -255q-72 -62 -184 -62q-119 0 -183 60
q-77 72 -77 223zM364 705q-37 0 -57.5 16.5t-20.5 42.5q0 35 33.5 60.5t84.5 25.5q38 0 60 -15.5t22 -41.5q1 -39 -37 -63.5t-85 -24.5zM380 729q25 0 42 15t17 36q0 20 -13.5 33t-38.5 13q-20 0 -38.5 -13t-18.5 -36q0 -21 15.5 -34.5t34.5 -13.5z" />
    <glyph glyph-name="Uhungarumlaut" unicode="&#x170;" horiz-adv-x="830" 
d="M120 317v146q0 184 -2 216q-2 27 -10.5 39.5t-32.5 17.5q-12 3 -34 3q-8 0 -8 6q0 8 16 8q27 0 71 -1l44 -2q2 0 41.5 1.5t57.5 1.5q16 0 16 -8q0 -6 -8 -6q-7 0 -25 -3q-19 -3 -27 -16t-10 -41q-2 -32 -2 -216v-140q0 -100 19.5 -156.5t55.5 -90.5q34 -32 69 -43.5
t82 -11.5q45 0 87.5 19.5t69.5 52.5q58 72 58 245v125q0 184 -2 216q-2 27 -10.5 39.5t-32.5 17.5q-12 3 -34 3q-8 0 -8 6q0 8 16 8q20 0 45 -0.5t42.5 -1.5t18.5 -1t33.5 1.5t50.5 1.5q16 0 16 -8q0 -6 -8 -6q-7 0 -25 -3q-20 -4 -27.5 -17t-9.5 -40q-2 -32 -2 -216v-107
q0 -99 -19 -175t-73 -124q-83 -74 -206 -74q-131 0 -206 71q-87 83 -87 263zM423 943q15 20 17 20q6 0 13 -3q9 -4 37 -22q8 -6 3 -9q-1 -1 -6 -2.5t-11.5 -4t-12.5 -6.5q-66 -42 -98 -75q-10 -11 -14 -11q-7 0 -3 9q2 6 33.5 49t41.5 55zM553 945q17 18 19 18q6 0 14 -4
q15 -9 35 -25q8 -8 1 -10l-6 -1q-5 -1 -12 -3t-13 -6q-51 -27 -106 -75q-8 -9 -14 -9t-3 8q2 6 38 50.5t47 56.5z" />
    <glyph glyph-name="uhungarumlaut" unicode="&#x171;" horiz-adv-x="732" 
d="M110 269v125q0 156 -2 183q-2 23 -9 33.5t-27 13.5q-14 2 -30 2q-7 0 -7 7t14 7q18 0 41 -0.5t40.5 -1t19.5 -0.5t38 1t51 1t15 -7t-8 -7q-11 0 -22 -2q-16 -3 -22 -13.5t-8 -33.5q-2 -27 -2 -183v-119q0 -86 16.5 -133t48.5 -75q30 -27 60 -36.5t71 -9.5q40 0 76.5 16.5
t59.5 43.5q50 60 50 206v107q0 129 -2 183q-1 22 -8 33t-27 14q-14 2 -30 2q-7 0 -7 7t14 7q17 0 39.5 -0.5t38.5 -1t17 -0.5t30 1t44 1q14 0 14 -7t-7 -7q-11 0 -22 -2q-17 -4 -23 -14t-8 -33q-1 -14 -1 -183v-91q0 -185 -82 -255q-72 -62 -184 -62q-119 0 -183 60
q-77 72 -77 223zM353 828q15 20 17 20q6 0 13 -3q9 -4 37 -22q8 -6 3 -9q-1 -1 -6 -2.5t-11.5 -4t-12.5 -6.5q-66 -42 -98 -75q-10 -11 -14 -11q-7 0 -3 9q2 6 33.5 49t41.5 55zM483 830q17 18 19 18q6 0 14 -4q15 -9 35 -25q8 -8 1 -10l-6 -1q-5 -1 -12 -3t-13 -6
q-51 -27 -106 -75q-8 -9 -14 -9t-3 8q2 6 38 50.5t47 56.5z" />
    <glyph glyph-name="Uogonek" unicode="&#x172;" horiz-adv-x="830" 
d="M448 -129q0 -23 14.5 -36.5t36.5 -13.5q14 0 29.5 9t26 18t12.5 9q8 0 8 -6q0 -4 -8 -14q-9 -10 -22.5 -21.5t-41.5 -26t-54 -14.5q-38 0 -58.5 19.5t-20.5 50.5q0 65 89 141q-14 -2 -23 -2q-8 -1 -23 -1q-131 0 -206 71q-87 83 -87 263v146q0 184 -2 216
q-2 27 -10.5 39.5t-32.5 17.5q-12 3 -34 3q-8 0 -8 6q0 8 16 8q27 0 71 -1l44 -2q2 0 41.5 1.5t57.5 1.5q16 0 16 -8q0 -6 -8 -6q-7 0 -25 -3q-19 -3 -27 -16t-10 -41q-2 -32 -2 -216v-140q0 -100 19.5 -156.5t55.5 -90.5q34 -32 69 -43.5t82 -11.5q45 0 87.5 19.5
t69.5 52.5q58 72 58 245v125q0 184 -2 216q-2 27 -10.5 39.5t-32.5 17.5q-12 3 -34 3q-8 0 -8 6q0 8 16 8q20 0 45 -0.5t42.5 -1.5t18.5 -1t33.5 1.5t50.5 1.5q16 0 16 -8q0 -6 -8 -6q-7 0 -25 -3q-20 -4 -27.5 -17t-9.5 -40q-2 -32 -2 -216v-107q0 -99 -19 -175t-73 -124
q-16 -15 -35 -25t-40.5 -19t-32.5 -15q-29 -16 -46 -53t-17 -74z" />
    <glyph glyph-name="uogonek" unicode="&#x173;" horiz-adv-x="732" 
d="M407 -129q0 -23 14.5 -36.5t36.5 -13.5q14 0 29.5 9t26 18t12.5 9q8 0 8 -6q0 -4 -8 -14q-9 -10 -22.5 -21.5t-41.5 -26t-54 -14.5q-38 0 -58.5 19.5t-20.5 50.5q0 41 32.5 83t61.5 63q-4 -1 -13 -2t-13 -2q-5 0 -14 -0.5t-13 -0.5q-119 0 -183 60q-77 72 -77 223v125
q0 156 -2 183q-2 23 -9 33.5t-27 13.5q-14 2 -30 2q-7 0 -7 7t14 7q18 0 41 -0.5t40.5 -1t19.5 -0.5t38 1t51 1t15 -7t-8 -7q-11 0 -22 -2q-16 -3 -22 -13.5t-8 -33.5q-2 -27 -2 -183v-119q0 -86 16.5 -133t48.5 -75q30 -27 60 -36.5t71 -9.5q40 0 76.5 16.5t59.5 43.5
q50 60 50 206v107q0 129 -2 183q-1 22 -8 33t-27 14q-14 2 -30 2q-7 0 -7 7t14 7q17 0 39.5 -0.5t38.5 -1t17 -0.5t30 1t44 1q14 0 14 -7t-7 -7q-11 0 -22 -2q-17 -4 -23 -14t-8 -33q-1 -14 -1 -183v-91q0 -185 -82 -255q-18 -15 -50.5 -31l-36.5 -18q-24 -14 -42 -53
t-18 -75z" />
    <glyph glyph-name="Ydieresis" unicode="&#x178;" horiz-adv-x="654" 
d="M289 170v86q0 54 -23 105q-5 12 -77.5 131t-98.5 157q-35 52 -68 74q-24 16 -43 16q-10 0 -10 7t13 7q11 0 54.5 -1.5t44.5 -1.5q2 0 15 1t32.5 1.5t36.5 0.5q13 0 13 -7q0 -2 -15 -9q-13 -7 -13 -18q0 -15 13 -39l92 -159t92 -157q12 27 77.5 141.5l88.5 152.5
q17 27 17 51t-16 28q-15 5 -15 10q0 6 16 6q15 0 39.5 -1.5t26.5 -1.5q1 0 43.5 1.5t53.5 1.5q13 0 13 -6q0 -8 -13 -8q-24 0 -46 -14q-22 -13 -53 -51q-24 -29 -100.5 -157t-90.5 -161q-15 -36 -15 -100v-86q0 -58 3 -100q3 -50 41 -55q28 -4 45 -4q8 0 8 -6q0 -8 -16 -8
q-24 0 -53.5 0.5t-49 1.5t-20.5 1t-19.5 -1t-42 -1.5t-36.5 -0.5q-16 0 -16 8q0 6 8 6q12 0 30 4q28 6 31 55q3 42 3 100zM451 830q-21 0 -31.5 13t-10.5 30q0 16 11 29.5t32 13.5q19 0 31 -11t12 -29q0 -20 -12 -33t-32 -13zM250 830q-21 0 -31.5 13t-10.5 30q0 16 11 29.5
t32 13.5q19 0 31 -11t12 -29q0 -20 -12 -33t-32 -13z" />
    <glyph glyph-name="Zacute" unicode="&#x179;" horiz-adv-x="692" 
d="M184 40h272q73 0 106.5 12t51.5 37q15 22 20 54q3 16 9 16q8 0 8 -23q0 -32 -20 -115q-5 -18 -9 -22t-21 -4q-83 0 -252.5 2.5t-257.5 2.5q-18 0 -18 8q0 7 14 28q326 492 439 676h-217q-106 0 -144 -20q-25 -13 -39.5 -36t-17.5 -43q-2 -18 -11 -18q-6 0 -6 13t20 133
q3 19 10 19q3 0 14.5 -3t27.5 -4q71 -3 174 -3h279q20 0 20 -8q0 -6 -4 -12zM493 933q4 -5 25 -44q7 -12 -4 -12l-4 1h-11.5t-14.5 -1q-70 -7 -152 -42q-12 -5 -15 -5q-5 0 -5 6q0 4 7 8q59 41 136 85q22 13 28 13q4 0 10 -9z" />
    <glyph glyph-name="zacute" unicode="&#x17a;" horiz-adv-x="609" 
d="M172 37h234q65 0 92.5 9.5t44.5 29.5q9 11 18 46q3 13 10 13t7 -19q0 -35 -18 -98q-4 -16 -7.5 -19t-18.5 -3q-73 0 -222.5 2t-227.5 2q-16 0 -16 7q0 9 12 26l383 569h-186q-99 0 -125 -14q-21 -11 -34 -30.5t-16 -36.5q-2 -15 -12 -15q-5 0 -5 11q0 19 18 113
q1 16 8 16q3 0 13.5 -2.5t23.5 -3.5q56 -2 154 -2h246q18 0 18 -7q0 -9 -5 -15zM432 818q4 -5 25 -44q7 -12 -4 -12h-30q-70 -7 -152 -42q-12 -5 -15 -5q-5 0 -5 6q0 4 7 8q59 41 136 85q22 13 28 13q4 0 10 -9z" />
    <glyph glyph-name="Zdotaccent" unicode="&#x17b;" horiz-adv-x="692" 
d="M184 40h272q73 0 106.5 12t51.5 37q15 22 20 54q3 16 9 16q8 0 8 -23q0 -32 -20 -115q-5 -18 -9 -22t-21 -4q-83 0 -252.5 2.5t-257.5 2.5q-18 0 -18 8q0 7 14 28q326 492 439 676h-217q-106 0 -144 -20q-25 -13 -39.5 -36t-17.5 -43q-2 -18 -11 -18q-6 0 -6 13t20 133
q3 19 10 19q3 0 14.5 -3t27.5 -4q71 -3 174 -3h279q20 0 20 -8q0 -6 -4 -12zM360 830q-25 0 -38 15.5t-13 35.5q0 19 13 35.5t38 16.5q22 0 37 -13.5t15 -35.5q0 -23 -14.5 -38.5t-37.5 -15.5z" />
    <glyph glyph-name="zdotaccent" unicode="&#x17c;" horiz-adv-x="609" 
d="M172 37h234q65 0 92.5 9.5t44.5 29.5q9 11 18 46q3 13 10 13t7 -19q0 -35 -18 -98q-4 -16 -7.5 -19t-18.5 -3q-73 0 -222.5 2t-227.5 2q-16 0 -16 7q0 9 12 26l383 569h-186q-99 0 -125 -14q-21 -11 -34 -30.5t-16 -36.5q-2 -15 -12 -15q-5 0 -5 11q0 19 18 113
q1 16 8 16q3 0 13.5 -2.5t23.5 -3.5q56 -2 154 -2h246q18 0 18 -7q0 -9 -5 -15zM324 715q-25 0 -38 15.5t-13 35.5q0 19 13 35.5t38 16.5q22 0 37 -13.5t15 -35.5q0 -23 -14.5 -38.5t-37.5 -15.5z" />
    <glyph glyph-name="Zcaron" unicode="&#x17d;" horiz-adv-x="692" 
d="M184 40h272q73 0 106.5 12t51.5 37q15 22 20 54q3 16 9 16q8 0 8 -23q0 -32 -20 -115q-5 -18 -9 -22t-21 -4q-83 0 -252.5 2.5t-257.5 2.5q-18 0 -18 8q0 7 14 28q326 492 439 676h-217q-106 0 -144 -20q-25 -13 -39.5 -36t-17.5 -43q-2 -18 -11 -18q-6 0 -6 13t20 133
q3 19 10 19q3 0 14.5 -3t27.5 -4q71 -3 174 -3h279q20 0 20 -8q0 -6 -4 -12zM224 920l21 22q6 6 9 6q4 0 8 -5q15 -16 44.5 -40t39.5 -29q8 -4 10 -4q6 0 16 5q25 13 85 63q11 10 18 10t7 -8q0 -3 -6 -11q-24 -24 -112 -104q-11 -10 -17 -10q-4 0 -15 10l-101 76
q-12 8 -12 10t5 9z" />
    <glyph glyph-name="zcaron" unicode="&#x17e;" horiz-adv-x="609" 
d="M172 37h234q65 0 92.5 9.5t44.5 29.5q9 11 18 46q3 13 10 13t7 -19q0 -35 -18 -98q-4 -16 -7.5 -19t-18.5 -3q-73 0 -222.5 2t-227.5 2q-16 0 -16 7q0 9 12 26l383 569h-186q-99 0 -125 -14q-21 -11 -34 -30.5t-16 -36.5q-2 -15 -12 -15q-5 0 -5 11q0 19 18 113
q1 16 8 16q3 0 13.5 -2.5t23.5 -3.5q56 -2 154 -2h246q18 0 18 -7q0 -9 -5 -15zM198 805l21 22q6 6 9 6q4 0 8 -5q15 -16 44.5 -40t39.5 -29q8 -4 10 -4q6 0 16 5q25 13 85 63q11 10 18 10t7 -8q0 -3 -6 -11q-24 -24 -112 -104q-11 -10 -17 -10q-4 0 -15 10l-101 76
q-12 8 -12 10t5 9z" />
    <glyph glyph-name="florin" unicode="&#x192;" horiz-adv-x="571" 
d="M200 342h-41q-59 0 -75 -3q-5 -1 -8 2t-1 7l10 20q6 12 14 12l16 -2q16 -1 30 -1h61q20 217 97 311q32 38 69 58.5t95 20.5t100 -18q12 -5 12 -15q0 -28 -11 -108q-3 -19 -9 -19q-7 0 -7 19q0 34 -16 66q-21 41 -82 41q-87 0 -123 -83q-27 -62 -50 -273h116q20 0 35.5 1
t24 2t10.5 1q13 0 5 -15l-11 -19q-6 -10 -20 -10q-2 0 -17.5 1t-37 2t-38.5 1h-70q-1 -7 -19 -148.5t-28 -191.5q-18 -90 -48.5 -142t-80.5 -76q-30 -15 -72 -15q-37 0 -37 9q0 10 7 10q43 0 70 10.5t47 43.5q32 53 51 220z" />
    <glyph glyph-name="Scommaaccent" unicode="&#x218;" horiz-adv-x="570" 
d="M248 -17q-79 0 -134 27q-10 5 -12.5 11t-2.5 27q0 26 5 106q1 16 8 16t7 -11q0 -23 3 -37q11 -52 52 -77t96 -25q68 0 105.5 40t37.5 93q0 51 -24.5 88t-90.5 92l-45 37q-75 61 -102.5 111t-27.5 106q0 81 56 130.5t151 49.5q51 0 93 -10q24 -5 35 -5q10 0 10 -7l-1 -13
q-1 -13 -2 -38t-1 -55q0 -23 -7 -23q-6 0 -8 13q-3 31 -13 50q-29 53 -125 53q-53 0 -88 -31.5t-35 -84.5q0 -43 25 -77.5t97 -90.5l28 -22q85 -67 115.5 -119t30.5 -116q0 -40 -19.5 -86.5t-65.5 -79.5q-60 -42 -151 -42zM271 -168q0 19 -8 33.5t-16 22t-8 11.5
q0 19 19.5 35.5t39.5 16.5q6 0 17 -18q16 -25 16 -41q0 -15 -9 -37q-22 -60 -61 -102q-7 -9 -13 -9t-6 7q0 1 6 13q23 40 23 68z" />
    <glyph glyph-name="scommaaccent" unicode="&#x219;" horiz-adv-x="524" 
d="M209 -14q-79 0 -128 23q-9 4 -11 9.5t-2 22.5q0 20 5 90q0 14 7 14q8 0 8 -10q0 -19 3 -31q10 -43 49.5 -63.5t89.5 -20.5q63 0 97.5 31.5t34.5 81.5q0 43 -23.5 71.5t-87.5 76.5l-40 30q-69 52 -97.5 94t-28.5 88q0 74 53.5 117t141.5 43q49 0 91 -10q17 -4 31 -4
q9 0 9 -6l-1 -11q-1 -11 -2 -32t-1 -47q0 -19 -7 -19q-6 0 -8 11q-2 23 -13 42q-5 8 -14.5 16t-36.5 17t-63 9q-50 0 -83.5 -24.5t-33.5 -67.5q0 -40 24 -69.5t90 -74.5l25 -17q79 -54 111.5 -101.5t32.5 -103.5q0 -92 -82 -145q-46 -30 -140 -30zM238 -168q0 19 -8 33.5
t-16 22t-8 11.5q0 19 19.5 35.5t39.5 16.5q6 0 17 -18q16 -25 16 -41q0 -15 -9 -37q-22 -60 -61 -102q-7 -9 -13 -9t-6 7q0 1 6 13q23 40 23 68z" />
    <glyph glyph-name="uni021A" unicode="&#x21a;" horiz-adv-x="691" 
d="M391 710v-423q0 -175 5 -217q3 -25 10.5 -38.5t28.5 -16.5q28 -4 45 -4q8 0 8 -6q0 -8 -16 -8q-24 0 -53.5 0.5t-49 1.5t-20.5 1t-19.5 -1t-42 -1.5t-36.5 -0.5q-16 0 -16 8q0 6 8 6q12 0 30 4q22 4 29 55q5 42 5 217v423l-148 -2q-47 -1 -68.5 -7.5t-33.5 -24.5
q-11 -17 -17 -31q-4 -10 -10 -10q-5 0 -5 9q0 16 22 104q6 19 10 19q2 0 15 -5.5t29 -6.5q48 -5 79 -5h375q44 0 71 5l12.5 2t10 2t5.5 1q5 0 5 -12q0 -17 -1.5 -62t-1.5 -48q0 -13 -7 -13t-8 17l-1 11q-5 53 -123 55zM336 -168q0 19 -8 33.5t-16 22t-8 11.5q0 19 19.5 35.5
t39.5 16.5q6 0 17 -18q16 -25 16 -41q0 -15 -9 -37q-22 -60 -61 -102q-7 -9 -13 -9t-6 7q0 1 6 13q23 40 23 68z" />
    <glyph glyph-name="uni021B" unicode="&#x21b;" horiz-adv-x="610" 
d="M347 601v-357q0 -149 4 -184q3 -22 9 -32t25 -13q24 -4 40 -4q7 0 7 -7t-14 -7q-21 0 -47 0.5t-43.5 1.5t-18.5 1t-18.5 -1t-39.5 -1.5t-33 -0.5q-14 0 -14 7q0 6 7 6q10 0 26 4q21 5 26 46q4 35 4 184v357l-127 -2q-42 -1 -60.5 -6.5t-28.5 -20.5q-2 -3 -14 -27
q-2 -8 -9 -8q-6 0 -6 7q0 5 9.5 48t9.5 44q6 16 9 16q2 0 13.5 -4t25.5 -6q33 -4 69 -4h332q35 0 63 4q5 1 11 2l9 1.5t5 0.5q4 0 4 -10q0 -15 -1.5 -54.5t-1.5 -42.5q0 -11 -8 -11q-6 0 -7 15l-1 9q-3 22 -25 34t-81 13zM291 -168q0 19 -8 33.5t-16 22t-8 11.5
q0 19 19.5 35.5t39.5 16.5q6 0 17 -18q16 -25 16 -41q0 -15 -9 -37q-22 -60 -61 -102q-7 -9 -13 -9t-6 7q0 1 6 13q23 40 23 68z" />
    <glyph glyph-name="circumflex" unicode="&#x2c6;" horiz-adv-x="911" 
d="M582 845l-21 -22q-6 -6 -9 -6q-4 0 -8 5q-14 15 -43.5 39t-40.5 30q-8 4 -10 4q-6 0 -16 -5q-25 -13 -85 -63q-11 -10 -18 -10t-7 8q0 3 6 11q24 24 112 104q11 10 16 10q3 0 16 -10l101 -76q12 -8 12 -10q0 -1 -5 -9z" />
    <glyph glyph-name="caron" unicode="&#x2c7;" horiz-adv-x="911" 
d="M329 920l21 22q6 6 9 6q4 0 8 -5q15 -16 44.5 -40t39.5 -29q8 -4 10 -4q6 0 16 5q25 13 85 63q11 10 18 10t7 -8q0 -3 -6 -11q-24 -24 -112 -104q-11 -10 -17 -10q-4 0 -15 10l-101 76q-12 8 -12 10t5 9z" />
    <glyph glyph-name="uni02C9" unicode="&#x2c9;" horiz-adv-x="911" 
d="M343 900h235q12 0 8 -10l-8 -22q-2 -6 -9 -6h-235q-6 0 -8.5 1.5t-1.5 5.5l8 25q1 6 11 6z" />
    <glyph glyph-name="breve" unicode="&#x2d8;" horiz-adv-x="911" 
d="M316 904l32 24q8 5 9 5q3 0 4.5 -2.5l4 -6.5l4.5 -7q36 -47 94 -47q51 0 88 29q9 7 17 14t11.5 10.5t7 5.5t5.5 2q8 0 8 -8t-22 -30.5t-40 -33.5q-47 -29 -101 -29q-52 0 -93 29q-36 26 -36 36q0 4 7 9z" />
    <glyph glyph-name="dotaccent" unicode="&#x2d9;" horiz-adv-x="911" 
d="M455 830q-25 0 -38 15.5t-13 35.5q0 19 13 35.5t38 16.5q22 0 37 -13.5t15 -35.5q0 -23 -14.5 -38.5t-37.5 -15.5z" />
    <glyph glyph-name="ring" unicode="&#x2da;" horiz-adv-x="911" 
d="M434 820q-37 0 -57.5 16.5t-20.5 42.5q0 35 33.5 60.5t84.5 25.5q38 0 60 -15.5t22 -41.5q1 -39 -37 -63.5t-85 -24.5zM450 844q25 0 42 15t17 36q0 19 -13.5 32.5t-38.5 13.5q-20 0 -38.5 -13t-18.5 -36q0 -21 15.5 -34.5t34.5 -13.5z" />
    <glyph glyph-name="ogonek" unicode="&#x2db;" horiz-adv-x="911" 
d="M462 0h29q-58 -54 -58 -129q0 -23 14.5 -36.5t36.5 -13.5q14 0 29.5 9t26 18t12.5 9q8 0 8 -6q0 -4 -8 -14q-9 -10 -22.5 -21.5t-41.5 -26t-54 -14.5q-38 0 -58.5 19.5t-20.5 50.5q0 48 40 93.5t67 61.5z" />
    <glyph glyph-name="tilde" unicode="&#x2dc;" horiz-adv-x="911" 
d="M526 830q-27 0 -79 26l-13.5 7t-16 8t-17 5.5t-21.5 2.5q-7 0 -14 -1.5t-12.5 -4.5l-10 -5.5t-9 -7t-6.5 -7l-5 -6.5l-4 -4q-8 -9 -14 -9t-6 6q0 4 7 15q15 23 40 47t46 24q20 0 84 -31q34 -17 58 -17q39 0 61 29q7 11 12 11q7 0 7 -6q0 -5 -4 -13q-9 -17 -36 -43
t-47 -26z" />
    <glyph glyph-name="hungarumlaut" unicode="&#x2dd;" horiz-adv-x="911" 
d="M393 943q15 20 17 20q6 0 13 -3q9 -4 37 -22q8 -6 3 -9q-1 -1 -6 -2.5t-11.5 -4t-12.5 -6.5q-66 -42 -98 -75q-10 -11 -14 -11q-7 0 -3 9q2 6 33.5 49t41.5 55zM523 945q17 18 19 18q6 0 14 -4q15 -9 35 -25q8 -8 1 -10l-6 -1q-5 -1 -12 -3t-13 -6q-51 -27 -106 -75
q-8 -9 -14 -9t-3 8q2 6 38 50.5t47 56.5z" />
    <glyph glyph-name="pi" unicode="&#x3c0;" horiz-adv-x="543" 
d="M213 378q0 -190 -22 -287q-11 -47 -39.5 -76t-75.5 -29q-17 0 -17 7q0 2 1.5 3t3.5 2t3 2q17 13 29.5 32t16 28l11.5 31q41 116 41 288q-46 0 -73 -14q-35 -18 -41 -59q-2 -15 -12 -15q-5 0 -5 11q0 44 23 89.5t55 47.5q48 3 87 3q29 0 74.5 -2t87.5 -1l68 1
q42 1 62.5 14t26.5 43q1 10 8 10t7 -15q0 -27 -13 -92q-2 -10 -5.5 -14.5t-16.5 -7.5t-41 -3h-30q-8 -122 -7 -226q1 -92 39 -92q35 0 54 25q7 10 8 10q7 0 7 -15q0 -28 -25.5 -58.5t-56.5 -30.5q-43 0 -68.5 26t-25.5 101q0 113 9 262q-57 1 -148 1z" />
    <glyph glyph-name="uni2010" unicode="&#x2010;" horiz-adv-x="390" 
d="M73 310h252q30 0 30 -10q0 -2 -0.5 -3.5t-2 -3t-3 -2.5t-4 -2t-4.5 -1.5t-5 -1.5t-5 -1t-5.5 -1t-5.5 -1q-223 -33 -238 -37q-8 -2 -17.5 -6l-15.5 -6.5t-8 -2.5q-8 0 -5 15l15 56q2 8 22 8z" />
    <glyph glyph-name="endash" unicode="&#x2013;" horiz-adv-x="500" 
d="M0 282v46h500v-46h-500z" />
    <glyph glyph-name="emdash" unicode="&#x2014;" horiz-adv-x="1000" 
d="M1000 282h-1000v46h1000v-46z" />
    <glyph glyph-name="quoteleft" unicode="&#x2018;" horiz-adv-x="200" 
d="M115 659q0 -42 20 -65q9 -10 9 -17q0 -6 -9 -6q-22 0 -70 18q-17 9 -17 26q0 48 27 103t59 94q5 8 13 8q5 0 5 -5q0 -4 -4 -13q-33 -70 -33 -143z" />
    <glyph glyph-name="quoteright" unicode="&#x2019;" horiz-adv-x="200" 
d="M85 732q0 42 -20 65q-9 10 -9 17q0 6 9 6q22 0 70 -18q17 -8 17 -26q0 -48 -27 -103t-59 -94q-5 -8 -13 -8q-5 0 -5 5q0 4 4 13q33 70 33 143z" />
    <glyph glyph-name="quotesinglbase" unicode="&#x201a;" horiz-adv-x="200" 
d="M85 49q0 42 -20 65q-9 10 -9 17q0 6 9 6q22 0 70 -18q17 -9 17 -26q0 -48 -27 -103t-59 -94q-5 -8 -13 -8q-5 0 -5 5q0 4 4 13q33 70 33 143z" />
    <glyph glyph-name="quotedblleft" unicode="&#x201c;" horiz-adv-x="325" 
d="M243 659q0 -42 20 -65q9 -10 9 -17q0 -6 -9 -6q-22 0 -70 18q-17 9 -17 26q0 48 27 103t59 94q5 8 13 8q5 0 5 -5q0 -4 -4 -13q-33 -70 -33 -143zM113 659q0 -42 20 -65q9 -10 9 -17q0 -6 -9 -6q-22 0 -70 18q-17 9 -17 26q0 48 27 103t59 94q5 8 13 8q5 0 5 -5
q0 -4 -4 -13q-33 -70 -33 -143z" />
    <glyph glyph-name="quotedblright" unicode="&#x201d;" horiz-adv-x="325" 
d="M82 732q0 42 -20 65q-9 10 -9 17q0 6 9 6q22 0 70 -18q17 -8 17 -26q0 -48 -27 -103t-59 -94q-5 -8 -13 -8q-5 0 -5 5q0 4 4 13q33 70 33 143zM212 732q0 42 -20 65q-9 10 -9 17q0 6 9 6q22 0 70 -18q17 -8 17 -26q0 -48 -27 -103t-59 -94q-5 -8 -13 -8q-5 0 -5 5
q0 4 4 13q33 70 33 143z" />
    <glyph glyph-name="quotedblbase" unicode="&#x201e;" horiz-adv-x="325" 
d="M82 49q0 42 -20 65q-9 10 -9 17q0 6 9 6q22 0 70 -18q17 -9 17 -26q0 -48 -27 -103t-59 -94q-5 -8 -13 -8q-5 0 -5 5q0 4 4 13q33 70 33 143zM212 49q0 42 -20 65q-9 10 -9 17q0 6 9 6q22 0 70 -18q17 -9 17 -26q0 -48 -27 -103t-59 -94q-5 -8 -13 -8q-5 0 -5 5q0 4 4 13
q33 70 33 143z" />
    <glyph glyph-name="dagger" unicode="&#x2020;" horiz-adv-x="610" 
d="M267 439q-5 218 -8 230q-4 16 -4 19q0 6 5 14q27 39 69 60q10 5 15 5q6 0 6 -10q0 -3 -1 -18.5t-3.5 -50l-4.5 -63.5q0 -14 -5 -186l150 3q20 0 35.5 2t24 3.5t10.5 1.5q11 0 5 -15l-16 -44q-4 -10 -20 -10q-2 0 -15.5 2.5t-33 5.5t-35.5 3l-106 3l-7 -251l-6.5 -241.5
t-2.5 -101.5q-2 -32 -18 -32q-10 0 -14.5 11t-6.5 41q-1 21 -6.5 288.5t-5.5 285.5l-51 -1q-12 0 -153 -12q-5 -1 -7 2.5t0 11.5l13 42q4 12 14 12q2 0 8.5 -1.5t17 -3.5t20.5 -2z" />
    <glyph glyph-name="daggerdbl" unicode="&#x2021;" horiz-adv-x="610" 
d="M435 146l-108 3l-4 -168l-3 -132.5t-1 -48.5q-2 -32 -19 -32q-10 0 -13.5 11t-4.5 41q-1 16 -7 329l-58 -1q-32 -1 -143 -10q-5 -1 -7 2.5t0 11.5l9 33q4 12 14 12l17 -3q17 -2 31 -2l136 -2q-4 234 -4 257l-53 -1q-45 -1 -153 -10q-6 -1 -8 2.5t1 11.5l11 34q4 12 14 12
q2 0 9 -1l18 -2.5t21 -1.5l140 -3q-1 17 -1 65.5t-0.5 87.5t-2.5 47q-4 16 -4 19q0 9 5 14q29 29 59 41q13 5 15 5q6 0 6 -10q0 -2 -1 -19l-3 -49t-3 -64q0 -2 -5 -137l151 3q20 0 35.5 1.5t23 2.5t9.5 1q11 0 5 -15l-14 -35q-4 -10 -20 -10q-2 0 -17 2t-36 4t-37 2l-101 3
l-6 -257l150 3q20 0 34.5 1.5t21.5 2.5t9 1q9 0 5 -15l-10 -33q-3 -10 -20 -10q-2 0 -15.5 1.5t-32.5 3t-35 1.5z" />
    <glyph glyph-name="bullet" unicode="&#x2022;" horiz-adv-x="420" 
d="M172 395q0 51 -35 68q-14 7 -14 11q0 8 12 8q33 0 133 -22q30 -6 30 -17q0 -10 -6 -20q-28 -44 -112 -119q-16 -14 -20 -14q-5 0 -5 5q0 2 6 20q11 38 11 80z" />
    <glyph glyph-name="ellipsis" unicode="&#x2026;" horiz-adv-x="1000" 
d="M166 0q-26 0 -39.5 16.5t-13.5 36.5t14 37t39 17q24 0 39 -14t15 -37q0 -24 -15 -40t-39 -16zM500 0q-26 0 -39.5 16.5t-13.5 36.5t14 37t39 17q24 0 39 -14t15 -37q0 -24 -15 -40t-39 -16zM834 0q-26 0 -39.5 16.5t-13.5 36.5t14 37t39 17q24 0 39 -14t15 -37
q0 -24 -15 -40t-39 -16z" />
    <glyph glyph-name="perthousand" unicode="&#x2030;" horiz-adv-x="1216" 
d="M615 0q-76 0 -117 51.5t-41 115.5q0 73 41.5 127.5t122.5 54.5q75 0 116.5 -52t41.5 -116q0 -72 -42 -126.5t-122 -54.5zM618 27q52 0 77 39.5t25 101.5q0 60 -28 107t-75 47q-51 0 -76 -40t-25 -102q0 -61 26.5 -107t75.5 -46zM285 -4l-44 -7q-7 -1 -9.5 2t-0.5 8
l300 698q-24 -1 -78.5 -5l-96.5 -7t-49 -3v-2q27 -19 44.5 -55.5t17.5 -80.5q0 -72 -43 -126.5t-121 -54.5q-76 0 -117 51.5t-41 115.5q0 73 44.5 127.5t125.5 54.5q71 0 155 5.5t141.5 11t64.5 5.5q6 0 6 -3q0 -5 -10 -28l-280 -695q-5 -11 -9 -12zM209 389q52 0 76.5 40
t24.5 102q0 60 -28 107.5t-75 47.5q-51 0 -76 -40t-25 -103q0 -61 27 -107.5t76 -46.5zM1004 0q-76 0 -117 51.5t-41 115.5q0 73 42 127.5t123 54.5q75 0 116 -52t41 -116q0 -72 -42 -126.5t-122 -54.5zM1008 27q52 0 77 39.5t25 101.5q0 60 -28.5 107t-75.5 47
q-51 0 -76 -40t-25 -102q0 -61 27 -107t76 -46z" />
    <glyph glyph-name="guilsinglleft" unicode="&#x2039;" horiz-adv-x="375" 
d="M294 140l-30 -33q-3 -5 -8 -5q-4 0 -23 22q-92 104 -140 152q-18 18 -18 24t19 22q28 24 178 174q13 11 18 11q9 0 9 -8q0 -7 -6 -13q-1 -1 -14.5 -17l-32.5 -38l-39.5 -46l-38.5 -46.5t-26 -33.5q14 -17 61.5 -65.5t80.5 -77.5q14 -13 14 -15q0 -3 -4 -7z" />
    <glyph glyph-name="guilsinglright" unicode="&#x203a;" horiz-adv-x="375" 
d="M81 469l30 33q3 5 8 5q4 0 23 -22q92 -104 140 -152q18 -18 18 -24t-19 -22q-28 -24 -178 -174q-13 -11 -18 -11q-9 0 -9 8q0 7 6 13q1 1 14.5 17l32.5 38l39.5 46l38.5 46.5t26 33.5q-14 17 -61.5 65.5t-80.5 77.5q-14 13 -14 15q0 3 4 7z" />
    <glyph glyph-name="fraction" unicode="&#x2044;" horiz-adv-x="80" 
d="M-227 -14l-20 17q-7 3 1 13l542 707q5 7 11 3l19 -14q6 -4 2 -10l-543 -713q-5 -8 -12 -3z" />
    <glyph glyph-name="four.superior" unicode="&#x2074;" horiz-adv-x="463" 
d="M325 472h51q8 0 14.5 2t10.5 3.5t5 1.5q6 0 6 -7t-6 -29q-3 -8 -13 -8h-68q0 -71 1 -84q3 -30 28 -32q18 -2 29 -2q6 0 6 -7t-10 -7q-16 0 -37 0.5t-36.5 1t-16.5 0.5t-13.5 -0.5t-31 -1t-34.5 -0.5q-8 0 -8 6q0 8 8 8q9 0 29 2q27 2 29 32q1 27 1 84h-220q-14 0 -14 8
q0 7 10 17q4 4 123.5 141.5l133.5 154.5q9 11 16 11t7 -10v-285zM269 472v200h-1q-7 -7 -87 -100l-86 -100h174z" />
    <glyph glyph-name="Euro" unicode="&#x20ac;" horiz-adv-x="571" 
d="M450 345q12 0 8 -9l-9 -23q-2 -6 -14 -6h-268q15 -122 76 -204.5t155 -82.5q103 0 136 88q9 26 17 26q13 0 3 -39q-10 -50 -13 -60q-4 -14 -8 -18.5t-18 -10.5q-55 -23 -118 -23q-74 0 -132 27t-95 74.5t-58.5 103t-30.5 119.5h-81q-12 0 -8 9l9 23q2 6 14 6h63
q-1 9 -1 42q0 23 2 44h-75q-12 0 -8 9l9 23q2 6 14 6h65q21 130 96 214t192 84q53 0 100 -12q52 -14 76 -15q13 -1 13 -11q0 -3 -1 -9t-2 -18t-2 -28q-1 -7 -1.5 -29.5t-0.5 -31.5q0 -23 -8 -23q-7 0 -12 29q-8 35 -25 56q-45 55 -141 55q-52 0 -90.5 -20.5t-61 -58.5
t-34.5 -82t-17 -100h338q12 0 8 -9l-9 -23q-2 -6 -14 -6h-324q-2 -36 -2 -42q0 -8 2 -44h286z" />
    <glyph glyph-name="uni2113" unicode="&#x2113;" horiz-adv-x="394" 
d="M168 537v-105q105 133 105 271q0 51 -9 75t-34 24q-31 0 -46.5 -77.5t-15.5 -187.5zM93 370v137q0 187 49 263q42 64 100 64q42 0 65.5 -33.5t23.5 -96.5q0 -71 -48.5 -159t-114.5 -151v-174q0 -79 22 -125.5t65 -46.5q66 0 112 59q12 16 20.5 8.5t-2.5 -25.5
q-27 -47 -70 -74t-92 -27t-80 34.5t-40.5 77.5t-9.5 95v137q-4 -4 -13.5 -10.5l-21.5 -15t-17 -12.5q-17 -13 -24 -1q-6 10 12 24q51 39 64 52z" />
    <glyph glyph-name="trademark" unicode="&#x2122;" horiz-adv-x="281" 
d="M27 756h65q3 0 7 0.5t5 0.5q2 0 4 1h2v-6v-18q0 -5 -3 -5q-1 0 -2 4l-1 4q-2 8 -18 8h-20v-68v-34q0 -8 8 -10l5 -1q5 0 5 -2t-5 -2h-13l-10 1l-10 -1h-14q-4 0 -4 2t4 2h5q9 1 9 11q0 1 0.5 12t0.5 22v68h-24q-16 0 -18 -10q-1 -4 -3 -4t-2 4q0 2 1 7l2 10l1 4l1 3
q1 0 3 -1t5 -1t8 -0.5t6 -0.5zM141 717l-6 -64q0 -2 -0.5 -6t-0.5 -8q0 -7 6 -7q7 0 7 -2t-3 -2t-11 0.5t-9 0.5l-6 -1h-11q-3 0 -3 2t4 2h3q9 0 10 14l14 107q0 7 5 7q3 0 5 -5l47 -98l47 99q1 4 5 4q3 0 3 -7l13 -103q2 -18 15 -18h2q4 0 4 -2t-3 -2q-24 0 -32 2
q-4 0 -4 4l-9 82h1l-39 -78q-5 -10 -7 -10q-3 0 -7 10l-39 79h-1z" />
    <glyph glyph-name="Omega" unicode="&#x2126;" horiz-adv-x="897" 
d="M845 154q0 -9 -5 -63t-8 -68q-5 -19 -14 -22.5t-40 -3.5q-78 0 -195 3q-23 -2 -53 -2q-2 0 -2.5 1t-1 4t-2.5 5l-3 32q216 132 216 351q0 153 -86 247.5t-209 94.5q-126 0 -204.5 -85t-78.5 -244q0 -108 65 -210t145 -154l-2 -32q0 -10 -6 -10q-30 0 -53 2
q-117 -3 -190 -3q-31 0 -40 3.5t-14 22.5q-3 14 -8 68t-5 63q0 13 6 13q7 0 9 -13q5 -37 23 -58q24 -26 89 -26q16 0 46 -0.5t42 -0.5q-93 57 -147.5 144.5t-54.5 179.5q0 152 111 263t274 111q170 0 277 -99.5t107 -263.5q0 -84 -56 -172.5t-153 -162.5q12 0 48 0.5t51 0.5
q62 0 82 23q12 14 16.5 24.5t8.5 36.5q2 13 9 13q6 0 6 -13z" />
    <glyph glyph-name="estimated" unicode="&#x212e;" horiz-adv-x="987" 
d="M929 365h-705q-6 0 -6 -5v-213q0 -13 10 -25q109 -115 268 -115q168 0 279 129h64q-61 -71 -151 -112t-194 -41q-181 0 -308.5 115t-127.5 278t127.5 277t308.5 114t308 -114t127 -277v-11zM770 393v214q0 14 -12 26q-109 111 -262 111q-155 0 -267 -115q-11 -11 -11 -27
v-209q0 -6 6 -6h541q5 0 5 6z" />
    <glyph glyph-name="partialdiff" unicode="&#x2202;" horiz-adv-x="527" 
d="M482 473q0 -60 -7 -120.5t-23.5 -127.5t-50 -125t-79.5 -92q-42 -31 -93 -31q-82 0 -138 58t-56 158q0 97 54 171q28 39 70.5 61t89.5 21q44 -1 75.5 -16t77.5 -55q7 53 7 104q0 151 -60 245.5t-153 94.5q-43 0 -76 -13q-33 -12 -36 -12q-8 0 -8 6q0 11 20 20
q74 39 144 39q64 0 112 -31.5t75.5 -86t41 -122t13.5 -146.5zM398 329q-61 77 -127 76q-29 -1 -59.5 -17t-48.5 -44q-49 -75 -49 -181v-1q0 -29 10.5 -62.5t37.5 -62.5t64 -29q83 0 126 110q32 82 46 211z" />
    <glyph glyph-name="Delta" unicode="&#x2206;" horiz-adv-x="683" 
d="M364 767q7 -1 16 -23l284 -709q10 -27 7 -32q-3 -3 -22 -3h-611q-1 0 -8.5 -1t-12 0t-6.5 4q-1 2 6 19l330 722q6 13 9.5 18.5t7.5 4.5zM88 55h473q6 0 4 7l-213 557q-5 11 -7.5 11t-7.5 -11l-252 -557q-3 -7 3 -7z" />
    <glyph glyph-name="product" unicode="&#x220f;" horiz-adv-x="777" 
d="M777 -242q0 -8 -16 -8q-25 0 -53 1t-46.5 1.5t-19.5 0.5t-19.5 -0.5t-42 -1.5t-36.5 -1q-16 0 -16 8q0 6 8 6q12 0 30 4q22 4 29 55q5 42 5 218v669q0 6 -6 6h-421q-6 0 -6 -6v-669q0 -176 5 -218q3 -25 10.5 -38.5t28.5 -16.5q28 -4 45 -4q8 0 8 -6q0 -8 -16 -8
q-24 0 -54 1t-49.5 1.5t-20.5 0.5t-18.5 -0.5t-39.5 -1.5t-35 -1q-16 0 -16 8q0 6 8 6q12 0 30 4q22 4 29 55q5 42 5 218v418q0 185 -2 217q-2 27 -10.5 39.5t-32.5 17.5q-12 3 -34 3q-8 0 -8 6q0 8 16 8q21 0 47.5 -1t45 -1.5t20.5 -0.5h508q10 0 46 2q9 0 27.5 0.5
t25.5 0.5q16 0 16 -8q0 -6 -8 -6t-26 -3q-20 -4 -27.5 -17t-9.5 -40q-2 -32 -2 -217v-418q0 -176 5 -218q3 -25 10.5 -38.5t28.5 -16.5q30 -4 46 -4q8 0 8 -6z" />
    <glyph glyph-name="summation" unicode="&#x2211;" horiz-adv-x="713" 
d="M56 -61l282 376l-278 415q-4 6 -4 12q0 8 20 8h301q103 0 174 3q16 1 27.5 4t14.5 3q7 0 10 -19q20 -120 20 -133t-6 -13q-9 0 -11 18q-3 20 -17.5 43t-39.5 36q-38 20 -144 20h-238l247 -369l-279 -370h341q73 0 106.5 12t51.5 37q15 22 20 54q3 16 9 16q8 0 8 -23
q0 -21 -7.5 -72t-12.5 -73q-5 -18 -9 -22t-21 -4q-83 0 -278 2.5t-283 2.5q-18 0 -18 8q0 10 14 28z" />
    <glyph glyph-name="minus" unicode="&#x2212;" horiz-adv-x="510" 
d="M468 294v-51h-426v51h426z" />
    <glyph glyph-name="uni2215" unicode="&#x2215;" horiz-adv-x="80" 
d="M-227 -14l-20 17q-7 3 1 13l542 707q5 7 11 3l19 -14q6 -4 2 -10l-543 -713q-5 -8 -12 -3z" />
    <glyph glyph-name="uni2219" unicode="&#x2219;" horiz-adv-x="250" 
d="M124 232q-26 0 -40 17t-14 38q0 20 14 37.5t41 17.5q24 0 39.5 -14t15.5 -38q0 -25 -15.5 -41.5t-40.5 -16.5z" />
    <glyph glyph-name="radical" unicode="&#x221a;" horiz-adv-x="549" 
d="M26 417l-16 33l156 77l190 -503l124 974l35 -5l-151 -1184l-253 651z" />
    <glyph glyph-name="infinity" unicode="&#x221e;" horiz-adv-x="713" 
d="M26 279q7 68 69 105.5t133 6.5q33 -15 56.5 -32t72.5 -62q49 45 72.5 62t56.5 32q71 31 133 -6.5t69 -105.5q6 -59 -37.5 -109.5t-109.5 -44.5q-29 3 -55.5 12.5t-47.5 23.5t-35 26t-28.5 26.5l-17.5 17.5l-17.5 -17.5t-28.5 -26.5t-35 -26t-47.5 -23.5t-55.5 -12.5
q-66 -6 -109.5 44.5t-37.5 109.5zM76 259q1 -43 37.5 -68.5t78.5 -15.5q27 6 48 18t33.5 23t50.5 48q-80 67 -119 81q-58 20 -94 -12.5t-35 -73.5zM638 259q1 41 -35 73.5t-94 12.5q-39 -14 -119 -81l39 -37.5t26.5 -22t32 -19.5t34.5 -10q42 -10 78.5 15.5t37.5 68.5z" />
    <glyph glyph-name="integral" unicode="&#x222b;" horiz-adv-x="274" 
d="M118 388v144q0 77 1 119.5t8 102t20 93.5q27 69 80 69q28 0 47 -17t19 -40q0 -18 -16 -30.5t-34 -12.5q-19 0 -30 12q-17 16 -28 11t-12 -21q-1 -12 9.5 -132t9.5 -198l-1 -216q-1 -107 -11.5 -200t-22.5 -135q-24 -86 -94 -86q-23 0 -39 14.5t-21 29.5q-13 36 24 55
q20 6 30.5 1.5t26.5 -21.5q25 -27 36 32q5 31 4 70q-6 222 -6 356z" />
    <glyph glyph-name="approxequal" unicode="&#x2248;" horiz-adv-x="510" 
d="M62 291l-44 29q40 53 91 72.5t104 -0.5l111 -42q33 -12 72 4.5t58 46.5l38 -26q-29 -48 -82 -69.5t-96 -4.5l-110 43q-22 9 -42 9.5t-33 -3.5t-26 -13.5t-18.5 -16t-14.5 -18.5zM62 138l-44 29q40 53 91 72.5t104 -0.5l111 -42q28 -11 66.5 2.5t63.5 48.5l38 -26
q-29 -48 -82 -69.5t-96 -4.5l-110 43q-22 9 -42 9.5t-33 -3.5t-26 -13.5t-18.5 -16l-14.5 -17.5z" />
    <glyph glyph-name="notequal" unicode="&#x2260;" horiz-adv-x="510" 
d="M468 153h-242l-74 -127l-43 26l59 101h-126v51h156l72 125h-228v51h257l69 120l43 -27l-54 -93h111v-51h-141l-71 -125h212v-51z" />
    <glyph glyph-name="lessequal" unicode="&#x2264;" horiz-adv-x="510" 
d="M468 116l-426 198v53l426 196v-53l-372 -170l372 -171v-53zM468 52v-52h-426v52h426z" />
    <glyph glyph-name="greaterequal" unicode="&#x2265;" horiz-adv-x="510" 
d="M468 51v-51h-426v51h426zM468 314l-426 -198v53l372 171l-372 170v53l426 -196v-53z" />
    <glyph glyph-name="lozenge" unicode="&#x25ca;" horiz-adv-x="494" 
d="M272 0h-60l-194 377l194 368h60l194 -368zM406 377l-164 314l-164 -314l164 -323z" />
    <glyph glyph-name="Euro.fitted" unicode="&#xe000;" horiz-adv-x="886" 
d="M597 -17q-210 0 -330 108q-80 72 -107 176l-112 -1q-10 0 -5 11l9 24q2 8 11 8l89 -2q-6 40 -6 80v22l-98 -1q-10 0 -5 11l9 24q2 8 11 8q15 0 44.5 -0.5t43.5 -0.5q21 124 107 210q107 107 305 107q80 0 145 -12q71 -13 102 -15q13 -1 13 -11q0 -3 -1 -9.5t-2 -19
t-2 -27.5q-1 -18 -2 -57.5t-1 -45.5q-1 -21 -9 -21t-8 21q0 66 -42 102q-28 24 -82.5 40.5t-117.5 16.5q-155 0 -230 -73q-78 -75 -88 -206q349 0 514 1q9 0 6 -10l-7 -22q-4 -10 -10 -10q-305 2 -505 1v-15q0 -48 10 -88q337 0 453 2q7 0 4 -11l-5 -21q-2 -9 -9 -11
q-352 3 -431 2q38 -105 128.5 -172t210.5 -67q125 0 174 50q28 29 37 84q3 15 10 15t7 -15q0 -8 -7.5 -57t-14.5 -71q-4 -14 -8 -18.5t-18 -10.5q-57 -23 -180 -23z" />
    <glyph glyph-name="cent.fitted" unicode="&#xe001;" horiz-adv-x="638" 
d="M395 597l-45 -434q34 -2 49 -2q58 0 89 16t41 61q3 15 9 15t6 -12q0 -30 -13 -92q-4 -15 -13 -17q-60 -16 -133 -16q-28 0 -43 1l-14 -135q-1 -9 -9 -11l-23 -5q-10 -3 -9 6l18 152q-94 17 -153.5 84.5t-59.5 172.5q0 64 24.5 112.5t53.5 73.5q72 62 194 67l11 100
q1 7 10 9l20 4q5 1 8 -0.5t2 -5.5l-13 -108q71 0 138 -25q7 -4 7 -14q0 -50 -6 -92q-1 -12 -8 -12q-5 0 -5 12q-4 36 -20 56q-11 13 -41.5 25t-71.5 14zM312 174l45 424q-87 0 -139 -54t-52 -136q0 -97 42.5 -154.5t103.5 -79.5z" />
    <glyph glyph-name="dollar.fitted" unicode="&#xe002;" horiz-adv-x="638" 
d="M310 0l-7 -81q-1 -6 -10 -8l-19 -6q-4 -1 -6 1.5t-1 8.5l8 85q-76 0 -131 24q-19 8 -23.5 14t-4.5 22q0 74 11 118q3 19 11 19q6 0 5 -22q-2 -61 26 -93q37 -44 109 -44l29 320q-92 64 -130.5 111t-38.5 110q0 58 34.5 100.5t80.5 61t92 18.5l7 80q0 7 6 9l23 7q8 2 8 -5
l-9 -91q76 0 112 -14q8 -4 8 -15q0 -83 -4 -117q-1 -10 -8 -10q-8 0 -8 15q0 52 -29 79q-31 29 -75 29l-29 -298q45 -29 69 -47.5t52.5 -47t41 -61.5t12.5 -73q0 -53 -23 -93.5t-57.5 -62.5t-68.5 -32.5t-63 -10.5zM315 453l26 273q-16 0 -36.5 -5t-44 -17t-39.5 -38
t-16 -61q0 -43 26.5 -77.5t83.5 -74.5zM340 335l-26 -297q63 3 99.5 40.5t36.5 98.5q0 87 -110 158z" />
    <glyph glyph-name="florin.fitted" unicode="&#xe003;" horiz-adv-x="638" 
d="M231 342h-41q-58 0 -75 -3q-5 -1 -8 2t-1 7l10 20q6 12 14 12l16 -2q16 -1 30 -1h61q20 217 97 311q32 38 69 58.5t95 20.5t100 -18q12 -5 12 -15q0 -28 -11 -108q-3 -19 -9 -19q-7 0 -7 19q0 34 -16 66q-21 41 -82 41q-87 0 -123 -83q-27 -62 -50 -273h116q20 0 35.5 1
t24 2t10.5 1q13 0 5 -15l-11 -19q-6 -10 -20 -10q-2 0 -17.5 1t-37 2t-38.5 1h-70q-1 -7 -19 -148.5t-28 -191.5q-18 -90 -48.5 -142t-80.5 -76q-30 -15 -72 -15q-37 0 -37 9q0 10 7 10q43 0 70 10.5t47 43.5q32 53 51 220z" />
    <glyph glyph-name="i.dot" unicode="&#xe004;" horiz-adv-x="389" 
d="M235 394v-150q0 -149 4 -184q2 -15 4 -22.5t9 -14t19 -8.5q26 -4 40 -4q7 0 7 -7t-14 -7q-22 0 -48 0.5t-44 1.5l-18 1q-1 0 -17.5 -1t-37 -1.5t-32.5 -0.5q-14 0 -14 7t7 7q11 0 27 4q18 4 23 45q5 44 5 184v150q0 156 -2 183q-3 41 -28 46q-15 3 -27 3q-7 0 -7 7t14 7
q13 0 34 -0.5t37.5 -1t17.5 -0.5t17.5 0.5t37.5 1t33 0.5q14 0 14 -7t-7 -7q-12 0 -22 -2q-17 -4 -23 -13.5t-8 -33.5q-1 -27 -1 -183zM194 715q-25 0 -38 15.5t-13 35.5q0 19 13 35.5t38 16.5q22 0 37 -13.5t15 -35.5q0 -23 -14.5 -38.5t-37.5 -15.5z" />
    <glyph glyph-name="sterling.fitted" unicode="&#xe005;" horiz-adv-x="595" 
d="M254 0h-233q-29 0 -29 10q0 13 20 17q36 8 61 27.5t39 52t21.5 64.5t13.5 81l13 105h-75q-7 0 -13.5 -1t-7.5 -1q-7 0 -3 9l12 21q3 8 14 8h79l10 70q25 179 104 248q64 56 151 56q51 0 87 -12q22 -5 27 -5q7 -1 7 -12q0 -84 -5 -114q-2 -12 -8 -12q-8 0 -8 15
q0 35 -24 67q-29 38 -99 38q-59 0 -98.5 -49t-49.5 -139l-18 -151h109q12 0 22.5 1.5l17 2.5t7.5 1q9 0 5 -10l-11 -24q-4 -8 -16 -8h-140l-5 -42q-23 -180 -111 -256l2 -2l312 3q42 1 64 19.5t29 62.5q1 10 8 10t7 -15q0 -36 -17 -121q-3 -14 -11.5 -17t-49.5 -3
q-52 0 -101 3q-66 2 -109 2z" />
    <glyph glyph-name="sterling.oldstyle" unicode="&#xe006;" horiz-adv-x="560" 
d="M247 0h-198q-27 0 -27 9q0 13 19 17q16 3 28.5 8t23 15l17.5 16.5t14 22.5t10.5 23t8 28.5t6.5 29t6.5 33.5t5.5 33l13 70h-71q-6 0 -12.5 -0.5t-7.5 -0.5q-7 0 -3 9l11 19q3 8 13 8h76l5 31q27 166 102 231q60 53 131 53q46 0 77 -11q24 -5 26 -5q6 -1 6 -11
q0 -82 -5 -109q-2 -11 -7 -11q-8 0 -8 14q0 33 -23 64q-24 33 -88 33q-102 0 -128 -171l-16 -108h103q12 0 22 1t16 2.5t7 1.5q9 0 5 -10l-11 -22q-4 -8 -15 -8h-133l-8 -50q0 -3 -2.5 -20t-4 -23.5t-5 -23.5t-7 -26t-10.5 -25t-15 -28t-19.5 -26.5t-25.5 -27.5l2 -2l267 3
q39 1 60 18.5t28 59.5q1 9 8 9t7 -14q0 -35 -17 -115q-3 -13 -11 -16t-47 -3q-48 0 -95 3q-62 2 -104 2z" />
    <glyph glyph-name="yen.fitted" unicode="&#xe007;" horiz-adv-x="635" 
d="M352 306v-141q0 -76 1 -98q1 -24 11 -36t35 -16q21 -3 45 -3q8 0 8 -8q0 -7 -16 -7q-15 0 -32.5 0.5t-32 0.5t-27 0.5t-20 1t-8.5 0.5t-20 -1t-48 -1.5t-52 -0.5q-16 0 -16 7q0 8 7 8q25 0 46 3q25 4 35 16t11 36q1 22 1 98v141h-162q-9 0 -6 11l7 21q2 6 11 6h148
q-17 25 -86 141l-98 166q-32 54 -62 74q-19 13 -44 13q-10 0 -10 7q0 8 10 8q11 0 52.5 -1.5t42.5 -1.5q2 0 14 1t30.5 1.5t35.5 0.5q12 0 12 -8q0 -5 -14 -9q-13 -3 -13 -18q0 -16 13 -38q17 -33 86.5 -154.5t83.5 -142.5q11 18 76.5 139l74.5 137q18 30 18 53q0 16 -16 23
q-15 6 -15 11q0 7 16 7q15 0 38 -1.5t24 -1.5t42 1.5t51 1.5q12 0 12 -7q0 -8 -12 -8q-19 0 -43 -12q-23 -12 -52 -51q-14 -18 -52.5 -85l-83.5 -148l-55 -98h162q12 0 8 -9l-6 -23q-2 -6 -14 -6h-152z" />
    <glyph glyph-name="space_uni0326" unicode="&#xf6c3;" horiz-adv-x="822" 
d="M397 -168q0 19 -8 33.5t-16 22t-8 11.5q0 19 19.5 35.5t39.5 16.5q6 0 17 -18q16 -25 16 -41q0 -15 -9 -37q-22 -60 -61 -102q-7 -9 -13 -9t-6 7q0 1 6 13q23 40 23 68z" />
    <glyph glyph-name="Lslash.sc" unicode="&#xf6f9;" 
d="M235 322v-80q0 -95 3.5 -137.5t15.5 -53.5q20 -20 115 -20q67 0 86 9q11 5 18 14q18 21 23 51q2 11 8 11q7 0 7 -13q0 -39 -13 -85q-5 -15 -13.5 -19t-42.5 -4q-92 0 -151 3q-78 2 -95 2q-19 0 -38 -1q-10 0 -27 -1t-24 -1q-14 0 -14 7q0 6 7 6q11 0 27 4q8 2 12.5 9
t6 13.5t4.5 23.5q5 35 5 184v46l-75 -40q-6 0 -8 3l-10 24q-1 1 -0.5 3.5t1.5 3.5l92 45v65q0 156 -2 183q-2 24 -8.5 34t-27.5 13q-14 2 -30 2q-7 0 -7 7t14 7q18 0 42 -0.5t41.5 -1t18.5 -0.5t19.5 0.5t41 1t34.5 0.5q14 0 14 -7t-7 -7q-9 0 -29 -2q-19 -4 -25 -13.5
t-8 -33.5q-1 -27 -1 -183v-32l128 63q5 2 7 -3l11 -25q2 -5 -4 -8z" />
    <glyph glyph-name="OE.sc" unicode="&#xf6fa;" horiz-adv-x="1057" 
d="M744 595v-230q0 -9 6 -9q124 0 145 2q34 3 41 11q9 11 13 11t4 -7q0 -2 -1.5 -7.5t-3 -16.5t-2.5 -23q-3 -25 -3 -49q0 -13 -7 -13q-8 0 -8 9q0 11 -3 20q-6 24 -50 28q-17 2 -125 2q-6 0 -6 -8v-36v-68.5v-76.5v-38q2 -42 21.5 -53t85.5 -11t84 9q31 15 38 58q3 12 9 12
q7 0 7 -12q0 -7 -4.5 -39t-7.5 -43q-4 -16 -12 -19t-35 -3q-56 0 -158 3q-68 2 -71 2q-8 0 -15.5 -1.5t-10.5 -1.5q-8 0 -8 6q0 3 1 11t1 15l2 80h-3l-22.5 -25.5t-35 -30.5t-53 -34t-69 -22.5t-91.5 -10.5q-86 0 -154 30t-107.5 79t-60 106.5t-20.5 117.5q0 55 21 111.5
t62 107t111 82.5t158 32q168 0 259 -111h3v60q0 8 -0.5 18.5t-0.5 12.5q0 8 8 8q1 0 8.5 -1t15.5 -1h214q3 0 38 5q1 0 5.5 2t6.5 2q4 0 4 -8q0 -2 -3 -13.5t-4 -24.5q0 -1 -2 -26t-3 -31q-2 -9 -7 -9q-8 0 -8 11q0 18 -5 30q-10 20 -61 27q-22 3 -125 3q-6 0 -6 -11z
M422 21q27 0 56 6.5t64.5 25.5t62.5 49.5t45.5 84t18.5 122.5q0 142 -80.5 226.5t-191.5 84.5q-114 0 -183 -71.5t-69 -205.5q0 -143 78.5 -232.5t198.5 -89.5z" />
    <glyph glyph-name="Scaron.sc" unicode="&#xf6fd;" horiz-adv-x="524" 
d="M209 -14q-79 0 -128 23q-9 4 -11 9.5t-2 22.5q0 20 5 90q0 14 7 14q8 0 8 -10q0 -19 3 -31q10 -43 49.5 -63.5t89.5 -20.5q63 0 97.5 31.5t34.5 81.5q0 43 -23.5 71.5t-87.5 76.5l-40 30q-69 52 -97.5 94t-28.5 88q0 74 53.5 117t141.5 43q49 0 91 -10q17 -4 31 -4
q9 0 9 -6l-1 -11q-1 -11 -2 -32t-1 -47q0 -19 -7 -19q-6 0 -8 11q-2 23 -13 42q-5 8 -14.5 16t-36.5 17t-63 9q-50 0 -83.5 -24.5t-33.5 -67.5q0 -40 24 -69.5t90 -74.5l25 -17q79 -54 111.5 -101.5t32.5 -103.5q0 -92 -82 -145q-46 -30 -140 -30zM145 805l21 22q6 6 9 6
q4 0 8 -5q15 -16 44.5 -40t39.5 -29q8 -4 10 -4q6 0 16 5q25 13 85 63q11 10 18 10t7 -8q0 -3 -6 -11q-24 -24 -112 -104q-11 -10 -17 -10q-4 0 -15 10l-101 76q-12 8 -12 10t5 9z" />
    <glyph glyph-name="Zcaron.sc" unicode="&#xf6ff;" horiz-adv-x="609" 
d="M172 37h234q65 0 92.5 9.5t44.5 29.5q9 11 18 46q3 13 10 13t7 -19q0 -35 -18 -98q-4 -16 -7.5 -19t-18.5 -3q-73 0 -222.5 2t-227.5 2q-16 0 -16 7q0 9 12 26l383 569h-186q-99 0 -125 -14q-21 -11 -34 -30.5t-16 -36.5q-2 -15 -12 -15q-5 0 -5 11q0 19 18 113
q1 16 8 16q3 0 13.5 -2.5t23.5 -3.5q56 -2 154 -2h246q18 0 18 -7q0 -9 -5 -15zM198 805l21 22q6 6 9 6q4 0 8 -5q15 -16 44.5 -40t39.5 -29q8 -4 10 -4q6 0 16 5q25 13 85 63q11 10 18 10t7 -8q0 -3 -6 -11q-24 -24 -112 -104q-11 -10 -17 -10q-4 0 -15 10l-101 76
q-12 8 -12 10t5 9z" />
    <glyph glyph-name="exclam.sc" unicode="&#xf721;" horiz-adv-x="320" 
d="M143 206l-16 266q0 1 -1.5 31t-3.5 58t-4.5 58.5t-5.5 41.5q-4 16 -4 19q0 6 5 14q26 44 74 68q10 5 15 5q6 0 6 -10q0 -2 -2.5 -19.5t-6.5 -49t-6 -63.5q0 -3 -5.5 -111l-11 -212.5t-6.5 -115.5q-2 -32 -12 -32q-12 0 -15 52zM160 -17q-24 0 -37 15.5t-13 35.5
q0 19 13 35t38 16q22 0 36.5 -13.5t14.5 -34.5q0 -23 -14.5 -38.5t-37.5 -15.5z" />
    <glyph glyph-name="ampersand.sc" unicode="&#xf726;" horiz-adv-x="713" 
d="M270 -14q-109 0 -166.5 60t-57.5 127q0 69 40 120.5t101 84.5q-45 58 -45 118q0 56 55.5 106t141.5 50q72 0 112 -21q12 -7 12 -22q0 -67 -7 -97q-3 -15 -9 -15q-5 0 -5 16q0 41 -31 71q-36 36 -90 36q-47 0 -80 -26.5t-33 -81.5q0 -47 32 -93.5t110 -124.5
q22 -22 85.5 -77.5t87.5 -74.5q20 25 33.5 64t13.5 77q0 26 -17 42q-14 13 -45 13q-11 0 -11 6t15 6q58 0 110 -6q16 -1 16 -17q0 -47 -28 -103.5t-63 -96.5q63 -49 127 -84q62 -34 110 -34q13 0 13 -6t-16 -6h-90q-53 0 -85 13t-106 67q-96 -91 -230 -91zM302 33
q111 0 174 61q-36 27 -91.5 75t-75.5 68q-76 76 -108 119q-79 -48 -79 -143q0 -79 51 -129.5t129 -50.5z" />
    <glyph glyph-name="zero.oldstyle" unicode="&#xf730;" horiz-adv-x="618" 
d="M61 301q0 157 67.5 256t187.5 99q65 0 114.5 -30.5t76 -79.5t39 -101t12.5 -105q0 -157 -69 -257t-188 -100q-64 0 -113 30.5t-75.5 80t-39 102t-12.5 105.5zM141 336q0 -58 10.5 -113.5t31 -103t56 -76.5t81.5 -29q71 0 114.5 79t43.5 211q0 57 -11 112.5t-32 103
t-57 76.5t-81 29q-71 0 -113.5 -78t-42.5 -211z" />
    <glyph glyph-name="one.oldstyle" unicode="&#xf731;" horiz-adv-x="470" 
d="M293 374v-133q0 -123 5 -167q3 -27 10.5 -39t29.5 -17q30 -6 66 -6q8 0 8 -8q0 -7 -17 -7q-33 0 -67.5 0.5t-55.5 1.5l-21 1l-25 -1q-26 -1 -63 -1.5t-65 -0.5q-16 0 -16 7q0 8 8 8q47 0 80 7q23 4 31.5 17t10.5 38q3 44 3 167v123q0 27 -0.5 75.5t-0.5 76.5
q0 17 -3.5 24t-14.5 7q-14 0 -114 -48q-7 -4 -12 -4q-6 0 -6 9q0 5 7 10l193 129q18 12 24 12q10 0 10 -21q0 -1 -0.5 -14.5t-1 -37t-1.5 -53t-1.5 -71t-0.5 -84.5z" />
    <glyph glyph-name="two.oldstyle" unicode="&#xf732;" horiz-adv-x="555" 
d="M417 0h-379q-5 0 -9.5 4t-4.5 9q0 9 18 22q145 109 192 151q159 145 159 286q0 148 -161 148q-67 0 -105 -34q-37 -32 -37 -87q0 -14 -9 -14q-7 0 -8 12q-6 48 -6 113q0 7 10 13q81 33 176 33q110 0 168.5 -45.5t58.5 -121.5q0 -164 -185 -311q-44 -35 -163 -113
q-6 -5 2 -5h72q111 0 171 5q98 9 117 87q4 14 12 14q6 0 6 -14q0 -28 -30 -124q-6 -17 -19 -22.5t-46 -5.5z" />
    <glyph glyph-name="three.oldstyle" unicode="&#xf733;" horiz-adv-x="541" 
d="M391 171q0 41 -17.5 73t-45.5 51t-54 29.5t-53 15.5q-24 4 -24 11t21 10q20 4 42.5 13.5t47 26t40 45.5t15.5 64q0 39 -29.5 74.5t-101.5 35.5q-53 0 -84.5 -24t-31.5 -72q0 -10 -7 -10q-6 0 -7 10q-6 41 -6 85q0 10 12 18q62 29 150 29q54 0 93 -13.5t58 -35t27.5 -41
t8.5 -38.5q0 -30 -15.5 -58t-38.5 -47.5t-41 -31t-32 -17.5v-5q24 -5 49.5 -17.5t50.5 -32t41 -50t16 -65.5q0 -91 -80 -156t-201 -65q-28 0 -63.5 6.5t-50.5 14.5q-15 9 -15 24q0 69 6 107q1 13 8 13q6 0 7 -12q6 -53 37.5 -81.5t101.5 -28.5q75 0 120.5 36t45.5 109z" />
    <glyph glyph-name="four.oldstyle" unicode="&#xf734;" horiz-adv-x="575" 
d="M411 503v-257h68q11 0 19 2t12.5 4.5t5.5 2.5q5 0 5 -10q0 -18 -8 -40q-7 -12 -19 -12h-83q0 -113 1 -123q5 -47 39 -55q13 -3 40 -3q8 0 8 -8q0 -7 -14 -7q-22 0 -49 0.5t-45.5 1.5t-19.5 1t-17.5 -1t-41 -1.5t-46.5 -0.5q-14 0 -14 7q0 8 7 8q28 0 42 2q21 3 28.5 17
t10.5 39q2 20 2 123h-283q-19 0 -19 11q0 8 9 19q7 8 81 99l157.5 195.5t96.5 122.5q11 16 19 16q9 0 9 -15q0 -2 -0.5 -55t-0.5 -83zM342 246v288h-2q-8 -13 -117.5 -147t-114.5 -141h234z" />
    </font>
</defs>
</svg>
